<svg width="230" height="52" viewBox="0 0 230 52" fill="none" xmlns="http://www.w3.org/2000/svg">
<path d="M25.9604 1.25781C12.349 1.25781 1.25781 12.349 1.25781 25.9603C1.25781 39.5717 12.349 50.6629 25.9604 50.6629C39.5717 50.6629 50.6629 39.5717 50.6629 25.9603C50.6 12.349 39.5717 1.25781 25.9604 1.25781ZM25.9604 51.9207C11.6572 51.9207 0 40.2635 0 25.9603C0 11.6572 11.6572 0 25.9604 0C40.2635 0 51.9207 11.6572 51.9207 25.9603C51.8623 40.2635 40.268 51.9207 25.9604 51.9207Z" fill="#F3F4F8"/>
<path d="M51.4176 23.6289H0.628906V24.8283H51.4176V23.6289Z" fill="#F3F4F8"/>
<path d="M43.4797 6.9314H8.50806V8.13081H43.4797V6.9314Z" fill="#F3F4F8"/>
<path d="M45.3712 41.3371H6.42847V42.5365H45.3712V41.3371Z" fill="#F3F4F8"/>
<path d="M59.8 30.2459V18.5887H66.2913L66.0397 20.1609H61.7542V23.3774H65.3434V24.9541H61.7542V28.6063H66.417V30.2459H59.8Z" fill="#F3F4F8"/>
<path d="M76.3718 30.2459L73.9146 25.6459L71.5832 30.2459H69.2517L72.7826 24.0063L69.6919 18.5887H72.0234L73.9146 22.1779L75.7429 18.5887H78.0115L75.0511 23.8805L78.7033 30.2459H76.3718Z" fill="#F3F4F8"/>
<path d="M87.4627 20.7315C87.0854 20.3541 86.5823 20.1654 85.8231 20.1654H84.3092V24.2623H85.8231C87.2741 24.2623 87.903 23.5705 87.903 22.1824C87.903 21.549 87.7772 21.0459 87.4627 20.7315ZM86.2678 25.7717H84.3137V30.2459H82.3596V18.5887H85.4458C87.1483 18.5887 87.7772 18.7774 88.4061 19.1547C89.4124 19.7836 89.9829 20.7944 89.9829 22.1151C90.0458 24.3836 88.4061 25.7717 86.2678 25.7717Z" fill="#F3F4F8"/>
<path d="M97.2289 20.1609H96.1598V23.8804H97.166C98.1723 23.8804 98.7428 23.7547 99.0572 23.3773C99.3717 23.0629 99.5604 22.5597 99.5604 21.9892C99.6232 20.7314 98.9943 20.1609 97.2289 20.1609ZM99.9377 30.2459L98.9314 28.4176C98.1139 26.9666 97.6062 26.149 96.9145 25.5201C96.7258 25.3314 96.5371 25.2056 96.1598 25.1427V30.183H94.2686V18.5258H97.7994C100.382 18.5258 101.582 20.0396 101.582 21.8635C101.582 23.566 100.513 25.0754 98.6844 25.0754C99.1246 25.264 99.8838 26.4006 100.513 27.4068L102.215 30.1785H99.9467V30.2459H99.9377Z" fill="#F3F4F8"/>
<path d="M106.492 30.2459V18.5887H112.983L112.731 20.1609H108.446V23.3774H112.04V24.9541H108.446V28.6063H113.109V30.2459H106.492Z" fill="#F3F4F8"/>
<path d="M120.481 30.4975C119.155 30.4975 117.772 30.1201 116.635 29.4283L117.39 27.9145C118.459 28.5434 119.344 28.8578 120.539 28.8578C121.99 28.8578 122.808 28.166 122.808 27.0295C122.808 26.149 122.242 25.6414 121.042 25.2641L119.78 24.8867C118.711 24.5723 117.951 24.132 117.511 23.4986C117.197 22.9955 117.008 22.4924 117.008 21.7961C117.008 19.7162 118.648 18.3281 120.979 18.3281C122.304 18.3281 123.625 18.7055 124.699 19.4602L123.818 20.8482C122.749 20.2193 121.99 19.9678 121.047 19.9678C119.915 19.9678 119.155 20.5967 119.155 21.5445C119.155 22.2363 119.533 22.6137 120.732 22.9955L122.12 23.3729C123.823 23.876 125.018 24.9496 125.018 26.7106C125.081 28.6691 123.508 30.4975 120.481 30.4975Z" fill="#F3F4F8"/>
<path d="M132.582 30.4975C131.257 30.4975 129.874 30.1201 128.737 29.4283L129.492 27.9145C130.561 28.5434 131.446 28.8578 132.641 28.8578C134.092 28.8578 134.909 28.166 134.909 27.0295C134.909 26.149 134.343 25.6414 133.144 25.2641L131.882 24.8867C130.812 24.5723 130.053 24.132 129.613 23.4986C129.299 22.9955 129.11 22.4924 129.11 21.7961C129.11 19.7162 130.75 18.3281 133.081 18.3281C134.406 18.3281 135.727 18.7055 136.801 19.4602L135.92 20.8482C134.851 20.2193 134.092 19.9678 133.148 19.9678C132.016 19.9678 131.257 20.5967 131.257 21.5445C131.257 22.2363 131.635 22.6137 132.834 22.9955L134.222 23.3729C135.925 23.876 137.119 24.9496 137.119 26.7106C137.182 28.6691 135.606 30.4975 132.582 30.4975Z" fill="#F3F4F8"/>
<path d="M151.046 30.4975C149.72 30.4975 148.337 30.1201 147.2 29.4283L147.955 27.9145C149.024 28.5434 149.909 28.8578 151.104 28.8578C152.555 28.8578 153.372 28.166 153.372 27.0295C153.372 26.149 152.806 25.6414 151.607 25.2641L150.345 24.8867C149.276 24.5723 148.516 24.132 148.076 23.4986C147.762 22.9955 147.573 22.4924 147.573 21.7961C147.573 19.7162 149.213 18.3281 151.544 18.3281C152.869 18.3281 154.19 18.7055 155.264 19.4602L154.383 20.8482C153.314 20.2193 152.555 19.9678 151.612 19.9678C150.479 19.9678 149.72 20.5967 149.72 21.5445C149.72 22.2363 150.098 22.6137 151.297 22.9955L152.685 23.3729C154.388 23.876 155.583 24.9496 155.583 26.7106C155.583 28.6691 154.006 30.4975 151.046 30.4975Z" fill="#F3F4F8"/>
<path d="M164.72 30.4346C163.143 30.4346 161.948 29.8686 161 28.7321C160.12 27.6629 159.675 26.2748 159.675 24.5723C159.675 23.1842 159.926 21.9893 160.429 21.0414C161.31 19.3389 162.887 18.3326 164.715 18.3326C165.847 18.3326 166.921 18.6471 167.612 19.2131L166.732 20.4754C166.103 20.0352 165.47 19.8465 164.715 19.8465C163.709 19.8465 162.887 20.3496 162.384 21.2346C162.006 21.9264 161.755 22.9371 161.755 24.3207C161.755 25.7717 161.88 26.5893 162.195 27.2182C162.698 28.3502 163.646 28.8578 164.778 28.8578C165.596 28.8578 166.229 28.6692 166.858 28.1031L167.738 29.3654C167.051 30.1201 165.977 30.4346 164.72 30.4346Z" fill="#F3F4F8"/>
<path d="M175.303 20.1609H174.234V23.8804H175.24C176.246 23.8804 176.817 23.7547 177.131 23.3773C177.446 23.0629 177.635 22.5597 177.635 21.9892C177.635 20.7314 177.006 20.1609 175.303 20.1609ZM178.012 30.2459L177.006 28.4176C176.188 26.9666 175.68 26.149 174.989 25.5201C174.8 25.3314 174.611 25.2056 174.234 25.1427V30.183H172.343V18.5258H175.937C178.582 18.5258 179.719 20.0396 179.719 21.8635C179.719 23.566 178.65 25.0754 176.821 25.0754C177.262 25.264 178.021 26.4006 178.65 27.4068L180.352 30.1785H178.021V30.2459H178.012Z" fill="#F3F4F8"/>
<path d="M186.52 18.5887H184.503V30.2459H186.52V18.5887Z" fill="#F3F4F8"/>
<path d="M196.794 20.7315C196.417 20.3541 195.913 20.1654 195.154 20.1654H193.64V24.2623H195.154C196.605 24.2623 197.234 23.5705 197.234 22.1824C197.297 21.549 197.108 21.0459 196.794 20.7315ZM195.657 25.7717H193.703V30.2459H191.812V18.5887H194.898C196.601 18.5887 197.23 18.7774 197.859 19.1547C198.865 19.7836 199.435 20.7944 199.435 22.1151C199.44 24.3836 197.737 25.7717 195.657 25.7717Z" fill="#F3F4F8"/>
<path d="M210.023 20.2283H207.063V30.2459H205.172V20.2283H202.211V18.5887H210.275L210.023 20.2283Z" fill="#F3F4F8"/>
<path d="M216.892 30.4975C215.567 30.4975 214.183 30.1201 213.046 29.4283L213.801 27.9145C214.87 28.5434 215.755 28.8578 216.95 28.8578C218.401 28.8578 219.219 28.166 219.219 27.0295C219.219 26.149 218.653 25.6414 217.453 25.2641L216.191 24.8867C215.122 24.5723 214.363 24.132 213.922 23.4986C213.608 22.9955 213.419 22.4924 213.419 21.7961C213.419 19.7162 215.059 18.3281 217.39 18.3281C218.716 18.3281 220.036 18.7055 221.11 19.4602L220.229 20.8482C219.16 20.2193 218.401 19.9678 217.458 19.9678C216.326 19.9678 215.566 20.5967 215.566 21.5445C215.566 22.2363 215.944 22.6137 217.143 22.9955L218.531 23.3729C220.234 23.876 221.366 24.9496 221.366 26.7106C221.429 28.6691 219.857 30.4975 216.892 30.4975Z" fill="#F3F4F8"/>
<path d="M227.48 20.5428C227.417 20.5428 227.291 20.4799 227.103 20.4799H226.851V21.2975H227.04C227.291 21.2975 227.417 21.2346 227.48 21.1717C227.543 21.1088 227.606 20.983 227.606 20.8572C227.669 20.7314 227.606 20.6057 227.48 20.5428ZM227.794 23.1258C227.669 22.9371 227.606 22.8113 227.48 22.6227C227.166 22.0566 227.103 21.9309 226.977 21.868H226.851V23.1932H226.222V20.0441H227.354C227.92 20.0441 228.298 20.4215 228.298 20.9246C228.298 21.3648 227.983 21.8051 227.606 21.8051C227.669 21.868 227.669 21.868 227.732 21.9309C227.92 22.1824 228.486 23.1303 228.486 23.1303L227.794 23.1258ZM227.228 19.3434C226.029 19.3434 225.086 20.3496 225.086 21.549C225.086 22.8113 226.029 23.8176 227.228 23.8176C228.428 23.8176 229.371 22.8113 229.371 21.549C229.371 20.2867 228.423 19.3434 227.228 19.3434ZM227.228 24.3207C225.715 24.3207 224.457 23.1213 224.457 21.549C224.457 19.9768 225.719 18.7773 227.228 18.7773C228.742 18.7773 230 20.0396 230 21.549C230 23.1258 228.738 24.3207 227.228 24.3207Z" fill="#F3F4F8"/>
<path d="M20.9201 14.1144C22.8742 9.89178 21.4232 9.38865 18.7144 9.13709L19.4691 7.49744H42.7835C42.7835 7.49744 45.4923 9.7031 46.5031 11.0912C46 12.4793 45.6226 13.6113 45.2408 14.8107L43.3496 14.9994C43.7898 12.7937 43.4753 11.3428 42.9093 10.5252C42.2175 9.6447 40.5779 9.13709 36.6068 9.13709H31.7597C30.7535 9.13709 30.3087 9.26287 29.6169 10.7138L23.9433 22.8742H29.4867C35.03 22.8742 35.6634 22.434 38.1207 19.1547H39.8861L35.4119 28.732H33.6464C34.3382 25.1383 33.898 24.7609 28.6062 24.7609H23L18.2742 35.1603C17.205 37.4289 16.5716 39.0685 17.3308 39.4459C18.3371 40.0119 20.2283 40.0748 23.3818 40.0748C27.6044 40.0748 30.3761 39.5088 32.3302 38.3094C33.907 37.3031 35.9869 35.6006 37.9994 33.4578L39.7019 33.6465C38.8843 34.8459 34.9132 40.2006 33.7767 41.6471H5.98804C5.98804 41.6471 5.42202 40.8924 5.04468 40.3847C9.5189 39.9445 9.39312 38.8709 11.0957 35.0929L20.9201 14.1144Z" fill="#F3F4F8"/>
<path d="M14.366 14.1144L14.2402 12.915C14.8691 12.8521 15.5025 12.8521 16.1314 12.8521C16.5717 12.8521 16.949 12.8521 17.3938 12.915L17.3309 14.1144C16.9535 14.1144 16.5762 14.0515 16.1314 14.0515C15.5654 14.0515 14.932 14.0515 14.366 14.1144ZM22.8113 15.2464C21.868 14.932 20.9201 14.6175 19.9768 14.4289L20.2283 13.2295C21.2346 13.4181 22.3082 13.7326 23.2516 14.1099L22.8113 15.2464ZM8.88555 15.4351L8.44531 14.3031C9.38867 13.9257 10.4623 13.6113 11.4686 13.3597L11.7201 14.5591C10.7768 14.8062 9.82891 15.0578 8.88555 15.4351ZM27.7258 17.8923C26.9082 17.3263 26.0861 16.7603 25.2057 16.3156L25.7717 15.2464C26.715 15.7496 27.6 16.3156 28.4176 16.949L27.7258 17.8923ZM4.03398 18.2742L3.2793 17.3308C4.09687 16.7019 4.98184 16.0685 5.8623 15.5654L6.49121 16.6345C5.66914 17.0748 4.78867 17.6408 4.03398 18.2742ZM31.6969 21.9263C31.1309 21.1088 30.4346 20.3496 29.7428 19.6578L30.6232 18.7773C31.3779 19.532 32.0742 20.2912 32.7031 21.1716L31.6969 21.9263ZM34.3428 26.8408C34.0283 25.8974 33.5881 25.0125 33.1434 24.132L34.2125 23.566C34.7156 24.5093 35.1559 25.4572 35.5377 26.4634L34.3428 26.8408Z" fill="#F3F4F8"/>
<path d="M35.412 33.2692C35.412 32.2629 35.2862 31.3151 35.0976 30.3088L36.297 30.0573C36.4856 31.1264 36.6114 32.1371 36.6114 33.2063L35.412 33.2692ZM33.5882 44.1717L32.519 43.5428C33.0222 42.7252 33.2737 42.2805 33.6511 41.4H34.9763C34.5944 42.3434 34.0913 43.2912 33.5882 44.1717ZM29.7429 48.7717L28.9253 47.8912C29.68 47.2623 30.3763 46.5031 31.0052 45.7485L31.9485 46.5032C31.2567 47.2578 30.4976 48.0799 29.7429 48.7717Z" fill="#F3F4F8"/>
<path d="M7.9376 44.549L7.05713 43.7314L27.4112 0.377319L28.5433 0.880442L8.13076 44.4232L7.9376 44.549Z" fill="#F3F4F8"/>
<path d="M32.7507 1.10469L11.3433 47.1599L12.4309 47.6654L33.8383 1.61024L32.7507 1.10469Z" fill="#F3F4F8"/>
<path d="M24.5768 51.5433L23.6963 50.9144C24.6396 50.5371 25.5246 50.0969 26.3422 49.5892L26.9711 50.6584C26.0906 51.1615 25.7717 51.2873 24.7654 51.6646L24.5768 51.5433Z" fill="#F3F4F8"/>
</svg>
