<svg width="196" height="50" viewBox="0 0 196 50" fill="none" xmlns="http://www.w3.org/2000/svg">
<path d="M22.677 4.0038C19.9376 3.95123 17.2152 4.44507 14.669 5.45645C12.1229 6.46783 9.80402 7.97645 7.84811 9.89407C5.89221 11.8117 4.3385 14.0998 3.27785 16.6247C2.2172 19.1495 1.6709 21.8604 1.6709 24.5987C1.6709 27.337 2.2172 30.0479 3.27785 32.5727C4.3385 35.0976 5.89221 37.3857 7.84811 39.3033C9.80402 41.221 12.1229 42.7296 14.669 43.741C17.2152 44.7523 19.9376 45.2462 22.677 45.1936C28.1412 45.1936 33.3816 43.0242 37.2453 39.1626C41.1091 35.301 43.2798 30.0636 43.2798 24.6025C43.2798 19.1414 41.1091 13.904 37.2453 10.0424C33.3816 6.1808 28.1412 4.01139 22.677 4.01139V4.0038ZM22.677 42.8475C19.98 42.849 17.316 42.2557 14.8748 41.11C12.4337 39.9642 10.2755 38.2943 8.55433 36.2192C9.18119 36.1819 9.79195 36.0059 10.3424 35.7039C10.8929 35.4019 11.3694 34.9814 11.7374 34.4729C12.1412 35.023 12.6667 35.4723 13.2729 35.7859C13.8792 36.0995 14.5497 36.2687 15.2323 36.2805C15.9148 36.2923 16.5908 36.1462 17.2075 35.8537C17.8242 35.5612 18.3649 35.1302 18.7874 34.5944C19.2108 35.1274 19.7514 35.5559 20.3672 35.8466C20.9831 36.1373 21.6576 36.2824 22.3385 36.2706C23.0195 36.2589 23.6886 36.0906 24.294 35.7788C24.8994 35.4671 25.4249 35.0202 25.8297 34.4729C26.2403 35.0331 26.7772 35.4886 27.3969 35.8027C28.0166 36.1167 28.7016 36.2804 29.3964 36.2804C30.0912 36.2804 30.7763 36.1167 31.396 35.8027C32.0156 35.4886 32.5526 35.0331 32.9632 34.4729C33.3648 35.0432 33.9004 35.5063 34.523 35.8213C35.1456 36.1364 35.836 36.2939 36.5337 36.2799H36.7692C35.0436 38.3362 32.8869 39.9883 30.4516 41.1193C28.0164 42.2502 25.3623 42.8325 22.677 42.8247V42.8475ZM31.3754 17.6477L17.4731 30.7221L11.8058 24.8606L5.1965 30.0084C4.4243 27.4923 4.20402 24.8395 4.55066 22.2306C4.8973 19.6217 5.80272 17.1182 7.20519 14.8908C8.60766 12.6633 10.4742 10.7643 12.6776 9.32313C14.8809 7.88198 17.3693 6.93261 19.9731 6.53972C22.5769 6.14684 25.2348 6.31969 27.7656 7.04649C30.2965 7.77329 32.6408 9.03695 34.6387 10.7513C36.6366 12.4657 38.2412 14.5904 39.343 16.9808C40.4449 19.3711 41.018 21.9707 41.0235 24.6025C41.0235 25.1416 41.0235 25.6655 40.9475 26.1894L31.3754 17.6477Z" fill="white"/>
<path d="M22.6767 12.1885C22.5541 12.7872 22.2536 13.3351 21.8145 13.7605C21.3753 14.1858 20.818 14.4688 20.2153 14.5726C20.818 14.6763 21.3753 14.9593 21.8145 15.3846C22.2536 15.81 22.5541 16.3579 22.6767 16.9566C22.7908 16.3553 23.0877 15.8038 23.5268 15.3771C23.9659 14.9505 24.5259 14.6696 25.1305 14.5726C24.5259 14.4755 23.9659 14.1946 23.5268 13.768C23.0877 13.3413 22.7908 12.7898 22.6767 12.1885Z" fill="white"/>
<path d="M188.677 20.4614L185.638 13.7191L182.599 20.4614H188.677ZM185.638 5.9671L195.856 27.6743H191.905L190.059 23.6654H181.156L179.287 27.6743H175.359L185.615 5.9671H185.638Z" fill="white"/>
<path d="M89.256 7.17421H92.9708V19.5577C92.9708 23.2401 94.8473 24.8725 97.6657 24.8725C100.484 24.8725 102.33 23.2705 102.33 19.5577V7.17421H106.045V19.945C106.045 25.4648 102.33 28.1981 97.6885 28.1981C93.0468 28.1981 89.256 25.4572 89.256 19.945V7.17421Z" fill="white"/>
<path d="M73.6899 6.81739C75.1161 6.7985 76.5316 7.06483 77.8532 7.60074C79.1748 8.13665 80.3758 8.9313 81.3856 9.93795L78.9242 12.2157C77.5169 10.8721 75.6358 10.1381 73.6899 10.1733C71.7396 10.1733 69.8691 10.9477 68.49 12.326C67.1109 13.7043 66.3362 15.5737 66.3362 17.5229C66.3362 19.4722 67.1109 21.3416 68.49 22.7199C69.8691 24.0982 71.7396 24.8726 73.6899 24.8726C75.5054 24.9074 77.2706 24.2753 78.6507 23.0959V19.2996H72.9303V15.9968H82.1985V24.3487C81.1603 25.5895 79.8571 26.5821 78.3847 27.2535C76.9123 27.9249 75.3081 28.2581 73.6899 28.2285C67.6124 28.2285 62.6972 23.7185 62.6972 17.5381C62.6972 11.3578 67.6124 6.81739 73.6899 6.81739Z" fill="white"/>
<path d="M138.742 6.97679H131.343V27.6742H138.765C145.777 27.6742 149.613 23.4603 149.613 17.371C149.613 11.2818 145.746 6.97679 138.742 6.97679ZM138.499 24.3183H135.058V10.3327H138.469C143.938 10.3327 145.898 13.3698 145.898 17.371C145.898 21.3723 143.938 24.3183 138.499 24.3183Z" fill="white"/>
<path d="M156.405 6.97679H169.593V10.3327H160.12V15.2603H169.001V18.6162H160.12V24.3183H169.806V27.6742H156.405V6.97679Z" fill="white"/>
<path d="M123.381 10.1277V7.17421H120.548H116.833H114.007V10.1277H116.833V24.9181H114.007V27.8716H116.833H120.548H123.381V24.9181H120.548V10.1277H123.381Z" fill="white"/>
<path d="M66.4023 35.4423H67.3593L70.6923 43.2303H69.4603L68.6793 41.3053H64.9723L64.2023 43.2303H62.9703L66.4023 35.4423ZM68.2943 40.3813L66.8423 36.8063H66.8203L65.3463 40.3813H68.2943ZM72.0025 38.0163H72.9925V38.8193H73.0145C73.1391 38.5406 73.3555 38.317 73.6635 38.1483C73.9715 37.9723 74.3271 37.8843 74.7305 37.8843C74.9798 37.8843 75.2181 37.9246 75.4455 38.0053C75.6801 38.0786 75.8818 38.196 76.0505 38.3573C76.2265 38.5186 76.3658 38.7276 76.4685 38.9843C76.5711 39.2336 76.6225 39.5306 76.6225 39.8753V43.2303H75.6325V40.1503C75.6325 39.9083 75.5995 39.703 75.5335 39.5343C75.4675 39.3583 75.3795 39.219 75.2695 39.1163C75.1595 39.0063 75.0311 38.9293 74.8845 38.8853C74.7451 38.834 74.5985 38.8083 74.4445 38.8083C74.2391 38.8083 74.0485 38.8413 73.8725 38.9073C73.6965 38.9733 73.5425 39.0796 73.4105 39.2263C73.2785 39.3656 73.1758 39.5453 73.1025 39.7653C73.0291 39.9853 72.9925 40.2456 72.9925 40.5463V43.2303H72.0025V38.0163ZM82.5293 35.4423H83.5853V43.2303H82.5293V35.4423ZM85.8878 38.0163H86.8778V38.8193H86.8998C87.0245 38.5406 87.2408 38.317 87.5488 38.1483C87.8568 37.9723 88.2125 37.8843 88.6158 37.8843C88.8651 37.8843 89.1035 37.9246 89.3308 38.0053C89.5655 38.0786 89.7671 38.196 89.9358 38.3573C90.1118 38.5186 90.2511 38.7276 90.3538 38.9843C90.4565 39.2336 90.5078 39.5306 90.5078 39.8753V43.2303H89.5178V40.1503C89.5178 39.9083 89.4848 39.703 89.4188 39.5343C89.3528 39.3583 89.2648 39.219 89.1548 39.1163C89.0448 39.0063 88.9165 38.9293 88.7698 38.8853C88.6305 38.834 88.4838 38.8083 88.3298 38.8083C88.1245 38.8083 87.9338 38.8413 87.7578 38.9073C87.5818 38.9733 87.4278 39.0796 87.2958 39.2263C87.1638 39.3656 87.0611 39.5453 86.9878 39.7653C86.9145 39.9853 86.8778 40.2456 86.8778 40.5463V43.2303H85.8878V38.0163ZM91.9231 38.0163H93.0671L94.6291 42.0093L96.1251 38.0163H97.1811L95.1351 43.2303H94.0461L91.9231 38.0163ZM99.3481 40.9863C99.3481 41.2136 99.3958 41.4226 99.4911 41.6133C99.5938 41.7966 99.7258 41.9543 99.8871 42.0863C100.048 42.2183 100.235 42.321 100.448 42.3943C100.661 42.4676 100.881 42.5043 101.108 42.5043C101.416 42.5043 101.684 42.4346 101.911 42.2953C102.138 42.1486 102.347 41.958 102.538 41.7233L103.286 42.2953C102.736 43.0066 101.966 43.3623 100.976 43.3623C100.565 43.3623 100.191 43.2926 99.8541 43.1533C99.5241 43.014 99.2418 42.8233 99.0071 42.5813C98.7798 42.332 98.6038 42.0423 98.4791 41.7123C98.3544 41.375 98.2921 41.012 98.2921 40.6233C98.2921 40.2346 98.3581 39.8753 98.4901 39.5453C98.6294 39.208 98.8164 38.9183 99.0511 38.6763C99.2931 38.427 99.5791 38.2326 99.9091 38.0933C100.239 37.954 100.598 37.8843 100.987 37.8843C101.449 37.8843 101.838 37.965 102.153 38.1263C102.476 38.2876 102.74 38.5003 102.945 38.7643C103.15 39.021 103.297 39.3143 103.385 39.6443C103.48 39.967 103.528 40.297 103.528 40.6343V40.9863H99.3481ZM102.472 40.1943C102.465 39.9743 102.428 39.7726 102.362 39.5893C102.303 39.406 102.212 39.2483 102.087 39.1163C101.962 38.977 101.805 38.8706 101.614 38.7973C101.431 38.7166 101.214 38.6763 100.965 38.6763C100.723 38.6763 100.499 38.724 100.294 38.8193C100.096 38.9073 99.9274 39.0246 99.7881 39.1713C99.6488 39.318 99.5388 39.483 99.4581 39.6663C99.3848 39.8423 99.3481 40.0183 99.3481 40.1943H102.472ZM105.262 38.0163H106.252V38.8193H106.274C106.399 38.5406 106.615 38.317 106.923 38.1483C107.231 37.9723 107.587 37.8843 107.99 37.8843C108.24 37.8843 108.478 37.9246 108.705 38.0053C108.94 38.0786 109.142 38.196 109.31 38.3573C109.486 38.5186 109.626 38.7276 109.728 38.9843C109.831 39.2336 109.882 39.5306 109.882 39.8753V43.2303H108.892V40.1503C108.892 39.9083 108.859 39.703 108.793 39.5343C108.727 39.3583 108.639 39.219 108.529 39.1163C108.419 39.0063 108.291 38.9293 108.144 38.8853C108.005 38.834 107.858 38.8083 107.704 38.8083C107.499 38.8083 107.308 38.8413 107.132 38.9073C106.956 38.9733 106.802 39.0796 106.67 39.2263C106.538 39.3656 106.436 39.5453 106.362 39.7653C106.289 39.9853 106.252 40.2456 106.252 40.5463V43.2303H105.262V38.0163ZM112.673 40.9863C112.673 41.2136 112.72 41.4226 112.816 41.6133C112.918 41.7966 113.05 41.9543 113.212 42.0863C113.373 42.2183 113.56 42.321 113.773 42.3943C113.985 42.4676 114.205 42.5043 114.433 42.5043C114.741 42.5043 115.008 42.4346 115.236 42.2953C115.463 42.1486 115.672 41.958 115.863 41.7233L116.611 42.2953C116.061 43.0066 115.291 43.3623 114.301 43.3623C113.89 43.3623 113.516 43.2926 113.179 43.1533C112.849 43.014 112.566 42.8233 112.332 42.5813C112.104 42.332 111.928 42.0423 111.804 41.7123C111.679 41.375 111.617 41.012 111.617 40.6233C111.617 40.2346 111.683 39.8753 111.815 39.5453C111.954 39.208 112.141 38.9183 112.376 38.6763C112.618 38.427 112.904 38.2326 113.234 38.0933C113.564 37.954 113.923 37.8843 114.312 37.8843C114.774 37.8843 115.162 37.965 115.478 38.1263C115.8 38.2876 116.064 38.5003 116.27 38.7643C116.475 39.021 116.622 39.3143 116.71 39.6443C116.805 39.967 116.853 40.297 116.853 40.6343V40.9863H112.673ZM115.797 40.1943C115.789 39.9743 115.753 39.7726 115.687 39.5893C115.628 39.406 115.536 39.2483 115.412 39.1163C115.287 38.977 115.129 38.8706 114.939 38.7973C114.755 38.7166 114.539 38.6763 114.29 38.6763C114.048 38.6763 113.824 38.724 113.619 38.8193C113.421 38.9073 113.252 39.0246 113.113 39.1713C112.973 39.318 112.863 39.483 112.783 39.6663C112.709 39.8423 112.673 40.0183 112.673 40.1943H115.797ZM127.875 37.1253C127.655 36.8393 127.376 36.6193 127.039 36.4653C126.701 36.3113 126.353 36.2343 125.994 36.2343C125.554 36.2343 125.154 36.3186 124.795 36.4873C124.443 36.6486 124.138 36.8723 123.882 37.1583C123.632 37.4443 123.438 37.7816 123.299 38.1703C123.159 38.5516 123.09 38.9623 123.09 39.4023C123.09 39.813 123.156 40.2016 123.288 40.5683C123.42 40.935 123.61 41.2576 123.86 41.5363C124.109 41.815 124.413 42.035 124.773 42.1963C125.132 42.3576 125.539 42.4383 125.994 42.4383C126.441 42.4383 126.833 42.3466 127.171 42.1633C127.508 41.98 127.794 41.7233 128.029 41.3933L128.92 42.0643C128.861 42.145 128.758 42.2623 128.612 42.4163C128.465 42.563 128.271 42.7133 128.029 42.8673C127.787 43.014 127.493 43.1423 127.149 43.2523C126.811 43.3696 126.419 43.4283 125.972 43.4283C125.356 43.4283 124.798 43.311 124.3 43.0763C123.808 42.8416 123.387 42.5336 123.035 42.1523C122.69 41.771 122.426 41.342 122.243 40.8653C122.059 40.3813 121.968 39.8936 121.968 39.4023C121.968 38.801 122.067 38.2473 122.265 37.7413C122.463 37.228 122.738 36.788 123.09 36.4213C123.449 36.0473 123.878 35.7576 124.377 35.5523C124.875 35.347 125.425 35.2443 126.027 35.2443C126.54 35.2443 127.042 35.3433 127.534 35.5413C128.032 35.7393 128.439 36.0436 128.755 36.4543L127.875 37.1253ZM131.297 40.6233C131.297 40.8873 131.337 41.133 131.418 41.3603C131.498 41.5803 131.612 41.771 131.759 41.9323C131.905 42.0863 132.085 42.211 132.298 42.3063C132.51 42.3943 132.749 42.4383 133.013 42.4383C133.277 42.4383 133.515 42.3943 133.728 42.3063C133.94 42.211 134.12 42.0863 134.267 41.9323C134.413 41.771 134.527 41.5803 134.608 41.3603C134.688 41.133 134.729 40.8873 134.729 40.6233C134.729 40.3593 134.688 40.1173 134.608 39.8973C134.527 39.67 134.413 39.4793 134.267 39.3253C134.12 39.164 133.94 39.0393 133.728 38.9513C133.515 38.856 133.277 38.8083 133.013 38.8083C132.749 38.8083 132.51 38.856 132.298 38.9513C132.085 39.0393 131.905 39.164 131.759 39.3253C131.612 39.4793 131.498 39.67 131.418 39.8973C131.337 40.1173 131.297 40.3593 131.297 40.6233ZM130.241 40.6233C130.241 40.242 130.31 39.8863 130.45 39.5563C130.596 39.2263 130.794 38.9366 131.044 38.6873C131.293 38.438 131.586 38.2436 131.924 38.1043C132.261 37.9576 132.624 37.8843 133.013 37.8843C133.401 37.8843 133.764 37.9576 134.102 38.1043C134.439 38.2436 134.732 38.438 134.982 38.6873C135.231 38.9366 135.425 39.2263 135.565 39.5563C135.711 39.8863 135.785 40.242 135.785 40.6233C135.785 41.0046 135.711 41.364 135.565 41.7013C135.425 42.0313 135.231 42.321 134.982 42.5703C134.732 42.8123 134.439 43.0066 134.102 43.1533C133.764 43.2926 133.401 43.3623 133.013 43.3623C132.624 43.3623 132.261 43.2926 131.924 43.1533C131.586 43.0066 131.293 42.8123 131.044 42.5703C130.794 42.321 130.596 42.0313 130.45 41.7013C130.31 41.364 130.241 41.0046 130.241 40.6233ZM137.575 38.0163H138.499V38.8303H138.521C138.543 38.757 138.598 38.6653 138.686 38.5553C138.781 38.4453 138.899 38.3426 139.038 38.2473C139.185 38.1446 139.353 38.0603 139.544 37.9943C139.742 37.921 139.958 37.8843 140.193 37.8843C140.582 37.8843 140.908 37.965 141.172 38.1263C141.436 38.2876 141.652 38.5296 141.821 38.8523C141.99 38.5296 142.228 38.2876 142.536 38.1263C142.844 37.965 143.156 37.8843 143.471 37.8843C143.874 37.8843 144.204 37.9503 144.461 38.0823C144.718 38.2143 144.919 38.3903 145.066 38.6103C145.213 38.823 145.312 39.0686 145.363 39.3473C145.422 39.6186 145.451 39.901 145.451 40.1943V43.2303H144.461V40.3263C144.461 40.1283 144.446 39.9376 144.417 39.7543C144.395 39.571 144.344 39.4096 144.263 39.2703C144.182 39.131 144.069 39.021 143.922 38.9403C143.775 38.8523 143.581 38.8083 143.339 38.8083C142.862 38.8083 142.521 38.955 142.316 39.2483C142.111 39.5416 142.008 39.9193 142.008 40.3813V43.2303H141.018V40.5023C141.018 40.253 141.003 40.0256 140.974 39.8203C140.952 39.615 140.901 39.439 140.82 39.2923C140.747 39.1383 140.637 39.021 140.49 38.9403C140.351 38.8523 140.16 38.8083 139.918 38.8083C139.742 38.8083 139.57 38.845 139.401 38.9183C139.24 38.9843 139.097 39.087 138.972 39.2263C138.847 39.3656 138.748 39.5453 138.675 39.7653C138.602 39.978 138.565 40.231 138.565 40.5243V43.2303H137.575V38.0163ZM147.492 38.0163H148.482V38.7643H148.504C148.695 38.4856 148.955 38.2693 149.285 38.1153C149.622 37.9613 149.967 37.8843 150.319 37.8843C150.722 37.8843 151.085 37.954 151.408 38.0933C151.738 38.2326 152.017 38.427 152.244 38.6763C152.479 38.9256 152.658 39.219 152.783 39.5563C152.908 39.8863 152.97 40.242 152.97 40.6233C152.97 41.012 152.908 41.375 152.783 41.7123C152.658 42.0423 152.479 42.332 152.244 42.5813C152.017 42.8233 151.738 43.014 151.408 43.1533C151.085 43.2926 150.722 43.3623 150.319 43.3623C149.945 43.3623 149.593 43.2853 149.263 43.1313C148.933 42.97 148.68 42.7536 148.504 42.4823H148.482V46.3323H147.492V38.0163ZM150.198 38.8083C149.934 38.8083 149.696 38.856 149.483 38.9513C149.27 39.0393 149.091 39.164 148.944 39.3253C148.797 39.4793 148.684 39.67 148.603 39.8973C148.522 40.1173 148.482 40.3593 148.482 40.6233C148.482 40.8873 148.522 41.133 148.603 41.3603C148.684 41.5803 148.797 41.771 148.944 41.9323C149.091 42.0863 149.27 42.211 149.483 42.3063C149.696 42.3943 149.934 42.4383 150.198 42.4383C150.462 42.4383 150.7 42.3943 150.913 42.3063C151.126 42.211 151.305 42.0863 151.452 41.9323C151.599 41.771 151.712 41.5803 151.793 41.3603C151.874 41.133 151.914 40.8873 151.914 40.6233C151.914 40.3593 151.874 40.1173 151.793 39.8973C151.712 39.67 151.599 39.4793 151.452 39.3253C151.305 39.164 151.126 39.0393 150.913 38.9513C150.7 38.856 150.462 38.8083 150.198 38.8083ZM154.789 38.6543C155.067 38.3976 155.39 38.207 155.757 38.0823C156.123 37.9503 156.49 37.8843 156.857 37.8843C157.238 37.8843 157.564 37.932 157.836 38.0273C158.114 38.1226 158.342 38.251 158.518 38.4123C158.694 38.5736 158.822 38.7606 158.903 38.9733C158.991 39.1786 159.035 39.395 159.035 39.6223V42.2843C159.035 42.4676 159.038 42.6363 159.046 42.7903C159.053 42.9443 159.064 43.091 159.079 43.2303H158.199C158.177 42.9663 158.166 42.7023 158.166 42.4383H158.144C157.924 42.7756 157.663 43.014 157.363 43.1533C157.062 43.2926 156.714 43.3623 156.318 43.3623C156.076 43.3623 155.845 43.3293 155.625 43.2633C155.405 43.1973 155.21 43.0983 155.042 42.9663C154.88 42.8343 154.752 42.673 154.657 42.4823C154.561 42.2843 154.514 42.057 154.514 41.8003C154.514 41.463 154.587 41.1806 154.734 40.9533C154.888 40.726 155.093 40.5426 155.35 40.4033C155.614 40.2566 155.918 40.154 156.263 40.0953C156.615 40.0293 156.989 39.9963 157.385 39.9963H158.111V39.7763C158.111 39.6443 158.085 39.5123 158.034 39.3803C157.982 39.2483 157.905 39.131 157.803 39.0283C157.7 38.9183 157.572 38.834 157.418 38.7753C157.264 38.7093 157.08 38.6763 156.868 38.6763C156.677 38.6763 156.508 38.6946 156.362 38.7313C156.222 38.768 156.094 38.8156 155.977 38.8743C155.859 38.9256 155.753 38.988 155.658 39.0613C155.562 39.1346 155.471 39.2043 155.383 39.2703L154.789 38.6543ZM157.583 40.7223C157.348 40.7223 157.106 40.737 156.857 40.7663C156.615 40.7883 156.391 40.836 156.186 40.9093C155.988 40.9826 155.823 41.0853 155.691 41.2173C155.566 41.3493 155.504 41.518 155.504 41.7233C155.504 42.024 155.603 42.2403 155.801 42.3723C156.006 42.5043 156.281 42.5703 156.626 42.5703C156.897 42.5703 157.128 42.5263 157.319 42.4383C157.509 42.343 157.663 42.222 157.781 42.0753C157.898 41.9286 157.982 41.7673 158.034 41.5913C158.085 41.408 158.111 41.2283 158.111 41.0523V40.7223H157.583ZM161.021 38.0163H162.011V38.8193H162.033C162.157 38.5406 162.374 38.317 162.682 38.1483C162.99 37.9723 163.345 37.8843 163.749 37.8843C163.998 37.8843 164.236 37.9246 164.464 38.0053C164.698 38.0786 164.9 38.196 165.069 38.3573C165.245 38.5186 165.384 38.7276 165.487 38.9843C165.589 39.2336 165.641 39.5306 165.641 39.8753V43.2303H164.651V40.1503C164.651 39.9083 164.618 39.703 164.552 39.5343C164.486 39.3583 164.398 39.219 164.288 39.1163C164.178 39.0063 164.049 38.9293 163.903 38.8853C163.763 38.834 163.617 38.8083 163.463 38.8083C163.257 38.8083 163.067 38.8413 162.891 38.9073C162.715 38.9733 162.561 39.0796 162.429 39.2263C162.297 39.3656 162.194 39.5453 162.121 39.7653C162.047 39.9853 162.011 40.2456 162.011 40.5463V43.2303H161.021V38.0163ZM167.056 38.0163H168.2L169.751 42.0863H169.773L171.247 38.0163H172.314L169.839 44.3523C169.751 44.5796 169.659 44.785 169.564 44.9683C169.469 45.159 169.355 45.3203 169.223 45.4523C169.091 45.5843 168.93 45.687 168.739 45.7603C168.556 45.8336 168.328 45.8703 168.057 45.8703C167.91 45.8703 167.76 45.8593 167.606 45.8373C167.459 45.8226 167.316 45.786 167.177 45.7273L167.298 44.8253C167.496 44.906 167.694 44.9463 167.892 44.9463C168.046 44.9463 168.174 44.9243 168.277 44.8803C168.387 44.8436 168.479 44.785 168.552 44.7043C168.633 44.631 168.699 44.543 168.75 44.4403C168.801 44.3376 168.853 44.2203 168.904 44.0883L169.223 43.2633L167.056 38.0163Z" fill="white"/>
</svg>
