<svg width="247" height="70" viewBox="0 0 247 70" fill="none" xmlns="http://www.w3.org/2000/svg">
<path d="M27.58 9.47998C24.0185 9.47998 20.4919 10.1815 17.2016 11.5444C13.9112 12.9073 10.9215 14.9049 8.40322 17.4232C5.8849 19.9416 3.88726 22.9313 2.52435 26.2216C1.16144 29.512 0.459961 33.0385 0.459961 36.6C0.459961 40.1614 1.16144 43.688 2.52435 46.9784C3.88726 50.2687 5.8849 53.2584 8.40322 55.7767C10.9215 58.295 13.9112 60.2927 17.2016 61.6556C20.4919 63.0185 24.0185 63.72 27.58 63.72C31.1414 63.72 34.668 63.0185 37.9583 61.6556C41.2487 60.2927 44.2384 58.295 46.7567 55.7767C49.275 53.2584 51.2727 50.2687 52.6356 46.9784C53.9985 43.688 54.7 40.1614 54.7 36.6C54.7 33.0385 53.9985 29.512 52.6356 26.2216C51.2727 22.9313 49.275 19.9416 46.7567 17.4232C44.2384 14.9049 41.2487 12.9073 37.9583 11.5444C34.668 10.1815 31.1414 9.47998 27.58 9.47998ZM27.58 60.64C24.0311 60.6432 20.5254 59.8623 17.3135 58.3532C14.1016 56.844 11.2627 54.6439 8.99996 51.91C9.8279 51.855 10.633 51.6154 11.3563 51.2088C12.0796 50.8021 12.7027 50.2388 13.18 49.56C13.7125 50.2846 14.4051 50.8765 15.204 51.2895C16.0028 51.7024 16.8862 51.9253 17.7853 51.9408C18.6845 51.9563 19.575 51.764 20.3876 51.3787C21.2002 50.9935 21.9128 50.4258 22.47 49.72C23.0261 50.4257 23.7378 50.9934 24.5496 51.3786C25.3614 51.7639 26.2512 51.9563 27.1496 51.9408C28.048 51.9253 28.9307 51.7023 29.7287 51.2893C30.5267 50.8764 31.2185 50.2845 31.75 49.56C32.2904 50.2978 32.9972 50.8978 33.8129 51.3114C34.6287 51.725 35.5304 51.9406 36.445 51.9406C37.3596 51.9406 38.2613 51.725 39.077 51.3114C39.8927 50.8978 40.5995 50.2978 41.14 49.56C41.6705 50.3093 42.3759 50.9177 43.195 51.3325C44.0141 51.7472 44.922 51.9558 45.84 51.94H46.16C43.892 54.6657 41.0514 56.8584 37.8402 58.362C34.6289 59.8657 31.1258 60.6434 27.58 60.64ZM39 27.45L20.7 44.67L13.24 37L4.53996 43.78C3.52435 40.4686 3.23415 36.9772 3.68911 33.5436C4.14407 30.1099 5.33351 26.8146 7.17646 23.882C9.01941 20.9493 11.4726 18.4482 14.369 16.5488C17.2655 14.6495 20.5371 13.3965 23.9613 12.8751C27.3855 12.3538 30.8819 12.5764 34.2123 13.5277C37.5428 14.4791 40.6291 16.1368 43.2613 18.3881C45.8935 20.6394 48.0097 23.4315 49.4659 26.5742C50.9221 29.7168 51.6841 33.1364 51.7 36.6C51.7 37.3 51.7 38 51.6 38.68L39 27.45Z" fill="#F3F4F8"/>
<path d="M27.5798 20.25C27.4203 21.0405 27.0255 21.7642 26.4473 22.3264C25.8691 22.8885 25.1345 23.2627 24.3398 23.4C25.1365 23.5286 25.8744 23.8987 26.4538 24.4603C27.0333 25.0219 27.4263 25.7478 27.5798 26.54C27.7307 25.7466 28.1229 25.0192 28.7028 24.4571C29.2827 23.8951 30.0221 23.5259 30.8198 23.4C30.0213 23.2721 29.2817 22.901 28.7018 22.3372C28.122 21.7735 27.7302 21.0446 27.5798 20.25Z" fill="#F3F4F8"/>
<path d="M233 32.2299L229.29 24.0499L225.58 32.2299H233ZM229.33 14.6499L241.74 40.9999H237L234.77 36.1299H223.91L221.67 40.9999H216.92L229.35 14.6599L229.33 14.6499Z" fill="#F3F4F8"/>
<path d="M112.47 16.1201H117V31.1201C117 35.5901 119.27 37.5301 122.69 37.5301C126.11 37.5301 128.34 35.5901 128.34 31.1201V16.1201H132.85V31.6201C132.85 38.3201 128.34 41.6201 122.69 41.6201C117.04 41.6201 112.49 38.3101 112.49 31.6201V16.1201H112.47Z" fill="#F3F4F8"/>
<path d="M93.61 15.6799C95.3391 15.6594 97.0548 15.984 98.6569 16.6348C100.259 17.2856 101.715 18.2494 102.94 19.4699L99.94 22.1999C98.2281 20.586 95.9523 19.7065 93.6 19.7499C91.2343 19.7499 88.9654 20.6897 87.2926 22.3625C85.6198 24.0353 84.68 26.3042 84.68 28.6699C84.68 31.0356 85.6198 33.3045 87.2926 34.9773C88.9654 36.6501 91.2343 37.5899 93.6 37.5899C95.7966 37.6263 97.9307 36.8581 99.6 35.4299V30.8099H92.6V26.8099H103.84V36.9399C102.588 38.4399 101.018 39.6419 99.243 40.4584C97.4681 41.2749 95.5335 41.6854 93.58 41.6599C86.19 41.6599 80.25 36.1799 80.25 28.6599C80.25 21.1399 86.19 15.6599 93.58 15.6599" fill="#F3F4F8"/>
<path d="M172.47 15.8701H163.47V41.0001H172.47C180.97 41.0001 185.62 35.8801 185.62 28.4901C185.62 21.1001 181 15.8701 172.47 15.8701ZM172.18 36.9201H168V20.0001H172.15C178.78 20.0001 181.15 23.6301 181.15 28.5301C181.15 33.4301 178.78 36.9201 172.18 36.9201Z" fill="#F3F4F8"/>
<path d="M193.89 15.8701H209.89V19.9501H198.4V25.9301H209.17V30.0001H198.4V36.9101H210.14V40.9901H193.89V15.8701Z" fill="#F3F4F8"/>
<path d="M153.85 19.7001V16.1201H150.42H145.91H142.48V19.7001H145.91V37.6401H142.48V41.2301H145.91H150.42H153.85V37.6401H150.42V19.7001H153.85Z" fill="#F3F4F8"/>
<path d="M83.71 50.5901H84.85L88.06 58.0001H86.54L85.85 56.3001H82.63L82 58.0001H80.52L83.71 50.5901ZM85.39 55.1901L84.24 52.1901L83.08 55.1901H85.39Z" fill="#F3F4F8"/>
<path d="M93.5202 51.7901H91.2402V50.5901H97.1202V51.7901H94.8402V58.0001H93.5202V51.7901Z" fill="#F3F4F8"/>
<path d="M99.25 53.6901C99.3691 53.4569 99.5487 53.26 99.77 53.1201C100.067 52.9299 100.418 52.8389 100.77 52.8601C101.066 52.8525 101.359 52.9105 101.63 53.0301C101.85 53.1338 102.044 53.284 102.2 53.4701C102.349 53.6555 102.458 53.8701 102.52 54.1001C102.581 54.3455 102.611 54.5973 102.61 54.8501V58.0001H101.35V55.4801C101.35 55.3401 101.35 55.1801 101.35 55.0101C101.334 54.8428 101.297 54.6782 101.24 54.5201C101.183 54.3732 101.086 54.2451 100.96 54.1501C100.81 54.0399 100.626 53.9835 100.44 53.9901C100.257 53.9866 100.076 54.0242 99.91 54.1001C99.7737 54.1657 99.654 54.2615 99.56 54.3801C99.4611 54.4999 99.3894 54.6398 99.35 54.7901C99.3098 54.9503 99.2897 55.1149 99.29 55.2801V58.0001H98V50.0901H99.26L99.25 53.6901Z" fill="#F3F4F8"/>
<path d="M105.06 56.0001C105.071 56.1686 105.116 56.3333 105.191 56.4844C105.267 56.6355 105.372 56.77 105.5 56.8801C105.758 57.0942 106.085 57.2079 106.42 57.2001C106.697 57.2081 106.97 57.1388 107.21 57.0001C107.423 56.8702 107.613 56.7044 107.77 56.5101L108.67 57.2001C108.407 57.5374 108.063 57.8024 107.67 57.9701C107.307 58.1256 106.915 58.2039 106.52 58.2001C106.156 58.2022 105.793 58.1413 105.45 58.0201C105.123 57.8936 104.826 57.7014 104.577 57.4555C104.327 57.2095 104.131 56.9149 104 56.5901C103.856 56.2485 103.784 55.8807 103.79 55.5101C103.785 55.1362 103.857 54.7653 104 54.4201C104.14 54.1043 104.34 53.8189 104.59 53.5801C104.841 53.3465 105.137 53.1662 105.46 53.0501C105.802 52.9208 106.165 52.8564 106.53 52.8601C106.872 52.8507 107.212 52.912 107.53 53.0401C107.814 53.1625 108.07 53.3431 108.28 53.5701C108.498 53.8205 108.661 54.1133 108.76 54.4301C108.882 54.8077 108.94 55.2033 108.93 55.6001V56.0001H105.06ZM107.64 55.0001C107.647 54.8393 107.621 54.6788 107.562 54.529C107.504 54.3791 107.414 54.2432 107.3 54.1301C107.172 54.0173 107.023 53.9309 106.862 53.876C106.701 53.8211 106.53 53.7987 106.36 53.8101C106.196 53.8007 106.032 53.8242 105.878 53.8791C105.723 53.9341 105.581 54.0194 105.46 54.1301C105.233 54.3673 105.092 54.6735 105.06 55.0001H107.64Z" fill="#F3F4F8"/>
<path d="M110.15 53.0001H111.41V53.7901C111.54 53.51 111.748 53.2737 112.01 53.1101C112.278 52.9482 112.587 52.865 112.9 52.8701H113.13L113.35 52.9201V54.1401L113.04 54.0701H112.74C112.496 54.0566 112.254 54.1121 112.04 54.2301C111.877 54.321 111.737 54.4475 111.63 54.6001C111.538 54.7254 111.473 54.8684 111.44 55.0201C111.409 55.124 111.392 55.2316 111.39 55.3401V58.0001H110.13L110.15 53.0001Z" fill="#F3F4F8"/>
<path d="M115.31 56.0001C115.319 56.1692 115.362 56.3346 115.438 56.486C115.514 56.6374 115.62 56.7716 115.75 56.8801C116.004 57.0936 116.328 57.2073 116.66 57.2001C116.937 57.2092 117.211 57.1399 117.45 57.0001C117.668 56.8731 117.862 56.707 118.02 56.5101L118.92 57.2001C118.659 57.5387 118.314 57.804 117.92 57.9701C117.56 58.1266 117.172 58.205 116.78 58.2001C116.415 58.2031 116.053 58.1421 115.71 58.0201C115.385 57.8982 115.086 57.7148 114.83 57.4801C114.581 57.2426 114.384 56.9567 114.25 56.6401C114.106 56.2986 114.034 55.9308 114.04 55.5601C114.035 55.1863 114.107 54.8154 114.25 54.4701C114.386 54.1549 114.584 53.8695 114.83 53.6301C115.086 53.3986 115.385 53.2186 115.71 53.1001C116.051 52.9699 116.414 52.9055 116.78 52.9101C117.122 52.9007 117.462 52.962 117.78 53.0901C118.062 53.2103 118.315 53.3912 118.52 53.6201C118.737 53.8725 118.904 54.1645 119.01 54.4801C119.127 54.8588 119.185 55.2536 119.18 55.6501V56.0001H115.31ZM117.89 55.0001C117.895 54.8387 117.867 54.678 117.807 54.5282C117.746 54.3784 117.656 54.2428 117.54 54.1301C117.415 54.0167 117.268 53.9298 117.108 53.8748C116.948 53.8198 116.778 53.7978 116.61 53.8101C116.446 53.7996 116.282 53.8225 116.127 53.8775C115.972 53.9326 115.83 54.0185 115.71 54.1301C115.483 54.3673 115.342 54.6736 115.31 55.0001H117.89Z" fill="#F3F4F8"/>
<path d="M123.09 54.38C122.979 54.2179 122.83 54.0863 122.655 53.9972C122.48 53.9081 122.286 53.8643 122.09 53.87C121.919 53.8703 121.751 53.9115 121.6 53.99C121.525 54.0282 121.462 54.0871 121.42 54.1598C121.377 54.2325 121.357 54.3158 121.36 54.4C121.354 54.4704 121.37 54.541 121.406 54.6019C121.441 54.6629 121.495 54.7111 121.56 54.74C121.719 54.8199 121.887 54.8803 122.06 54.92L122.72 55.07C122.947 55.1182 123.166 55.1991 123.37 55.31C123.573 55.418 123.747 55.5722 123.88 55.76C124.024 55.9938 124.094 56.2657 124.08 56.54C124.087 56.8071 124.017 57.0707 123.88 57.3C123.753 57.5021 123.582 57.6729 123.38 57.8C123.161 57.924 122.925 58.015 122.68 58.07C122.424 58.1263 122.162 58.1531 121.9 58.15C121.534 58.1552 121.169 58.1011 120.82 57.99C120.48 57.8637 120.177 57.6539 119.94 57.38L120.78 56.59C120.931 56.7638 121.106 56.9153 121.3 57.04C121.507 57.1583 121.742 57.2171 121.98 57.21H122.26C122.356 57.1899 122.447 57.1527 122.53 57.1C122.611 57.0537 122.682 56.9926 122.74 56.92C122.81 56.8176 122.836 56.692 122.814 56.5703C122.791 56.4486 122.721 56.3407 122.62 56.27C122.461 56.1786 122.289 56.1112 122.11 56.07L121.46 55.92C121.23 55.8801 121.008 55.8059 120.8 55.7C120.598 55.5998 120.423 55.4523 120.29 55.27C120.15 55.0461 120.083 54.7837 120.1 54.52C120.091 54.2658 120.149 54.0139 120.27 53.79C120.379 53.5847 120.537 53.4095 120.73 53.28C120.926 53.1419 121.146 53.0434 121.38 52.99C121.621 52.9217 121.87 52.8881 122.12 52.89C122.46 52.8921 122.798 52.9495 123.12 53.06C123.442 53.173 123.721 53.3825 123.92 53.66L123.09 54.38Z" fill="#F3F4F8"/>
<path d="M128.38 57.3399C128.214 57.6087 127.975 57.8239 127.69 57.9599C127.398 58.0908 127.08 58.1556 126.76 58.1499C126.53 58.1495 126.302 58.1192 126.08 58.0599C125.872 58.0014 125.675 57.9066 125.5 57.7799C125.327 57.6521 125.184 57.4883 125.08 57.2999C124.973 57.0964 124.918 56.8697 124.92 56.6399C124.914 56.398 124.966 56.1582 125.07 55.9399C125.166 55.7524 125.303 55.5885 125.47 55.4599C125.641 55.3253 125.834 55.2205 126.04 55.1499C126.26 55.071 126.488 55.0141 126.72 54.9799C126.951 54.9385 127.185 54.9117 127.42 54.8999H128.42V54.7599C128.428 54.6245 128.403 54.4892 128.347 54.3656C128.291 54.2419 128.207 54.1336 128.1 54.0499C127.855 53.8866 127.564 53.8061 127.27 53.8199C126.77 53.8137 126.287 53.9999 125.92 54.3399L125.26 53.6799C125.539 53.396 125.882 53.1833 126.26 53.0599C126.633 52.9322 127.025 52.868 127.42 52.8699C127.728 52.863 128.034 52.9035 128.33 52.9899C128.549 53.0585 128.755 53.1633 128.94 53.2999C129.092 53.4194 129.218 53.5692 129.31 53.7399C129.396 53.8968 129.46 54.0651 129.5 54.2399C129.537 54.3975 129.561 54.5582 129.57 54.7199C129.57 54.8799 129.57 55.0199 129.57 55.1399V57.9999H128.43L128.38 57.3399ZM128.31 55.7699H128.05H127.46C127.25 55.7821 127.043 55.8156 126.84 55.8699C126.664 55.9158 126.498 55.9938 126.35 56.0999C126.285 56.1506 126.233 56.216 126.198 56.2908C126.163 56.3655 126.147 56.4475 126.15 56.5299C126.148 56.6354 126.175 56.7394 126.23 56.8299C126.284 56.9111 126.356 56.9794 126.44 57.0299C126.523 57.09 126.619 57.1309 126.72 57.1499C126.826 57.1646 126.934 57.1646 127.04 57.1499C127.219 57.1698 127.4 57.1525 127.572 57.0991C127.744 57.0458 127.903 56.9575 128.04 56.8399C128.147 56.7269 128.229 56.5931 128.283 56.447C128.336 56.3008 128.359 56.1452 128.35 55.9899L128.31 55.7699Z" fill="#F3F4F8"/>
<path d="M134.1 50.5901H135.85L139.45 56.1201V50.5901H140.77V58.0001H139.09L135.41 52.2901V58.0001H134.1V50.5901Z" fill="#F3F4F8"/>
<path d="M143.4 56.0001C143.409 56.1692 143.453 56.3346 143.528 56.486C143.604 56.6374 143.71 56.7716 143.84 56.8801C144.095 57.0936 144.418 57.2073 144.75 57.2001C145.027 57.2092 145.301 57.1399 145.54 57.0001C145.759 56.8731 145.952 56.707 146.11 56.5101L147.01 57.2001C146.749 57.5387 146.404 57.804 146.01 57.9701C145.651 58.1266 145.262 58.205 144.87 58.2001C144.506 58.2031 144.144 58.1421 143.8 58.0201C143.475 57.8982 143.176 57.7148 142.92 57.4801C142.672 57.2426 142.474 56.9567 142.34 56.6401C142.196 56.2986 142.124 55.9308 142.13 55.5601C142.125 55.1863 142.197 54.8154 142.34 54.4701C142.477 54.1549 142.674 53.8695 142.92 53.6301C143.177 53.3986 143.476 53.2186 143.8 53.1001C144.142 52.9699 144.505 52.9055 144.87 52.9101C145.212 52.9007 145.553 52.962 145.87 53.0901C146.153 53.2103 146.405 53.3912 146.61 53.6201C146.828 53.8725 146.994 54.1645 147.1 54.4801C147.218 54.8588 147.275 55.2536 147.27 55.6501V56.0001H143.4ZM146 55.0001C146.006 54.8387 145.977 54.678 145.917 54.5282C145.857 54.3784 145.766 54.2428 145.65 54.1301C145.525 54.0167 145.378 53.9298 145.218 53.8748C145.058 53.8198 144.889 53.7978 144.72 53.8101C144.556 53.7996 144.392 53.8225 144.237 53.8775C144.083 53.9326 143.941 54.0185 143.82 54.1301C143.594 54.3673 143.453 54.6736 143.42 55.0001H146Z" fill="#F3F4F8"/>
<path d="M148.29 51.2699C148.289 51.1713 148.308 51.0735 148.346 50.9824C148.384 50.8913 148.44 50.8088 148.51 50.7399C148.585 50.6663 148.674 50.6088 148.772 50.5709C148.871 50.5331 148.975 50.5157 149.08 50.5199C149.296 50.5123 149.507 50.5874 149.67 50.7299C149.745 50.7979 149.805 50.8814 149.845 50.9746C149.884 51.0679 149.903 51.1686 149.9 51.2699C149.905 51.3714 149.886 51.4725 149.846 51.566C149.807 51.6594 149.746 51.7428 149.67 51.8099C149.591 51.8836 149.498 51.941 149.397 51.9788C149.296 52.0165 149.188 52.0339 149.08 52.0299C148.975 52.0322 148.87 52.0129 148.772 51.9734C148.674 51.9339 148.585 51.8748 148.51 51.7999C148.439 51.7317 148.382 51.6494 148.344 51.5581C148.306 51.4669 148.288 51.3687 148.29 51.2699ZM148.47 52.9899H149.73V57.9899H148.47V52.9899Z" fill="#F3F4F8"/>
<path d="M151.26 50.0901H152.52V58.0001H151.26V50.0901Z" fill="#F3F4F8"/>
<path d="M157.2 50.5901H160.13C160.613 50.5908 161.092 50.6684 161.55 50.8201C161.991 50.9664 162.398 51.1974 162.75 51.5001C163.111 51.8252 163.398 52.2243 163.59 52.6701C163.818 53.186 163.927 53.7464 163.91 54.3101C163.925 54.8811 163.802 55.4473 163.55 55.9601C163.324 56.4102 163.004 56.806 162.61 57.1201C162.234 57.4257 161.803 57.6565 161.34 57.8001C160.906 57.9352 160.454 58.0027 160 58.0001H157.2V50.5901ZM159.51 56.8301C159.904 56.8304 160.297 56.7834 160.68 56.6901C161.039 56.6098 161.379 56.4603 161.68 56.2501C161.956 56.0454 162.179 55.778 162.33 55.4701C162.492 55.1053 162.571 54.709 162.56 54.3101C162.57 53.9132 162.498 53.5185 162.35 53.1501C162.224 52.8464 162.025 52.5784 161.77 52.3701C161.511 52.163 161.211 52.013 160.89 51.9301C160.524 51.8355 160.148 51.7885 159.77 51.7901H158.56V56.7901L159.51 56.8301Z" fill="#F3F4F8"/>
<path d="M166.09 56.0001C166.101 56.1687 166.146 56.3333 166.221 56.4844C166.297 56.6355 166.402 56.77 166.53 56.8801C166.788 57.0942 167.115 57.2079 167.45 57.2001C167.727 57.2081 168 57.1389 168.24 57.0001C168.454 56.8702 168.643 56.7045 168.8 56.5101L169.7 57.2001C169.437 57.5374 169.093 57.8024 168.7 57.9701C168.337 58.1257 167.945 58.204 167.55 58.2001C167.191 58.1935 166.836 58.1259 166.5 58.0001C166.177 57.8805 165.881 57.6968 165.63 57.4601C165.378 57.2253 165.18 56.9387 165.05 56.6201C164.898 56.2808 164.823 55.9119 164.83 55.5401C164.824 55.1651 164.899 54.7932 165.05 54.4501C165.183 54.1329 165.381 53.8468 165.63 53.6101C165.881 53.3765 166.177 53.1962 166.5 53.0801C166.842 52.9508 167.205 52.8864 167.57 52.8901C167.912 52.8807 168.253 52.942 168.57 53.0701C168.854 53.1926 169.11 53.3731 169.32 53.6001C169.538 53.8505 169.701 54.1433 169.8 54.4601C169.926 54.8371 169.987 55.2327 169.98 55.6301V56.0001H166.09ZM168.68 55.0001C168.683 54.839 168.654 54.679 168.594 54.5295C168.533 54.38 168.444 54.2442 168.33 54.1301C168.202 54.0173 168.053 53.931 167.892 53.876C167.731 53.8211 167.56 53.7987 167.39 53.8101C167.228 53.8004 167.065 53.8237 166.912 53.8787C166.759 53.9337 166.619 54.0192 166.5 54.1301C166.27 54.3664 166.126 54.6725 166.09 55.0001H168.68Z" fill="#F3F4F8"/>
<path d="M173.88 54.3799C173.77 54.2179 173.62 54.0863 173.445 53.9972C173.271 53.908 173.076 53.8643 172.88 53.8699C172.706 53.8702 172.535 53.9113 172.38 53.9899C172.305 54.0281 172.243 54.0871 172.2 54.1598C172.158 54.2324 172.137 54.3158 172.14 54.3999C172.137 54.4699 172.154 54.5394 172.189 54.5998C172.225 54.6602 172.277 54.7089 172.34 54.7399C172.502 54.8214 172.673 54.8818 172.85 54.9199L173.5 55.0699C173.731 55.1166 173.953 55.1975 174.16 55.3099C174.36 55.4183 174.531 55.5726 174.66 55.7599C174.808 55.9919 174.878 56.2652 174.86 56.5399C174.87 56.8061 174.804 57.0696 174.67 57.2999C174.542 57.5047 174.368 57.6761 174.16 57.7999C173.945 57.924 173.712 58.015 173.47 58.0699C173.214 58.1262 172.952 58.1531 172.69 58.1499C172.324 58.1551 171.959 58.1011 171.61 57.9899C171.267 57.864 170.961 57.6543 170.72 57.3799L171.56 56.5899C171.716 56.7594 171.89 56.9104 172.08 57.0399C172.288 57.1559 172.522 57.2146 172.76 57.2099H173.05C173.145 57.1866 173.236 57.1496 173.32 57.0999C173.398 57.0534 173.466 56.9923 173.52 56.9199C173.578 56.8461 173.607 56.7535 173.6 56.6599C173.605 56.583 173.589 56.5061 173.554 56.4375C173.518 56.3689 173.465 56.311 173.4 56.2699C173.245 56.1786 173.076 56.1111 172.9 56.0699L172.24 55.9199C172.014 55.8785 171.795 55.8044 171.59 55.6999C171.365 55.5999 171.176 55.433 171.049 55.2219C170.922 55.0108 170.863 54.7657 170.88 54.5199C170.876 54.2663 170.934 54.0155 171.05 53.7899C171.162 53.5869 171.32 53.4123 171.51 53.2799C171.708 53.1452 171.928 53.047 172.16 52.9899C172.404 52.9223 172.657 52.8887 172.91 52.8899C173.251 52.892 173.588 52.9494 173.91 53.0599C174.231 53.1752 174.51 53.3842 174.71 53.6599L173.88 54.3799Z" fill="#F3F4F8"/>
<path d="M175.82 51.2699C175.819 51.1713 175.838 51.0735 175.876 50.9824C175.914 50.8913 175.969 50.8088 176.04 50.7399C176.117 50.666 176.208 50.6085 176.308 50.5706C176.407 50.5328 176.513 50.5156 176.62 50.5199C176.833 50.5139 177.04 50.5889 177.2 50.73C177.276 50.7975 177.337 50.8806 177.379 50.9738C177.42 51.067 177.441 51.168 177.44 51.2699C177.443 51.3722 177.423 51.4739 177.382 51.5674C177.34 51.6609 177.278 51.7438 177.2 51.8099C177.123 51.8829 177.031 51.9399 176.932 51.9777C176.832 52.0154 176.726 52.0332 176.62 52.03C176.513 52.0324 176.406 52.0133 176.307 51.9738C176.207 51.9343 176.116 51.8752 176.04 51.8C175.968 51.7318 175.912 51.6494 175.874 51.5582C175.836 51.4669 175.818 51.3687 175.82 51.2699ZM176 53H177.26V58H176V53Z" fill="#F3F4F8"/>
<path d="M183.92 53V57.59C183.926 58.0056 183.872 58.4199 183.76 58.82C183.654 59.1662 183.477 59.4863 183.24 59.76C182.991 60.0203 182.687 60.2218 182.35 60.35C181.943 60.4984 181.512 60.5696 181.08 60.56C180.627 60.5626 180.176 60.502 179.74 60.38C179.309 60.2529 178.913 60.0308 178.58 59.73L179.33 58.73C179.567 58.9457 179.833 59.1274 180.12 59.27C180.42 59.3992 180.743 59.464 181.07 59.46C181.329 59.4638 181.587 59.4197 181.83 59.33C182.022 59.2603 182.191 59.1393 182.32 58.98C182.447 58.8248 182.539 58.644 182.59 58.45C182.641 58.2237 182.664 57.992 182.66 57.76V57.4C182.475 57.6466 182.226 57.837 181.94 57.95C181.644 58.0692 181.328 58.1303 181.01 58.13C180.667 58.1285 180.327 58.0606 180.01 57.93C179.715 57.7973 179.447 57.6108 179.22 57.38C179 57.1414 178.826 56.8631 178.71 56.56C178.591 56.2401 178.53 55.9014 178.53 55.56C178.533 55.2198 178.59 54.8822 178.7 54.56C178.807 54.2485 178.977 53.9624 179.2 53.72C179.415 53.4758 179.682 53.2813 179.98 53.15C180.297 53.0183 180.637 52.9503 180.98 52.95C181.324 52.9471 181.665 53.0188 181.98 53.16C182.29 53.3016 182.548 53.5357 182.72 53.83V53H183.92ZM181.23 54C181.025 53.9989 180.821 54.0362 180.63 54.11C180.454 54.1812 180.294 54.2866 180.16 54.42C180.028 54.5563 179.923 54.7157 179.85 54.89C179.776 55.0884 179.739 55.2984 179.74 55.51C179.74 55.7021 179.777 55.8924 179.85 56.07C179.926 56.2431 180.031 56.402 180.16 56.54C180.3 56.6715 180.462 56.7765 180.64 56.85C180.826 56.932 181.027 56.973 181.23 56.97C181.442 56.9727 181.653 56.9319 181.85 56.85C182.025 56.7789 182.185 56.6735 182.32 56.54C182.453 56.4075 182.556 56.247 182.62 56.07C182.693 55.8853 182.73 55.6886 182.73 55.49C182.744 55.0913 182.601 54.7031 182.33 54.41C182.184 54.2703 182.011 54.1618 181.822 54.0913C181.633 54.0208 181.431 53.9897 181.23 54Z" fill="#F3F4F8"/>
<path d="M185.43 53.0001H186.63V53.8101C186.752 53.5482 186.938 53.3213 187.17 53.1501C187.463 52.9482 187.815 52.8496 188.17 52.8701C188.466 52.8624 188.76 52.9205 189.03 53.0401C189.25 53.1438 189.444 53.2939 189.6 53.4801C189.75 53.6655 189.859 53.8801 189.92 54.1101C189.981 54.3554 190.011 54.6073 190.01 54.8601V58.0001H188.75V55.4801C188.75 55.3401 188.75 55.1801 188.75 55.0101C188.734 54.8428 188.697 54.6781 188.64 54.5201C188.583 54.3732 188.486 54.2451 188.36 54.1501C188.213 54.0413 188.033 53.9849 187.85 53.9901C187.664 53.9858 187.48 54.0234 187.31 54.1001C187.174 54.1657 187.054 54.2615 186.96 54.3801C186.861 54.4999 186.79 54.6398 186.75 54.7901C186.71 54.9503 186.69 55.1149 186.69 55.2801V58.0001H185.43V53.0001Z" fill="#F3F4F8"/>
<path d="M199.79 52.34C199.578 52.0829 199.307 51.8806 199 51.75C198.752 51.6523 198.487 51.6014 198.22 51.6C197.877 51.6021 197.538 51.67 197.22 51.8C196.917 51.9336 196.645 52.1276 196.42 52.37C196.189 52.6135 196.012 52.9032 195.9 53.22C195.775 53.5387 195.711 53.8778 195.71 54.22C195.704 54.5954 195.769 54.9685 195.9 55.32C196.009 55.644 196.186 55.9407 196.42 56.19C196.642 56.4386 196.915 56.6364 197.22 56.77C197.536 56.9079 197.876 56.9794 198.22 56.98C198.526 56.9808 198.828 56.9088 199.1 56.77C199.409 56.598 199.678 56.3629 199.89 56.08L200.99 56.85C200.677 57.2876 200.252 57.633 199.76 57.85C199.271 58.0623 198.743 58.1713 198.21 58.17C197.67 58.1774 197.134 58.0824 196.63 57.89C196.168 57.7121 195.747 57.4435 195.39 57.1C195.041 56.7519 194.765 56.337 194.58 55.88C194.375 55.3753 194.273 54.8347 194.28 54.29C194.273 53.7356 194.375 53.1853 194.58 52.67C194.755 52.2152 195.023 51.8022 195.368 51.4577C195.712 51.1132 196.125 50.8448 196.58 50.67C197.084 50.4777 197.62 50.3827 198.16 50.39C198.643 50.385 199.123 50.4768 199.57 50.66C200.036 50.8652 200.447 51.1769 200.77 51.57L199.79 52.34Z" fill="#F3F4F8"/>
<path d="M201.58 55.5101C201.578 55.1356 201.653 54.7647 201.8 54.4201C201.937 54.1049 202.134 53.8195 202.38 53.5801C202.637 53.3485 202.935 53.1686 203.26 53.0501C203.602 52.9199 203.965 52.8554 204.33 52.8601C204.695 52.8578 205.058 52.9222 205.4 53.0501C205.722 53.1686 206.017 53.3486 206.27 53.5801C206.52 53.8169 206.717 54.1029 206.85 54.4201C207.002 54.7632 207.077 55.1351 207.07 55.5101C207.078 55.882 207.003 56.2508 206.85 56.5901C206.72 56.9087 206.522 57.1953 206.27 57.4301C206.018 57.6647 205.722 57.8481 205.4 57.9701C205.056 58.0904 204.694 58.1513 204.33 58.1501C203.966 58.1531 203.604 58.0921 203.26 57.9701C202.935 57.8482 202.636 57.6648 202.38 57.4301C202.132 57.1926 201.934 56.9067 201.8 56.5901C201.652 56.2493 201.578 55.8815 201.58 55.5101ZM202.85 55.5101C202.848 55.7014 202.882 55.8913 202.95 56.0701C203.009 56.2531 203.108 56.4206 203.24 56.5601C203.371 56.703 203.531 56.8156 203.71 56.8901C203.904 56.9809 204.116 57.0254 204.33 57.0201C204.544 57.0243 204.756 56.9799 204.95 56.8901C205.124 56.8128 205.281 56.7005 205.41 56.5601C205.542 56.4186 205.644 56.2519 205.71 56.0701C205.843 55.7052 205.843 55.305 205.71 54.9401C205.642 54.7625 205.54 54.5996 205.41 54.4601C205.282 54.3165 205.125 54.2008 204.95 54.1201C204.755 54.0348 204.544 53.9906 204.33 53.9901C204.117 53.9894 203.905 54.0337 203.71 54.1201C203.531 54.198 203.37 54.314 203.24 54.4601C203.11 54.5975 203.011 54.7612 202.95 54.9401C202.882 55.1222 202.848 55.3155 202.85 55.5101Z" fill="#F3F4F8"/>
<path d="M208.27 53H209.46V53.78C209.591 53.5324 209.775 53.3171 210 53.15C210.294 52.9508 210.645 52.8525 211 52.87C211.329 52.8332 211.66 52.9052 211.944 53.0751C212.227 53.2449 212.447 53.503 212.57 53.81C212.727 53.5118 212.966 53.2653 213.26 53.1C213.568 52.9376 213.912 52.8584 214.26 52.87C214.552 52.8638 214.843 52.9218 215.11 53.04C215.336 53.1416 215.533 53.3001 215.68 53.5C215.823 53.71 215.928 53.9436 215.99 54.19C216.052 54.4657 216.082 54.7475 216.08 55.03V58.03H214.82V55.17C214.835 55.0203 214.835 54.8696 214.82 54.72C214.793 54.5886 214.742 54.4632 214.67 54.35C214.603 54.239 214.506 54.149 214.39 54.09C214.247 54.0205 214.089 53.9862 213.93 53.99C213.757 53.9852 213.585 54.023 213.43 54.1C213.297 54.1753 213.181 54.2774 213.09 54.4C212.999 54.5257 212.934 54.6686 212.9 54.82C212.861 54.9769 212.841 55.1381 212.84 55.3V58H211.58V55C211.596 54.7349 211.526 54.4718 211.38 54.25C211.302 54.1526 211.2 54.0761 211.085 54.0272C210.97 53.9784 210.845 53.9587 210.72 53.97C210.537 53.9654 210.356 54.0031 210.19 54.08C210.052 54.1469 209.929 54.2423 209.83 54.36C209.738 54.4826 209.67 54.6218 209.63 54.77C209.59 54.9302 209.57 55.0948 209.57 55.26V58H208.31L208.27 53Z" fill="#F3F4F8"/>
<path d="M217.55 53H218.74V53.75C218.905 53.4541 219.161 53.2192 219.47 53.08C219.784 52.9387 220.125 52.8671 220.47 52.87C220.813 52.872 221.153 52.9399 221.47 53.07C221.77 53.2037 222.039 53.3977 222.26 53.64C222.477 53.8853 222.643 54.1707 222.75 54.48C222.86 54.8021 222.917 55.1397 222.92 55.48C222.917 55.8211 222.856 56.1593 222.74 56.48C222.626 56.788 222.456 57.0726 222.24 57.32C222.026 57.5587 221.763 57.7496 221.47 57.88C221.156 58.0203 220.814 58.0886 220.47 58.08C220.258 58.0848 220.046 58.0613 219.84 58.01C219.673 57.9667 219.512 57.9029 219.36 57.82C219.232 57.7532 219.111 57.6727 219 57.58C218.912 57.5012 218.831 57.4141 218.76 57.32V60.32H217.5L217.55 53ZM221.73 55.52C221.728 55.3258 221.694 55.1333 221.63 54.95C221.561 54.7724 221.46 54.6095 221.33 54.47C221.202 54.3264 221.045 54.2107 220.87 54.13C220.674 54.0447 220.463 54.0004 220.25 54C220.036 53.9993 219.825 54.0436 219.63 54.13C219.451 54.2079 219.29 54.3239 219.16 54.47C219.03 54.6073 218.931 54.771 218.87 54.95C218.801 55.1321 218.767 55.3254 218.77 55.52C218.768 55.7112 218.802 55.9011 218.87 56.08C218.929 56.263 219.028 56.4305 219.16 56.57C219.291 56.7129 219.451 56.8255 219.63 56.9C219.824 56.9908 220.036 57.0353 220.25 57.03C220.464 57.0342 220.676 56.9898 220.87 56.9C221.044 56.8227 221.201 56.7103 221.33 56.57C221.462 56.4284 221.564 56.2618 221.63 56.08C221.694 55.8967 221.728 55.7041 221.73 55.51V55.52Z" fill="#F3F4F8"/>
<path d="M227.34 57.3401C227.174 57.6089 226.935 57.8241 226.65 57.9601C226.358 58.091 226.04 58.1558 225.72 58.1501C225.493 58.1503 225.268 58.12 225.05 58.0601C224.838 58.0037 224.638 57.9088 224.46 57.7801C224.287 57.6523 224.144 57.4885 224.04 57.3001C223.933 57.0966 223.878 56.8699 223.88 56.6401C223.874 56.3982 223.926 56.1584 224.03 55.9401C224.126 55.7526 224.263 55.5887 224.43 55.4601C224.601 55.3255 224.794 55.2207 225 55.1501C225.22 55.0712 225.448 55.0143 225.68 54.9801C225.911 54.9387 226.145 54.9119 226.38 54.9001H227.38V54.7601C227.39 54.6111 227.36 54.4621 227.293 54.3285C227.226 54.1949 227.125 54.0816 227 54.0001C226.755 53.8368 226.464 53.7562 226.17 53.7701C225.67 53.7639 225.186 53.9501 224.82 54.2901L224.16 53.6301C224.439 53.3462 224.782 53.1336 225.16 53.0101C225.533 52.8824 225.925 52.8182 226.32 52.8201C226.628 52.8132 226.934 52.8537 227.23 52.9401C227.449 53.0087 227.655 53.1135 227.84 53.2501C227.992 53.3696 228.118 53.5194 228.21 53.6901C228.296 53.847 228.36 54.0153 228.4 54.1901C228.437 54.3478 228.461 54.5084 228.47 54.6701C228.47 54.8301 228.47 54.9701 228.47 55.0901V58.0001H227.33L227.34 57.3401ZM227.27 55.7701H227H226.41C226.2 55.7823 225.993 55.8158 225.79 55.8701C225.614 55.916 225.448 55.994 225.3 56.1001C225.235 56.1508 225.183 56.2162 225.148 56.291C225.113 56.3657 225.097 56.4477 225.1 56.5301C225.098 56.6356 225.125 56.7396 225.18 56.8301C225.234 56.9113 225.306 56.9796 225.39 57.0301C225.473 57.0902 225.569 57.1311 225.67 57.1501C225.776 57.1648 225.884 57.1648 225.99 57.1501C226.169 57.17 226.35 57.1527 226.522 57.0993C226.694 57.046 226.853 56.9577 226.99 56.8401C227.097 56.7271 227.179 56.5933 227.233 56.4472C227.286 56.301 227.309 56.1454 227.3 55.9901L227.27 55.7701Z" fill="#F3F4F8"/>
<path d="M229.93 53.0001H231.13V53.8101C231.252 53.5456 231.442 53.318 231.68 53.1501C231.971 52.9446 232.325 52.8457 232.68 52.8701C232.976 52.8625 233.27 52.9205 233.54 53.0401C233.762 53.1409 233.957 53.2915 234.11 53.4801C234.26 53.6655 234.369 53.8801 234.43 54.1101C234.491 54.3555 234.521 54.6074 234.52 54.8601V58.0001H233.26V55.4801C233.26 55.3401 233.26 55.1801 233.26 55.0101C233.249 54.8421 233.211 54.6769 233.15 54.5201C233.093 54.3732 232.996 54.2451 232.87 54.1501C232.724 54.0399 232.543 53.9834 232.36 53.9901C232.177 53.9856 231.996 54.0232 231.83 54.1001C231.689 54.1617 231.565 54.258 231.47 54.3801C231.375 54.5023 231.304 54.6414 231.26 54.7901C231.22 54.9503 231.2 55.1149 231.2 55.2801V58.0001H229.94L229.93 53.0001Z" fill="#F3F4F8"/>
<path d="M235.16 53H236.55L238 56.48L239.24 53H240.55L238.17 59.12C238.09 59.339 237.99 59.5499 237.87 59.75C237.765 59.9171 237.637 60.0686 237.49 60.2C237.336 60.3231 237.159 60.4148 236.97 60.47C236.736 60.5344 236.493 60.5647 236.25 60.56C235.912 60.5653 235.575 60.5215 235.25 60.43L235.41 59.3L235.72 59.39C235.83 59.3998 235.94 59.3998 236.05 59.39C236.18 59.4072 236.311 59.4072 236.44 59.39C236.536 59.3694 236.626 59.3247 236.7 59.26C236.781 59.1999 236.846 59.121 236.89 59.03C236.94 58.94 236.99 58.82 237.05 58.69L237.29 58.09L235.16 53Z" fill="#F3F4F8"/>
</svg>
