<svg width="1280" height="640" viewBox="0 0 1280 640" fill="none" xmlns="http://www.w3.org/2000/svg">
<path d="M353.155 193.073H304.19V242.099H353.155V193.073Z" fill="white"/>
<path d="M351.935 448.498V271.759H305.41V448.323H351.935V448.498ZM660.016 450.243V406.974C653.22 406.974 647.47 406.625 643.288 405.927C638.409 405.229 634.75 403.484 632.31 401.042C629.87 398.599 628.302 395.11 627.431 390.399C626.734 386.037 626.385 380.28 626.385 373.301V311.713H660.016V271.759H626.385V203.017H579.86V373.824C579.86 388.305 581.079 400.518 583.519 410.289C585.958 419.885 590.141 427.736 595.891 433.668C601.641 439.6 609.309 443.787 618.544 446.404C627.954 449.021 639.803 450.243 653.918 450.243H660.016ZM926.276 448.498V189.409H879.751V448.498H926.276ZM535.076 289.206C522.182 275.248 504.059 268.27 481.058 268.27C469.905 268.27 459.624 270.538 450.563 275.074C441.328 279.61 433.661 285.891 427.387 293.917L424.948 297.232V294.266V271.759H379.119V448.323H425.296V354.284V360.739C425.296 359.692 425.296 358.645 425.296 357.599C425.819 341.024 429.827 328.811 437.494 320.96C445.684 312.585 455.617 308.398 466.943 308.398C480.361 308.398 490.642 312.585 497.437 320.611C504.059 328.636 507.544 339.977 507.544 354.458V354.982V448.323H554.419V348.177C554.593 323.053 547.971 303.164 535.076 289.206ZM855.704 359.867C855.704 347.13 853.438 335.266 849.082 324.1C844.551 313.109 838.278 303.338 830.437 294.964C822.421 286.589 812.837 280.134 801.685 275.423C790.533 270.712 778.161 268.444 764.743 268.444C752.022 268.444 739.999 270.887 728.847 275.597C717.694 280.482 707.936 286.938 699.746 295.138C691.556 303.338 684.935 313.109 680.23 324.275C675.351 335.441 673.085 347.479 673.085 360.216C673.085 372.952 675.351 384.99 679.881 396.157C684.412 407.323 690.859 417.093 698.875 425.293C706.891 433.493 716.823 440.123 728.324 444.834C739.825 449.719 752.545 452.162 766.137 452.162C805.518 452.162 829.914 434.191 844.551 417.442L811.095 391.969C804.124 400.344 787.396 411.685 766.486 411.685C753.416 411.685 742.613 408.719 734.423 402.612C726.233 396.68 720.657 388.305 717.694 378.012L717.172 376.441H855.704V359.867ZM717.52 343.641C717.52 330.73 732.332 308.223 764.22 308.049C796.109 308.049 811.095 330.556 811.095 343.466L717.52 343.641ZM979.25 426.166C978.378 424.072 977.159 422.327 975.59 420.757C974.022 419.187 972.279 417.965 970.188 417.093C968.097 416.221 965.832 415.697 963.567 415.697C961.127 415.697 959.036 416.221 956.945 417.093C954.854 417.965 953.112 419.187 951.543 420.757C949.975 422.327 948.755 424.072 947.884 426.166C947.013 428.259 946.49 430.527 946.49 432.795C946.49 435.238 947.013 437.332 947.884 439.425C948.755 441.519 949.975 443.264 951.543 444.834C953.112 446.404 954.854 447.626 956.945 448.498C959.036 449.37 961.301 449.894 963.567 449.894C966.006 449.894 968.097 449.37 970.188 448.498C972.279 447.626 974.022 446.404 975.59 444.834C977.159 443.264 978.378 441.519 979.25 439.425C980.121 437.332 980.644 435.064 980.644 432.795C980.644 430.527 980.121 428.259 979.25 426.166ZM976.462 438.379C975.764 440.123 974.719 441.693 973.499 442.915C972.279 444.136 970.711 445.183 968.969 445.881C967.226 446.579 965.484 446.928 963.392 446.928C961.476 446.928 959.559 446.579 957.816 445.881C956.074 445.183 954.506 444.136 953.286 442.915C952.066 441.693 951.02 440.123 950.323 438.379C949.626 436.634 949.278 434.889 949.278 432.795C949.278 430.876 949.626 428.957 950.323 427.212C951.02 425.468 952.066 423.897 953.286 422.676C954.506 421.455 956.074 420.408 957.816 419.71C959.559 419.012 961.301 418.663 963.392 418.663C965.309 418.663 967.226 419.012 968.969 419.71C970.711 420.408 972.279 421.455 973.499 422.676C974.719 423.897 975.764 425.468 976.462 427.212C977.159 428.957 977.507 430.702 977.507 432.795C977.507 434.889 977.159 436.634 976.462 438.379ZM966.703 434.366C968.097 434.191 969.143 433.668 970.014 432.795C970.885 431.923 971.408 430.702 971.408 428.957C971.408 427.038 970.885 425.642 969.666 424.595C968.62 423.549 966.703 423.025 964.438 423.025H956.771V442.74H960.43V434.715H963.044L967.923 442.74H971.757L966.703 434.366ZM964.786 431.4C964.264 431.4 963.741 431.4 963.044 431.4H960.43V425.817H963.044C963.567 425.817 964.089 425.817 964.786 425.817C965.309 425.817 965.832 425.991 966.355 426.166C966.878 426.34 967.226 426.689 967.4 427.038C967.749 427.387 967.749 427.91 967.749 428.608C967.749 429.306 967.575 429.829 967.4 430.178C967.052 430.527 966.703 430.876 966.355 431.051C965.832 431.225 965.309 431.4 964.786 431.4Z" fill="white"/>
</svg>
