<svg width="1280" height="640" viewBox="0 0 1280 640" fill="none" xmlns="http://www.w3.org/2000/svg">
<g clip-path="url(#clip0_9_760)">
<path d="M719.521 327.653C719.521 304.149 709.446 283.382 675.371 283.382C657.888 283.382 644.001 288.358 636.471 292.713L641.99 311.57C648.922 307.227 659.984 303.65 670.424 303.65C687.675 303.626 690.501 313.37 690.501 319.636V321.144C652.845 321.083 629.04 334.076 629.04 360.536C629.04 376.704 641.125 391.862 662.25 391.862C675.139 391.862 686.03 386.668 692.536 378.468H693.169C693.169 378.468 697.458 396.388 721.178 389.539C719.972 382.032 719.521 374.125 719.521 364.514V327.653ZM691.428 352.47C691.428 354.368 691.27 356.339 690.709 358.03C688.54 365.268 681.06 371.327 671.752 371.327C663.895 371.327 657.73 366.886 657.73 357.58C657.73 343.346 673.47 339.429 691.428 339.526" fill="white"/>
<path d="M143 251.403C143 251.403 167.597 351.89 171.507 368.167C176.112 387.194 184.36 394.226 208.165 389.542L223.54 327.23C227.426 311.792 230.069 300.722 232.579 284.992H233.005C234.748 300.88 237.257 311.792 240.437 327.279C240.437 327.279 246.711 355.588 249.964 370.418C253.131 385.248 262.049 394.603 285.403 389.542L322 251.403H292.457L279.897 311.16C276.571 328.471 273.549 342.109 271.198 357.973H270.772C268.652 342.279 265.96 329.201 262.5 312.243L249.489 251.403H218.667L204.778 310.685C200.819 328.788 197.115 343.301 194.788 358.666H194.386C191.987 344.25 188.734 325.892 185.286 308.471C185.286 308.471 177.038 266.026 174.127 251.403" fill="white"/>
<path d="M404.332 327.653C404.332 304.149 394.232 283.382 360.157 283.382C342.724 283.382 328.811 288.358 321.282 292.713L326.801 311.57C333.709 307.227 344.759 303.65 355.235 303.65C372.486 303.626 375.312 313.37 375.312 319.636V321.144C337.656 321.083 313.827 334.076 313.827 360.536C313.827 376.704 325.961 391.862 346.988 391.862C359.998 391.862 370.793 386.668 377.298 378.468H377.956C377.956 378.468 382.268 396.388 405.964 389.539C404.746 382.032 404.332 374.125 404.332 364.514V327.653ZM376.214 352.47C376.214 354.368 376.056 356.339 375.52 358.03C373.326 365.268 365.847 371.327 356.515 371.327C348.705 371.327 342.517 366.886 342.517 357.58C342.517 343.346 358.256 339.429 376.214 339.526" fill="white"/>
<path d="M419.662 251.403V389.494H447.779V360.211V251.403H419.662Z" fill="white"/>
<path d="M805.817 251.403V353.289C805.817 367.352 808.461 377.158 814.15 383.168C819.145 388.435 827.319 391.866 837.053 391.866C845.411 391.866 853.585 390.26 857.447 388.861L857.106 366.927C854.219 367.596 850.917 368.167 846.385 368.167C836.786 368.167 833.618 362.097 833.618 349.469V310.466H858.105V284.079H833.618V251.403" fill="white"/>
<path d="M733.143 285.779V389.539H762.21V336.4C762.21 333.541 762.392 331.071 762.844 328.784C765.012 317.58 773.528 310.487 785.796 310.487C789.219 310.487 791.546 310.864 794.129 311.266V284.064C791.96 283.674 790.486 283.468 787.818 283.468C776.939 283.468 764.61 290.365 759.408 305.39H758.69V285.779" fill="white"/>
<path d="M464.107 285.779V389.539H492.432V328.638C492.432 325.779 492.748 322.859 493.76 320.22C496.062 314.052 501.776 306.91 510.949 306.91C522.352 306.91 527.737 316.521 527.737 330.39V389.539H555.989V327.908C555.989 325.22 556.367 321.923 557.158 319.538C559.424 312.543 565.613 306.91 574.166 306.91C585.69 306.91 591.27 316.314 591.27 332.665V389.539H619.497V328.358C619.497 296.217 603.123 283.468 584.533 283.468C576.359 283.468 569.853 285.475 564.005 289.076C559.059 292.105 554.722 296.375 550.835 301.959H550.409C545.938 290.791 535.437 283.468 521.719 283.468C504.127 283.468 496.135 292.336 491.433 299.83H491.006V285.779" fill="white"/>
<path d="M1010.23 281.122C1015.78 281.122 1020.46 278.227 1021.07 274.504L1026.58 212.217C1026.58 206.049 1019.3 201 1010.23 201C1001.1 201 993.879 206.049 993.879 212.217L999.434 274.504C1000.02 278.227 1004.67 281.122 1010.23 281.122Z" fill="white"/>
<path d="M976.442 300.612C979.195 295.746 979.036 290.345 976.064 287.936L924.653 252.036C919.305 248.921 911.3 252.632 906.72 260.491C902.151 268.337 903.077 277.145 908.316 280.199L965.233 306.549C968.876 307.912 973.639 305.381 976.442 300.564" fill="white"/>
<path d="M1044.01 300.561C1046.92 305.379 1051.68 307.909 1055.23 306.62L1112.14 280.196C1117.43 277.082 1118.22 268.359 1113.75 260.512C1109.18 252.654 1101.13 248.967 1095.8 252.021L1044.37 287.885C1041.52 290.33 1041.31 295.756 1044.07 300.61" fill="white"/>
<path d="M1010.23 358.927C1015.78 358.927 1020.46 361.822 1021.07 365.545L1026.58 427.832C1026.58 434 1019.3 439 1010.23 439C1001.1 439 993.879 434 993.879 427.832L999.434 365.545C1000.02 361.822 1004.67 358.927 1010.23 358.927Z" fill="white"/>
<path d="M1044.01 339.491C1046.92 334.661 1051.68 332.082 1055.23 333.481L1112.14 359.856C1117.43 362.91 1118.22 371.705 1113.75 379.564C1109.18 387.362 1101.13 391.073 1095.8 388.019L1044.37 352.107C1041.52 349.686 1041.31 344.284 1044.07 339.491" fill="white"/>
<path d="M976.442 339.438C979.195 344.292 979.036 349.681 976.064 352.114L924.653 387.966C919.305 391.08 911.3 387.357 906.72 379.559C902.151 371.713 903.077 362.905 908.316 359.851L965.233 333.476C968.876 332.09 973.639 334.644 976.442 339.438Z" fill="white"/>
<path d="M1128.8 382.553H1129.51C1130.47 382.553 1130.86 382.857 1130.97 383.624C1131.18 384.475 1131.29 385.047 1131.49 385.29H1133.32C1133.16 385.108 1132.95 384.646 1132.85 383.575C1132.64 382.651 1132.16 382.127 1131.49 381.945V381.775C1132.42 381.568 1132.95 380.947 1132.95 380.181C1132.95 379.487 1132.64 378.989 1132.32 378.672C1131.71 378.38 1131.13 378.149 1129.84 378.149C1128.69 378.149 1127.85 378.247 1127.18 378.405V385.29H1128.8V382.553ZM1128.85 379.414L1129.68 379.305C1130.65 379.305 1131.18 379.755 1131.18 380.388C1131.18 381.093 1130.47 381.422 1129.57 381.422H1128.85V379.414ZM1129.89 374.743C1125.89 374.743 1122.72 377.857 1122.72 381.677C1122.72 385.595 1125.89 388.709 1129.89 388.709C1133.93 388.709 1137 385.595 1137 381.677C1137 377.857 1133.93 374.743 1129.89 374.743ZM1129.89 376.142C1132.95 376.142 1135.23 378.624 1135.23 381.677C1135.23 384.755 1132.95 387.31 1129.89 387.261C1126.82 387.261 1124.49 384.755 1124.49 381.677C1124.49 378.624 1126.82 376.142 1129.84 376.142" fill="white"/>
</g>
<defs>
<clipPath id="clip0_9_760">
<rect width="994" height="238" fill="white" transform="translate(143 201)"/>
</clipPath>
</defs>
</svg>
