<svg width="24" height="24" viewBox="0 0 24 24" fill="none" xmlns="http://www.w3.org/2000/svg">
<g clip-path="url(#clip0_721_2)">
<path d="M12.531 5.042L13.78 7.5H15.906C16.0231 7.49714 16.1384 7.52968 16.2367 7.59336C16.335 7.65703 16.4118 7.74889 16.457 7.85692C16.5023 7.96494 16.5139 8.08411 16.4904 8.19885C16.4668 8.31358 16.4092 8.41854 16.325 8.5L14.373 10.422L15.455 12.9C15.5023 13.0139 15.5127 13.1397 15.4847 13.2598C15.4567 13.3799 15.3919 13.4882 15.2992 13.5696C15.2065 13.6509 15.0907 13.7011 14.9679 13.7132C14.8452 13.7253 14.7218 13.6987 14.615 13.637L12 12.169L9.38504 13.64C9.27833 13.702 9.15484 13.7289 9.03203 13.7169C8.90921 13.7049 8.79326 13.6546 8.70055 13.5732C8.60784 13.4917 8.54305 13.3832 8.51533 13.263C8.4876 13.1427 8.49835 13.0168 8.54604 12.903L9.62804 10.418L7.67504 8.5C7.59081 8.41848 7.53316 8.31343 7.50964 8.1986C7.48612 8.08376 7.49782 7.9645 7.54321 7.85643C7.5886 7.74836 7.66556 7.65651 7.76403 7.59292C7.86249 7.52932 7.97786 7.49693 8.09504 7.5H10.221L11.47 5.042C11.521 4.9455 11.5974 4.86474 11.6908 4.80841C11.7843 4.75207 11.8914 4.72231 12.0005 4.72231C12.1097 4.72231 12.2168 4.75207 12.3102 4.80841C12.4037 4.86474 12.4801 4.9455 12.531 5.042Z" stroke="#344ECB" stroke-width="1.5" stroke-linecap="round" stroke-linejoin="round"/>
<path d="M4.717 13.152L0.75 18L4.5 18.75L6 23.25L9.991 16.918" stroke="#344ECB" stroke-width="1.5" stroke-linecap="round" stroke-linejoin="round"/>
<path d="M19.283 13.152L23.25 18L19.5 18.75L18 23.25L14.01 16.918" stroke="#344ECB" stroke-width="1.5" stroke-linecap="round" stroke-linejoin="round"/>
<path d="M12.4711 0.916004L14.3181 2.4L16.6871 2.282C16.858 2.27354 17.0266 2.32377 17.1651 2.42436C17.3035 2.52495 17.4034 2.66985 17.4481 2.835L18.0681 5.125L20.0541 6.425C20.1983 6.51905 20.3058 6.65972 20.3588 6.82352C20.4118 6.98733 20.4069 7.16434 20.3451 7.325L19.5001 9.537L20.3451 11.753C20.4058 11.913 20.4101 12.089 20.3572 12.2517C20.3043 12.4145 20.1973 12.5543 20.0541 12.648L18.0681 13.948L17.4481 16.238C17.4034 16.4032 17.3035 16.5481 17.1651 16.6486C17.0266 16.7492 16.858 16.7995 16.6871 16.791L14.3181 16.673L12.4711 18.161C12.3377 18.2682 12.1717 18.3267 12.0006 18.3267C11.8295 18.3267 11.6635 18.2682 11.5301 18.161L9.68309 16.67L7.31409 16.788C7.14306 16.7965 6.97426 16.7463 6.83567 16.6457C6.69708 16.5452 6.59703 16.4002 6.55209 16.235L5.93309 13.945L3.94709 12.645C3.80344 12.5517 3.69617 12.4119 3.6432 12.249C3.59023 12.0861 3.59478 11.91 3.65609 11.75L4.50009 9.537L3.65609 7.32C3.59368 7.15941 3.58854 6.9822 3.64155 6.81826C3.69456 6.65431 3.80247 6.51366 3.94709 6.42L5.93309 5.12L6.55209 2.83C6.59703 2.66477 6.69708 2.51985 6.83567 2.41927C6.97426 2.31869 7.14306 2.2685 7.31409 2.277L9.68309 2.4L11.5301 0.916004C11.6635 0.808794 11.8295 0.750351 12.0006 0.750351C12.1717 0.750351 12.3377 0.808794 12.4711 0.916004Z" stroke="#344ECB" stroke-width="1.5" stroke-linecap="round" stroke-linejoin="round"/>
</g>
<defs>
<clipPath id="clip0_721_2">
<rect width="24" height="24" fill="white"/>
</clipPath>
</defs>
</svg>
