<svg width="760" height="48" viewBox="0 0 760 48" fill="none" xmlns="http://www.w3.org/2000/svg">
<g clip-path="url(#clip0_1186_7707)">
<path d="M15.8639 -60C35.7539 -54.9001 74.9822 -32.6872 72.7759 15.3652C70.0181 75.4307 9.84674 113.019 -5.1961 169.684C-16.2988 211.508 -14.7232 316.259 52.9695 360.27" stroke="#2B2C4F" stroke-width="1.5"/>
<path d="M-24.767 -60C-4.877 -54.9001 34.3514 -32.6872 32.1451 15.3652C29.3872 75.4307 -30.7841 113.019 -45.827 169.684C-56.9297 211.508 -55.3541 316.259 12.3387 360.27" stroke="#2B2C4F" stroke-width="1.5"/>
<path opacity="0.95" d="M44.5104 -49.7705C64.4003 -44.6706 103.629 -22.4577 101.422 25.5947C98.6646 85.6602 38.4932 123.248 23.4504 179.914C12.3477 221.737 13.9233 326.489 81.616 370.499" stroke="#2B2C4F" stroke-width="1.5"/>
<path opacity="0.9" d="M73.5416 -40.1794C93.4316 -35.0795 132.66 -12.8666 130.454 35.1858C127.696 95.2513 67.5245 132.839 52.4816 189.505C41.3789 231.328 42.9545 336.08 110.647 380.09" stroke="#2B2C4F" stroke-width="1.5"/>
<path opacity="0.85" d="M102.965 -31.2988C122.855 -26.1989 162.084 -3.98602 159.878 44.0664C157.12 104.132 96.9483 141.72 81.9055 198.386C70.8027 240.209 72.3783 344.961 140.071 388.971" stroke="#2B2C4F" stroke-width="1.5"/>
<path opacity="0.8" d="M132.796 -23.2212C152.685 -18.1213 191.914 4.09162 189.708 52.144C186.95 112.21 126.778 149.798 111.736 206.463C100.633 248.287 102.208 353.038 169.901 397.048" stroke="#2B2C4F" stroke-width="1.5"/>
<path opacity="0.75" d="M163.046 -16.0637C182.935 -10.9638 222.164 11.2491 219.958 59.3015C217.2 119.367 157.028 156.955 141.986 213.621C130.883 255.444 132.458 360.196 200.151 404.206" stroke="#2B2C4F" stroke-width="1.5"/>
<path opacity="0.7" d="M193.698 -9.9751C213.588 -4.8752 252.816 17.3377 250.61 65.3901C247.852 125.456 187.681 163.044 172.638 219.709C161.535 261.533 163.111 366.284 230.804 410.295" stroke="#2B2C4F" stroke-width="1.5"/>
<path opacity="0.65" d="M224.741 -5.14368C244.631 -0.0437752 283.859 22.1691 281.653 70.2215C278.895 130.287 218.724 167.875 203.681 224.541C192.578 266.364 194.154 371.116 261.846 415.126" stroke="#2B2C4F" stroke-width="1.5"/>
<path opacity="0.6" d="M256.135 -1.80872C276.025 3.29119 315.254 25.5041 313.047 73.5565C310.29 133.622 250.118 171.21 235.075 227.876C223.973 269.699 225.548 374.451 293.241 418.461" stroke="#2B2C4F" stroke-width="1.5"/>
<path opacity="0.55" d="M287.766 -0.269653C307.656 4.83025 346.885 27.0432 344.678 75.0956C341.92 135.161 281.749 172.749 266.706 229.415C255.604 271.238 257.179 375.99 324.872 420" stroke="#2B2C4F" stroke-width="1.5"/>
<path opacity="0.5" d="M319.454 -0.896362C339.344 4.20354 378.572 26.4164 376.366 74.4688C373.608 134.534 313.437 172.123 298.394 228.788C287.291 270.612 288.867 375.363 356.559 419.373" stroke="#2B2C4F" stroke-width="1.5"/>
<path opacity="0.45" d="M350.866 -4.1123C370.756 0.987597 409.984 23.2005 407.778 71.2529C405.02 131.318 344.849 168.907 329.806 225.572C318.703 267.396 320.279 372.147 387.971 416.157" stroke="#2B2C4F" stroke-width="1.5"/>
<path opacity="0.4" d="M381.467 -10.3528C401.357 -5.25288 440.586 16.96 438.379 65.0124C435.622 125.078 375.45 162.666 360.407 219.332C349.305 261.155 350.88 365.907 418.573 409.917" stroke="#2B2C4F" stroke-width="1.5"/>
<path opacity="0.35" d="M415.76 -21.6295C435.65 -16.5296 474.879 5.68329 472.672 53.7357C469.915 113.801 409.743 151.389 394.7 208.055C383.598 249.878 385.173 354.63 452.866 398.64" stroke="#2B2C4F" stroke-width="1.5"/>
<path opacity="0.3" d="M445.143 -30.5938C465.033 -25.4938 504.262 -3.28094 502.055 44.7715C499.297 104.837 439.126 142.425 424.083 199.091C412.98 240.914 414.556 345.666 482.249 389.676" stroke="#2B2C4F" stroke-width="1.5"/>
<path opacity="0.25" d="M475.405 -37.6987C495.295 -32.5988 534.523 -10.3859 532.317 37.6665C529.559 97.732 469.388 135.32 454.345 191.986C443.242 233.809 444.818 338.561 512.511 382.571" stroke="#2B2C4F" stroke-width="1.5"/>
<path opacity="0.2" d="M506.344 -42.9004C526.234 -37.8005 565.463 -15.5876 563.256 32.4648C560.499 92.5303 500.327 130.118 485.284 186.784C474.182 228.607 475.757 333.359 543.45 377.369" stroke="#2B2C4F" stroke-width="1.5"/>
<path opacity="0.15" d="M537.741 -46.199C557.631 -41.0991 596.859 -18.8862 594.653 29.1662C591.895 89.2317 531.724 126.82 516.681 183.485C505.578 225.309 507.154 330.06 574.846 374.071" stroke="#2B2C4F" stroke-width="1.5"/>
<path opacity="0.1" d="M569.385 -47.6364C589.275 -42.5365 628.504 -20.3235 626.297 27.7289C623.54 87.7944 563.368 125.383 548.325 182.048C537.223 223.872 538.798 328.623 606.491 372.633" stroke="#2B2C4F" stroke-width="1.5"/>
<path opacity="0.05" d="M601.081 -47.2866C620.971 -42.1867 660.199 -19.9738 657.993 28.0786C655.235 88.1441 595.064 125.732 580.021 182.398C568.918 224.221 570.494 328.973 638.186 372.983" stroke="#2B2C4F" stroke-width="1.5"/>
<path opacity="0.1" d="M632.665 -45.2433C652.555 -40.1434 691.783 -17.9305 689.577 30.1219C686.819 90.1874 626.648 127.776 611.605 184.441C600.502 226.265 602.078 331.016 669.77 375.026" stroke="#2B2C4F" stroke-width="1.5"/>
<path opacity="0.05" d="M663.999 -41.6111C683.889 -36.5112 723.117 -14.2983 720.911 33.7541C718.153 93.8196 657.982 131.408 642.939 188.073C631.836 229.897 633.412 334.648 701.104 378.659" stroke="#2B2C4F" stroke-width="1.5"/>
</g>
<defs>
<clipPath id="clip0_1186_7707">
<rect width="760" height="48" fill="white"/>
</clipPath>
</defs>
</svg>
