<?xml version="1.0" encoding="UTF-8"?>
<svg width="1200pt" height="1200pt" version="1.1" viewBox="0 0 1200 1200" xmlns="http://www.w3.org/2000/svg">
 <g fill="#fff">
  <path d="m1080 557.6c0-100.04-64.781-189.1-156.56-218.92 0.5-4.3398 0.76172-8.6211 0.76172-12.879 0-68.922-56-125-124.8-125-20.641 0-40.719 5.2617-59.02 15.32-46.582-60.543-117.48-96.121-193.38-96.121-126.74 0-231.38 97.5-244.94 224.88-104.9 20.262-182.06 114.38-182.06 225.52 0 101.26 66.398 191.18 160 220.02v120.22l-69.621 57.922c-8.9375-5.2969-19.238-8.5586-30.379-8.5586-33.078 0-60 26.922-60 60s26.922 60 60 60 60-26.922 60-60c0-7.3398-1.5195-14.281-3.9414-20.801l76.719-63.84c4.582-3.7812 7.2227-9.418 7.2227-15.359v-121.3c7.8984 0.85938 15.922 1.3008 23.98 1.3008 33.559 0 66.18-7.6992 96.02-22.32v119.08l-21.121 63.359c-32.559 0.62109-58.879 27.184-58.879 59.883 0 33.078 26.922 60 60 60s60-26.922 60-60c0-19.18-9.1992-36.078-23.238-47.078l22.199-66.602c0.67969-2.0391 1.0391-4.1602 1.0391-6.3203v-357.4c0-11.039-8.9414-20-20-20s-20 8.9609-20 20v188.8c-28.961 18.457-61.82 28.598-96.02 28.598-8.2617 0-16.18-0.67969-23.98-1.6992v-183.1c0-11.039-8.9414-20-20-20s-20 8.9609-20 20v172.88c-70.781-27.359-120-98.238-120-177.68 0-96.559 70.121-177.52 163.1-188.34 9.7617-1.1406 17.238-9.1797 17.68-19 4.957-113.86 95.539-203.06 206.22-203.06 68.922 0 133 35.262 171.44 94.301 3.0391 4.6797 7.9219 7.8789 13.441 8.8008 5.4219 1 11.18-0.48047 15.578-3.9219 10.82-8.3789 28.621-18.398 51.941-18.398 46.762 0 84.801 38.141 84.801 85 0 6.8203-1.0781 13.961-3.2617 21.82-1.4805 5.2812-0.71875 10.922 2.0781 15.621 2.8203 4.6992 7.4219 8.0586 12.762 9.2617 83.559 19.035 144.22 96.875 144.22 185.12 0 79.461-49.238 150.36-120 177.68v-172.88c0-11.039-8.9414-20-20-20s-20 8.9609-20 20v183.08c-7.8398 1.0195-15.762 1.6992-24 1.6992-34.141 0-67-10.078-96-28.422v-188.75c0-11.039-8.9414-20-20-20s-20 8.9609-20 20v370c0 2.1406 0.35938 4.2812 1.0391 6.3203l22.199 66.602c-14.039 11-23.238 27.918-23.238 47.078 0 33.078 26.922 60 60 60s60-26.922 60-60c0-32.699-26.32-59.281-58.879-59.879l-21.121-63.359v-131.8c29.879 14.559 62.48 22.219 96 22.219 8.0781 0 16.078-0.46094 24-1.3008v134.12c0 5.9414 2.6406 11.578 7.1992 15.379l76.719 63.84c-2.3984 6.5-3.918 13.461-3.918 20.781 0 33.078 26.922 60 60 60s60-26.922 60-60-26.922-60-60-60c-11.141 0-21.441 3.2617-30.379 8.5586l-69.621-57.938v-133.02c93.602-28.801 160-118.72 160-220zm-900 482.4c-11.039 0-20-8.9609-20-20s8.9609-20 20-20 20 8.9609 20 20-8.9609 20-20 20zm240 0c-11.039 0-20-8.9609-20-20s8.9609-20 20-20 20 8.9609 20 20-8.9609 20-20 20zm360-40c11.039 0 20 8.9609 20 20s-8.9609 20-20 20-20-8.9609-20-20 8.9609-20 20-20zm240 0c11.039 0 20 8.9609 20 20s-8.9609 20-20 20-20-8.9609-20-20 8.9609-20 20-20z"/>
  <path d="m620 963.7v-563.7c0-11.039-8.9414-20-20-20s-20 8.9609-20 20v563.7c-23.219 8.2812-40 30.281-40 56.32 0 33.078 26.922 60 60 60s60-26.922 60-60c0-26.059-16.781-48.039-40-56.32zm-20 76.301c-11.039 0-20-8.9609-20-20s8.9609-20 20-20 20 8.9609 20 20-8.9609 20-20 20z"/>
 </g>
</svg>
