<?xml version="1.0" encoding="UTF-8"?>
<svg width="1200pt" height="1200pt" version="1.1" viewBox="0 0 1200 1200" xmlns="http://www.w3.org/2000/svg">
 <path d="m677.34 487.31c0 15.375 9.2344 29.25 23.438 35.109 14.203 5.9062 30.562 2.6719 41.438-8.2031s14.109-27.234 8.2031-41.438c-5.8594-14.203-19.734-23.438-35.109-23.438-10.078 0-19.734 3.9844-26.859 11.109s-11.109 16.781-11.109 26.859z" fill="#fff" fill-rule="evenodd"/>
 <path d="m1000.3 766.31c0 50.672-75.984 50.672-75.984 0 0-50.625 75.984-50.625 75.984 0" fill="#fff"/>
 <path d="m66.656 1130.7 281.68-84.328-197.34-197.34z" fill="#fff" fill-rule="evenodd"/>
 <path d="m176.02 766.69 254.34 254.34 124.31-37.312-341.34-340.74c-13.312 41.016-24.984 82.688-37.312 123.71z" fill="#fff" fill-rule="evenodd"/>
 <path d="m407.02 386.34c-19.078-18.984-46.734-26.438-72.75-19.594s-46.406 27-53.578 52.922l-42.703 140.68 399.98 399.98 141.98-42.656h0.046875c25.734-7.2656 45.562-27.75 51.984-53.672 6.6562-26.062-0.9375-53.672-19.969-72.656-112.03-111-295.03-295.03-405-405z" fill="#fff" fill-rule="evenodd"/>
 <path d="m868.31 358.31c9.7031 3.1406 20.25 2.25 29.25-2.4375s15.797-12.797 18.75-22.547c13.594-39.047 44.484-69.562 83.672-82.641 61.969-20.766 110.58-69.422 131.34-131.34 5.3906-19.5-5.4375-39.75-24.609-46.172-19.172-6.375-39.984 3.375-47.391 22.172-13.312 39.188-44.109 69.984-83.344 83.344-63.047 20.766-112.55 70.219-133.31 133.31-5.5781 19.875 5.8594 40.547 25.641 46.312z" fill="#fff" fill-rule="evenodd"/>
 <path d="m1120.7 611.02c-49.031-43.359-115.55-61.266-179.68-48.328l-83.344 17.016v-0.046875c-20.625 4.2656-33.891 24.375-29.672 45s24.375 33.891 45 29.672l83.016-17.344c40.547-8.3438 82.641 2.625 114 29.672 15.609 14.016 39.656 12.656 53.672-3 13.969-15.656 12.609-39.656-3-53.672z" fill="#fff" fill-rule="evenodd"/>
 <path d="m636.66 375c11.438 0 22.266-4.9688 29.672-13.688 40.875-47.766 63.516-108.42 63.984-171.32v-82.312c0.1875-10.125-3.7031-19.875-10.781-27.094-7.0781-7.1719-16.781-11.25-26.859-11.25-20.859 0.1875-37.781 16.828-38.344 37.688v82.312c-0.51562 45.75-17.297 89.812-47.344 124.36-8.8594 11.391-10.5 26.859-4.2188 39.844 6.3281 13.031 19.453 21.328 33.891 21.469z" fill="#fff" fill-rule="evenodd"/>
 <path d="m1064.7 389.34c-4.2656-1.4531-7.5938-4.7812-9-9-2.0156-5.0156-4.6875-12.656-7.6875-20.672-2.25-5.9531-7.9688-9.8906-14.297-9.8906-6.375 0-12.094 3.9375-14.344 9.8906-3 8.0156-5.6719 15.656-7.6875 20.672-1.5 4.1719-4.7812 7.4531-9 9l-20.672 7.6875v-0.046875c-5.9531 2.2969-9.8906 7.9688-9.8906 14.344s3.9375 12.094 9.8906 14.344l20.672 7.6875v-0.046875c4.2656 1.4531 7.5938 4.7812 9 9 2.0156 5.0156 4.6875 12.656 7.6875 20.672 2.25 5.9531 7.9688 9.8906 14.344 9.8906 6.3281 0 12.047-3.9375 14.297-9.8906 3-8.0156 5.6719-15.656 7.6875-20.672 1.3125-4.2656 4.6875-7.6406 9-9l20.672-7.6875v0.046875c5.9531-2.25 9.8906-7.9688 9.8906-14.344s-3.9375-12.047-9.8906-14.344z" fill="#fff" fill-rule="evenodd"/>
 <path d="m435.66 235.69 20.672 7.6875v-0.046875c4.3125 1.3594 7.6875 4.6875 9 9 2.0156 5.0156 4.6875 12.656 7.6875 20.672 2.25 5.9531 7.9688 9.8906 14.297 9.8906 6.375 0 12.094-3.9375 14.344-9.8906 3-8.0156 5.6719-15.656 7.6875-20.672 1.5-4.1719 4.7812-7.5 9-9l20.672-7.6875v0.046875c5.9531-2.2969 9.8906-7.9688 9.8906-14.344s-3.9375-12.094-9.8906-14.344l-20.672-6.9844c-4.125-1.6406-7.4062-4.9219-9-9-2.0156-5.0156-4.6875-12.656-7.6875-20.672-2.25-5.9531-7.9688-9.8906-14.344-9.8906-6.3281 0-12.047 3.9375-14.297 9.8906-3 8.0156-5.6719 15.656-7.6875 20.672-1.4062 4.2188-4.7344 7.5469-9 9l-20.672 7.6875v-0.046875c-5.9531 2.25-9.8906 7.9688-9.8906 14.344s3.9375 12.094 9.8906 14.344z" fill="#fff" fill-rule="evenodd"/>
</svg>
