<?xml version="1.0" encoding="UTF-8"?>
<svg width="1200pt" height="1200pt" version="1.1" viewBox="0 0 1200 1200" xmlns="http://www.w3.org/2000/svg">
 <path d="m55.969 128.31v685.21c0 30.914 25.059 55.969 55.969 55.969h334.41v119.91h-96.969c-14.848 0-29.078 5.8906-39.574 16.387s-16.398 24.734-16.398 39.582v57.664c0 10.297 8.3555 18.652 18.652 18.652h569.88c10.297 0 18.652-8.3555 18.652-18.652v-57.664c0-14.848-5.8906-29.086-16.387-39.582-10.496-10.496-24.734-16.387-39.582-16.387h-96.957v-119.91h334.41c30.914 0 55.969-25.059 55.969-55.969v-685.21c0-30.914-25.059-55.969-55.969-55.969h-970.14c-30.914 0-55.969 25.059-55.969 55.969zm807.33 917.06v39.008h-532.57v-39.008c0-4.9531 1.9609-9.6992 5.4609-13.199 3.5-3.4922 8.2383-5.4609 13.191-5.4609h495.25c4.9531 0 9.6992 1.9688 13.191 5.4609 3.5 3.5 5.4727 8.2461 5.4727 13.199zm-379.64-55.969h226.7v-119.91h-226.7zm617.09-277.25v101.36c0 10.309-8.3555 18.652-18.652 18.664h-970.16c-10.309-0.007813-18.652-8.3555-18.652-18.664v-101.36zm0-37.316h-1007.5v-546.53c0-10.297 8.3477-18.652 18.652-18.652h970.14c10.309 0 18.664 8.3555 18.664 18.652zm-503.73-425.3c-25.641-27.949-62.086-44.309-100.8-44.309h-218.08c-10.309 0-18.664 8.3477-18.664 18.652v313.59c0 10.309 8.3555 18.664 18.664 18.664h205.47c39.422 0 76.145 19.969 97.574 53.043 0.15234 0.23438 0.29687 0.46484 0.45703 0.69141 6.4219 9.4648 15.375 8.0859 15.375 8.0859s8.9453 1.3789 15.375-8.0859c0.15234-0.22266 0.30469-0.45703 0.44922-0.69141 21.43-33.07 58.156-53.043 97.574-53.043h205.48c10.297 0 18.652-8.3555 18.652-18.664v-313.59c0-10.309-8.3555-18.652-18.652-18.652h-218.08c-38.723 0-75.172 16.359-100.8 44.309zm18.652 301.99v-265.6c18.457-27.055 49.172-43.387 82.145-43.387h199.41v276.28h-186.82c-34.836 0-68.086 11.812-94.746 32.715zm-37.316-265.6v265.6c-26.66-20.902-59.902-32.715-94.746-32.715h-186.82v-276.28h199.43c32.973 0 63.68 16.336 82.137 43.387zm257.82 130.22h-158.03c-10.297 0-18.652 8.3633-18.652 18.664 0 10.297 8.3555 18.652 18.652 18.652h158.03c10.297 0 18.652-8.3555 18.652-18.652 0-10.297-8.3555-18.664-18.652-18.664zm-320.29 0h-158.02c-10.297 0-18.664 8.3633-18.664 18.664 0 10.297 8.3633 18.652 18.664 18.652h158.02c10.297 0 18.664-8.3555 18.664-18.652 0-10.297-8.3633-18.664-18.664-18.664zm0-96.957h-158.02c-10.297 0-18.664 8.3633-18.664 18.664 0 10.289 8.3633 18.652 18.664 18.652h158.02c10.297 0 18.664-8.3633 18.664-18.652 0-10.297-8.3633-18.664-18.664-18.664zm320.29 0h-158.03c-10.297 0-18.652 8.3633-18.652 18.664 0 10.289 8.3555 18.652 18.652 18.652h158.03c10.297 0 18.652-8.3633 18.652-18.652 0-10.297-8.3555-18.664-18.652-18.664z" fill="#fff" fill-rule="evenodd"/>
</svg>
