<svg width="657" height="657" viewBox="0 0 657 657" fill="none" xmlns="http://www.w3.org/2000/svg">
<path d="M351.546 656.256H304.671C302.203 656.256 299.937 655.131 298.453 653.178C296.968 651.207 296.484 648.723 297.14 646.35C298.625 641.022 299.375 634.96 299.375 628.301C299.421 607.254 291.828 580.069 277.984 551.741C265.125 525.304 247.578 499.478 229.828 480.881C218.172 468.616 206.453 459.678 196.843 455.709C191.437 453.428 183.984 452.274 174.687 452.274H174.203C164.484 452.274 153.656 453.477 142.188 454.758C130.141 456.087 117.672 457.459 105.782 457.493C101.422 457.493 97.5002 457.305 93.7662 456.93C74.5628 454.79 58.0788 447.508 48.5475 436.915C41.0788 428.553 37.1882 419.337 37.2508 410.256C37.2821 402.069 40.079 395.162 42.329 389.631L42.5165 389.147C45.0946 383.022 46.6727 378.569 46.6102 375.35C46.5946 373.616 46.329 372.022 45.0946 369.819C43.3602 366.853 41.7665 365.584 39.8759 364.241C39.3446 363.85 38.7509 363.478 38.1103 363.069C36.3603 361.978 34.1884 360.618 31.9384 357.868C29.9384 355.381 28.7509 351.662 28.8134 348.147C28.8134 347.506 28.8447 346.834 28.9072 346.178C29.8446 333.693 35.4384 326.756 38.6885 323.709C41.2666 321.319 43.6885 319.584 45.4538 318.319C46.907 317.272 47.9538 316.522 48.3601 315.928C49.8445 314.241 51.9851 313.272 54.2351 313.272C56.1257 313.272 57.9538 313.959 59.3914 315.209C62.6258 318.053 62.9382 323.006 60.0945 326.241C57.6101 328.913 55.282 330.553 53.2198 332.004C51.7824 333.035 50.5324 333.913 49.548 334.941C47.1417 337.428 45.2511 339.926 44.4698 347.538C44.4542 347.757 44.4386 347.96 44.4386 348.16C44.4386 348.304 44.4542 348.395 44.4542 348.457C44.5167 348.504 44.5792 348.567 44.6729 348.629C44.9542 348.861 45.4698 349.223 46.1729 349.676L46.5323 349.908C49.4386 351.767 54.8603 355.236 58.673 362.08C61.0324 366.173 62.2511 370.77 62.2355 375.345C62.173 382.314 59.8136 388.095 57.7355 393.204C57.4699 393.829 57.2199 394.457 56.9699 395.079C54.423 401.204 52.8449 405.892 52.8762 410.251C52.9387 414.361 53.8762 419.205 60.2668 426.579C66.3762 433.783 81.1415 440.001 95.3762 441.376C98.5324 441.704 102.032 441.863 105.782 441.863H106.11C116.423 441.863 127.579 440.629 139.376 439.332C151.11 438.019 163.235 436.675 174.516 436.66C186.266 436.676 195.266 438.144 202.844 441.285C214.75 446.285 227.626 455.97 241.141 470.095C253.61 483.192 265.985 499.551 276.954 517.408C288.219 535.876 297.594 555.204 304.063 573.314C311.266 593.454 314.938 611.952 315 628.296C315 632.577 314.735 636.72 314.203 640.626H347.485C367.05 612.111 376.579 583.908 376.612 554.393C376.628 522.502 365.503 489.002 341.597 448.973C340.534 447.192 340.222 445.082 340.737 443.067C341.235 441.035 342.519 439.332 344.297 438.272C345.516 437.535 346.891 437.163 348.3 437.163C351.05 437.163 353.61 438.616 355.019 440.973C366.925 460.941 375.659 479.035 381.706 496.301C388.784 516.504 392.221 535.504 392.237 554.395C392.253 570.694 389.534 587.038 384.141 602.941C378.453 619.754 369.625 636.598 357.906 652.973C356.437 655.043 354.06 656.262 351.546 656.262L351.546 656.256ZM322.64 413.57C320.109 413.57 317.718 412.335 316.249 410.257C315.046 408.538 314.578 406.46 314.953 404.413C315.312 402.354 316.453 400.57 318.156 399.369C319.484 398.447 321.031 397.947 322.64 397.947C325.187 397.947 327.578 399.197 329.046 401.275C331.515 404.807 330.656 409.7 327.125 412.169C325.796 413.085 324.25 413.57 322.64 413.57ZM294.859 375.835C292.421 375.835 290.171 374.723 288.671 372.804C282.843 365.288 276.734 357.569 270.827 350.1C256.499 332.025 241.687 313.335 228.562 294.491C219.859 281.96 211.984 268.085 205.156 253.272C198.515 238.835 192.828 223.413 188.234 207.413C183.734 191.678 180.281 175.335 177.969 158.804C175.672 142.366 174.5 125.71 174.5 109.304C174.5 88.0384 176.453 67.3504 180.297 47.7884C182.547 36.3511 183.156 30.6631 183.656 26.1011C183.703 25.5855 183.766 25.0698 183.828 24.5542C183.984 22.9761 184.156 21.6948 184.328 20.4448C177.281 24.6323 170.125 31.1635 163.063 39.8355C153.344 51.7102 144.953 66.0228 138.219 77.5228L137.141 79.351C129.469 92.3663 125.141 107.07 120.953 121.288C120.109 124.132 119.25 127.054 118.375 129.944C115.938 137.835 112.875 147.054 108.516 155.632C103.828 164.819 98.1564 172.319 91.2031 178.554C78.2658 190.116 64.4844 200.319 49.0471 209.757C47.8284 210.491 46.4534 211.273 45.0002 212.101C43.719 212.819 42.4065 213.569 41.0628 214.366C38.7502 215.726 35.5783 217.71 33.5001 219.413C32.4063 220.304 31.7501 221.069 31.6407 221.241C31.3594 221.819 31.2344 222.429 31.2344 223.257C31.1876 225.085 32.1563 228.069 33.6563 230.679C34.9532 233.07 36.7969 235.429 37.9376 236.616C37.9688 236.632 38.0157 236.663 38.0782 236.694C38.3751 236.898 38.8907 237.21 39.6095 237.616C39.9845 237.835 40.3907 238.069 40.8282 238.319C41.9688 238.96 43.3907 239.773 44.8595 240.663C49.0626 243.241 53.8595 246.398 57.7035 251.21C59.8597 253.913 62.4379 258.304 62.4379 263.835C62.4535 268.07 60.8285 272.554 57.8441 276.476L57.7973 276.523C54.891 280.21 50.4379 284.288 47.2973 286.71C44.1567 289.038 42.641 290.929 41.9223 292.116C41.1097 293.476 40.9222 294.32 40.9066 295.226C40.9066 296.523 41.516 298.132 42.6879 299.898C45.0785 303.476 44.1098 308.335 40.5161 310.726C39.2348 311.585 37.7348 312.038 36.1879 312.038C33.5785 312.038 31.1411 310.741 29.6879 308.554C26.7817 304.194 25.2973 299.71 25.2816 295.226C25.266 291.413 26.4535 287.413 28.6098 283.944C30.7348 280.46 33.7973 277.272 37.9691 274.163C39.4535 273.132 44.2504 268.601 45.3438 267.1C45.3438 267.1 45.3438 267.085 45.3594 267.085C46.7657 265.163 46.7969 264.304 46.8125 263.835C46.7969 263.335 46.6875 262.647 45.8281 261.397C45.0156 260.225 43.5469 258.772 41.7969 257.413C39.1406 255.35 35.9843 253.554 33.1875 251.944C32.1719 251.366 31.1875 250.804 30.3125 250.272C30.1719 250.179 30.0469 250.1 29.9063 250.022C29.0782 249.491 28.2969 249.007 27.1719 247.944L27.1406 247.913C25.3281 246.085 22.6094 242.929 20 238.288C18.1406 234.897 15.6562 229.647 15.6094 223.256C15.6094 220.147 16.2812 217.116 17.5468 214.475C19.0468 211.444 20.9843 209.6 23 207.834C24.7656 206.319 26.7656 204.866 29.4844 203.131C32.2656 201.366 35.1406 199.725 37.453 198.413C38.8436 197.616 40.0312 196.944 40.9062 196.413C55.7188 187.366 68.3908 177.991 80.7808 166.913C92.1555 156.757 97.8902 143.49 103.437 125.366C104.359 122.366 105.234 119.366 106.171 116.178C110.468 101.522 114.921 86.3505 123.671 71.4285C124.187 70.5535 124.718 69.6472 125.265 68.7254C132.046 57.1627 140.484 42.772 150.968 29.944C157.437 22.0847 163.672 15.9594 170 11.2407C177.734 5.47509 185.515 1.85002 193.765 0.162691C196.421 -0.368563 199.249 0.553317 201.078 2.55329C202.906 4.56889 203.562 7.44389 202.781 10.0533C200.328 18.3813 199.906 21.3346 199.359 26.272C199.312 26.6626 199.265 27.0532 199.218 27.4751C198.718 32.2251 198.015 38.7404 195.625 50.8031C191.968 69.3658 190.125 89.0531 190.125 109.303C190.078 173.568 209.25 239.456 241.39 285.57C254.14 303.866 268.843 322.429 283.062 340.398C288.984 347.882 295.125 355.632 301.031 363.242C302.093 364.617 302.656 366.242 302.656 367.976C302.671 370.427 301.577 372.695 299.64 374.192C298.249 375.273 296.593 375.835 294.859 375.835Z" fill="white"/>
<path d="M445.279 656.256C443.857 656.256 442.463 655.866 441.229 655.116C439.448 654.04 438.2 652.319 437.698 650.288C437.198 648.272 437.529 646.163 438.62 644.381C456.573 614.819 465.307 585.444 465.323 554.581C465.432 494.503 431.357 437.928 394.523 385.721C383.648 370.268 371.836 354.987 359.336 338.831C344.961 320.253 330.101 301.034 316.945 281.69C301.851 259.362 289.226 229.018 280.43 193.957C272.07 160.629 267.617 125.157 267.57 91.4101C267.586 74.4567 268.727 58.6601 270.992 44.4254C273.398 29.3627 277.055 16.0034 281.867 4.73806C283.088 1.86306 285.916 0.00366211 289.042 0.00366211C290.104 0.00366211 291.135 0.222407 292.12 0.644287C294.042 1.45682 295.526 2.97242 296.292 4.90989C297.073 6.84735 297.042 8.97242 296.229 10.8943C287.792 30.4723 283.166 59.0503 283.198 91.4076C283.073 157.892 302.276 232.534 329.87 272.908C342.588 291.611 357.244 310.564 371.416 328.908C383.542 344.58 396.06 360.78 407.291 376.72C424.494 401.189 444.01 430.439 458.51 461.94C473.556 494.659 480.9 524.956 480.944 554.58C480.963 570.784 478.663 587.018 474.119 602.815C469.306 619.534 461.851 636.237 451.96 652.502C450.539 654.846 448.041 656.252 445.276 656.252L445.279 656.256Z" fill="white"/>
<path d="M523.419 656.256C521.951 656.256 520.526 655.85 519.292 655.085C517.511 653.975 516.276 652.241 515.81 650.21C515.344 648.178 515.685 646.085 516.794 644.316C535.169 614.738 544.122 585.413 544.154 554.643C544.25 495.393 509.435 439.223 475.374 392.083C464.514 377.008 452.718 362.101 440.218 346.333C425.843 328.177 410.983 309.414 397.796 290.508C389.095 277.961 381.22 264.086 374.392 249.273C367.752 234.836 362.062 219.414 357.486 203.398C352.971 187.664 349.518 171.304 347.205 154.773C344.908 138.336 343.736 121.679 343.736 105.258C343.736 83.9923 345.689 63.3043 349.533 43.773C352.221 30.023 353.406 25.195 354.674 21.0857C355.189 19.4138 355.674 18.0388 356.221 16.4451C357.109 13.8357 358.111 10.8982 359.689 5.60106C360.656 2.30419 363.734 0.00732422 367.171 0.00732422C367.919 0.00732422 368.671 0.116696 369.39 0.335449C371.39 0.929196 373.046 2.25732 374.031 4.10105C375.033 5.92918 375.249 8.03852 374.656 10.0385C372.968 15.726 371.825 19.0385 370.919 21.7105C370.421 23.1637 369.997 24.4137 369.606 25.6793C368.559 29.0699 367.403 33.7886 364.856 46.7733C361.2 65.3359 359.356 85.0079 359.356 105.258C359.322 169.555 378.482 235.458 410.622 281.571C423.325 299.821 437.981 318.337 452.153 336.227C464.278 351.54 476.809 367.368 488.044 382.946C511.403 415.383 526.859 440.774 538.153 465.246C552.653 496.683 559.734 525.933 559.778 554.653C559.778 570.84 557.419 587.075 552.747 602.887C547.828 619.591 540.184 636.309 530.06 652.559C530.06 652.575 530.06 652.575 530.044 652.575C528.625 654.887 526.14 656.262 523.422 656.262L523.419 656.256Z" fill="white"/>
<path d="M476.546 278.17C473.999 278.17 471.593 276.92 470.137 274.826C452.764 249.811 437.03 218.295 425.812 186.126C413.215 149.939 406.528 113.719 406.465 81.3594C406.465 52.0154 411.918 26.1094 422.668 4.3594C423.999 1.67193 426.671 0 429.671 0C430.874 0 432.046 0.265629 433.14 0.812536C436.999 2.7188 438.577 7.40627 436.671 11.2659C427.002 30.8439 422.093 54.4219 422.093 81.3592C421.986 148.499 452.58 222.419 482.952 265.906C484.158 267.609 484.611 269.687 484.233 271.734C483.874 273.797 482.718 275.578 481.012 276.781C479.687 277.687 478.155 278.171 476.546 278.171L476.546 278.17Z" fill="white"/>
<path d="M648.439 656.256H7.81266C3.50013 656.256 0 652.756 0 648.444C0 644.131 3.5 640.631 7.81266 640.631H648.439C652.752 640.631 656.252 644.131 656.252 648.444C656.252 652.756 652.752 656.256 648.439 656.256Z" fill="white"/>
</svg>
