<?xml version="1.0" encoding="UTF-8"?>
<svg width="1200pt" height="1200pt" version="1.1" viewBox="0 0 1200 1200" xmlns="http://www.w3.org/2000/svg">
 <g fill="#fff">
  <path d="m621.43 728.57v-11.27c24.086-1.8984 45.453-16.168 56.434-37.691 10.977-21.52 9.9844-47.199-2.6211-67.812-12.602-20.609-35.012-33.191-59.172-33.227h-32.145 0.003907c-9.5703 0-18.414-5.1055-23.199-13.391-4.7852-8.2891-4.7852-18.5 0-26.785 4.7852-8.2891 13.629-13.395 23.199-13.395h80.355c7.6562 0 14.73-4.0859 18.559-10.715s3.8281-14.797 0-21.43c-3.8281-6.6289-10.902-10.711-18.559-10.711h-42.855v-10.715c0-7.6562-4.0859-14.73-10.715-18.559s-14.801-3.8281-21.43 0-10.715 10.902-10.715 18.559v11.27c-24.086 1.8984-45.453 16.168-56.434 37.691-10.977 21.52-9.9844 47.199 2.6211 67.812 12.602 20.609 35.012 33.191 59.172 33.227h32.145-0.003907c9.5703 0 18.414 5.1055 23.199 13.391 4.7852 8.2891 4.7852 18.5 0 26.785-4.7852 8.2891-13.629 13.395-23.199 13.395h-80.355c-7.6562 0-14.73 4.0859-18.559 10.715s-3.8281 14.797 0 21.43c3.8281 6.6289 10.902 10.711 18.559 10.711h42.855v10.715c0 7.6562 4.0859 14.73 10.715 18.559s14.801 3.8281 21.43 0 10.715-10.902 10.715-18.559z"/>
  <path d="m835.71 600c0-62.516-24.836-122.47-69.039-166.68-44.207-44.203-104.16-69.039-166.68-69.039s-122.47 24.836-166.68 69.039c-44.203 44.207-69.039 104.16-69.039 166.68s24.836 122.47 69.039 166.68c44.207 44.203 104.16 69.039 166.68 69.039 62.496-0.070313 122.41-24.926 166.6-69.113 44.188-44.191 69.043-104.11 69.113-166.6zm-428.57 0c0-51.148 20.316-100.2 56.484-136.37 36.168-36.168 85.223-56.484 136.37-56.484s100.2 20.316 136.37 56.484c36.168 36.168 56.484 85.223 56.484 136.37s-20.316 100.2-56.484 136.37c-36.168 36.168-85.223 56.484-136.37 56.484-51.133-0.054688-100.15-20.391-136.31-56.547s-56.492-85.176-56.547-136.31z"/>
  <path d="m1028.6 921.43c-24.691 0.003906-48.625 8.5391-67.75 24.156-19.125 15.617-32.266 37.363-37.207 61.559h-302.18v-86.789c77.547-5.2617 150.56-38.445 205.52-93.406 54.961-54.961 88.145-127.97 93.406-205.52h108.21c5.6836 0 11.137-2.2578 15.152-6.2773 4.0195-4.0195 6.2773-9.4688 6.2773-15.152v-323.61c35-7.1445 64.137-31.262 77.695-64.309 13.559-33.047 9.7578-70.676-10.137-100.34-19.895-29.668-53.266-47.469-88.988-47.469-35.719 0-69.09 17.801-88.984 47.469-19.895 29.668-23.699 67.297-10.137 100.34 13.559 33.047 42.695 57.164 77.695 64.309v302.18h-86.789c-5.2617-77.547-38.445-150.56-93.406-205.52-54.961-54.961-127.97-88.145-205.52-93.406v-108.21c0-5.6836-2.2578-11.137-6.2773-15.152-4.0195-4.0195-9.4688-6.2773-15.152-6.2773h-323.61c-7.1445-35-31.262-64.137-64.309-77.695-33.047-13.559-70.676-9.7578-100.34 10.137-29.668 19.895-47.469 53.266-47.469 88.988 0 35.719 17.801 69.09 47.469 88.984 29.668 19.895 67.297 23.699 100.34 10.137 33.047-13.559 57.164-42.695 64.309-77.695h302.18v86.789c-77.547 5.2617-150.56 38.445-205.52 93.406-54.961 54.961-88.145 127.97-93.406 205.52h-108.21c-5.6836 0-11.137 2.2578-15.152 6.2773-4.0195 4.0195-6.2773 9.4688-6.2773 15.152v323.61c-35 7.1445-64.137 31.262-77.695 64.309-13.559 33.047-9.7578 70.676 10.137 100.34 19.895 29.668 53.266 47.469 88.988 47.469 35.719 0 69.09-17.801 88.984-47.469 19.895-29.668 23.699-67.297 10.137-100.34-13.559-33.047-42.695-57.164-77.695-64.309v-302.18h86.789c5.2617 77.547 38.445 150.56 93.406 205.52 54.961 54.961 127.97 88.145 205.52 93.406v108.21c0 5.6836 2.2578 11.137 6.2773 15.152 4.0195 4.0195 9.4688 6.2773 15.152 6.2773h323.61c5.4375 26.625 20.785 50.188 42.938 65.926 22.156 15.734 49.461 22.461 76.387 18.824 26.93-3.6406 51.469-17.375 68.652-38.422 17.188-21.051 25.73-47.844 23.902-74.957-1.8242-27.113-13.883-52.516-33.734-71.074-19.852-18.555-46.012-28.875-73.188-28.867zm-64.285-750c0-17.051 6.7734-33.402 18.828-45.457 12.059-12.059 28.41-18.828 45.457-18.828 17.051 0 33.402 6.7695 45.457 18.828 12.059 12.055 18.828 28.406 18.828 45.457 0 17.047-6.7695 33.398-18.828 45.457-12.055 12.055-28.406 18.828-45.457 18.828-17.047 0-33.398-6.7734-45.457-18.828-12.055-12.059-18.828-28.41-18.828-45.457zm-792.86 64.285c-17.051 0-33.402-6.7734-45.457-18.828-12.059-12.059-18.828-28.41-18.828-45.457 0-17.051 6.7695-33.402 18.828-45.457 12.055-12.059 28.406-18.828 45.457-18.828 17.047 0 33.398 6.7695 45.457 18.828 12.055 12.055 18.828 28.406 18.828 45.457 0 17.047-6.7734 33.398-18.828 45.457-12.059 12.055-28.41 18.828-45.457 18.828zm64.285 792.86c0 17.051-6.7734 33.402-18.828 45.457-12.059 12.059-28.41 18.828-45.457 18.828-17.051 0-33.402-6.7695-45.457-18.828-12.059-12.055-18.828-28.406-18.828-45.457 0-17.047 6.7695-33.398 18.828-45.457 12.055-12.055 28.406-18.828 45.457-18.828 17.047 0 33.398 6.7734 45.457 18.828 12.055 12.059 18.828 28.41 18.828 45.457zm85.715-428.57c0-73.883 29.348-144.74 81.59-196.98 52.242-52.242 123.1-81.59 196.98-81.59s144.74 29.348 196.98 81.59c52.242 52.242 81.59 123.1 81.59 196.98s-29.348 144.74-81.59 196.98c-52.242 52.242-123.1 81.59-196.98 81.59-73.855-0.089843-144.66-29.469-196.88-81.691s-81.602-123.02-81.691-196.88zm707.14 492.86c-17.047 0-33.398-6.7695-45.457-18.828-12.055-12.055-18.828-28.406-18.828-45.457 0-17.047 6.7734-33.398 18.828-45.457 12.059-12.055 28.41-18.828 45.457-18.828 17.051 0 33.402 6.7734 45.457 18.828 12.059 12.059 18.828 28.41 18.828 45.457 0 17.051-6.7695 33.402-18.828 45.457-12.055 12.059-28.406 18.828-45.457 18.828z"/>
 </g>
</svg>
