<svg width="96" height="90" viewBox="0 0 96 90" fill="none" xmlns="http://www.w3.org/2000/svg">
<g clip-path="url(#clip0_1_6791)">
<path d="M95.4981 58.0687C95.4981 65.5843 95.5037 73.1008 95.4962 80.6164C95.4916 85.0588 92.7471 88.6756 88.557 89.7255C87.8313 89.9076 87.0611 89.9749 86.3104 89.9814C83.355 90.0094 80.3997 89.9992 77.4443 89.9917C72.8611 89.9805 69.116 86.7859 68.37 82.2435C68.2901 81.755 68.265 81.2525 68.264 80.7565C68.2585 65.631 68.2575 50.5065 68.2613 35.381C68.2622 30.8386 71.435 27.0416 75.8825 26.2607C76.4121 26.1673 76.9593 26.1448 77.4991 26.143C80.4238 26.1318 83.3476 26.1318 86.2724 26.1392C90.9521 26.1504 94.6545 29.3291 95.3968 33.9855C95.4841 34.5356 95.4944 35.1017 95.4953 35.6612C95.5018 43.1301 95.499 50.5999 95.499 58.0687H95.4981ZM77.3207 58.0622C77.3207 65.1733 77.3198 72.2854 77.3216 79.3965C77.3216 80.7443 78.3055 81.7914 79.6276 81.8129C81.1281 81.8372 82.6294 81.8372 84.1299 81.8129C85.4269 81.7914 86.4396 80.7425 86.4405 79.4404C86.4442 65.2023 86.4442 50.9642 86.4405 36.7251C86.4405 35.3791 85.3972 34.3357 84.0565 34.3273C82.6638 34.3189 81.2683 34.3815 79.8794 34.3096C78.443 34.2349 77.29 35.4912 77.2993 36.9157C77.3448 43.9642 77.3198 51.0137 77.3198 58.0631L77.3207 58.0622Z" fill="#344ECB"/>
<path d="M30.1005 58.0583C30.1005 50.496 30.0958 42.9328 30.1023 35.3706C30.1061 31.0542 32.9769 27.388 37.1457 26.3885C37.7719 26.2381 38.4278 26.1559 39.0707 26.1503C42.1339 26.126 45.198 26.127 48.2621 26.141C52.8006 26.1615 56.6284 29.5289 57.2481 34.0404C57.3178 34.5467 57.3355 35.0642 57.3355 35.577C57.3401 50.5773 57.341 65.5786 57.3382 80.5789C57.3382 85.2268 54.3959 88.9136 49.9391 89.8346C49.3686 89.9523 48.7731 89.9831 48.1887 89.9859C45.2175 90.0009 42.2472 89.999 39.276 89.9915C34.6966 89.9794 30.9497 86.7765 30.211 82.2331C30.1246 81.6988 30.1051 81.1487 30.1051 80.606C30.0986 73.0904 30.1005 65.5739 30.1005 58.0583ZM39.1618 58.1069C39.1618 65.2031 39.1599 72.2983 39.1627 79.3945C39.1627 80.7638 40.1577 81.7978 41.5133 81.8147C42.9831 81.8333 44.4529 81.8333 45.9227 81.8147C47.2717 81.7978 48.2816 80.7545 48.2816 79.3954C48.2844 65.1732 48.2844 50.95 48.2816 36.7278C48.2816 35.3799 47.241 34.3365 45.9004 34.3281C44.5077 34.3197 43.1122 34.3823 41.7232 34.3104C40.2776 34.2357 39.132 35.4967 39.1404 36.9137C39.1841 43.9781 39.1608 51.0425 39.1608 58.1078L39.1618 58.1069Z" fill="#344ECB"/>
<path d="M7.42993 34.3215H0.508301V26.1792H16.389V89.9625H7.42993V34.3215Z" fill="#344ECB"/>
<path d="M74.5531 11.6301V21.8834H70.9631V0.35112C71.1257 0.342714 71.2883 0.327769 71.4509 0.327769C72.3168 0.324966 73.1836 0.344582 74.0495 0.318428C74.4314 0.307219 74.6126 0.410901 74.7333 0.805081C75.8092 4.31814 76.9102 7.82279 78.0065 11.3293C78.0594 11.4984 78.1291 11.6618 78.2648 11.8122V0.365132H81.8594V21.9189C80.5837 21.9189 79.3202 21.9301 78.0576 21.9002C77.9442 21.8974 77.7853 21.649 77.7342 21.4864C76.8823 18.7804 76.0452 16.0697 75.2034 13.3609C75.0213 12.7743 74.8346 12.1896 74.6506 11.6039C74.6181 11.6123 74.5856 11.6217 74.5531 11.6301Z" fill="#344ECB"/>
<path d="M27.7944 0.363467C27.9282 0.349456 28.0341 0.327973 28.1391 0.327973C29.7167 0.327973 31.2952 0.302753 32.8718 0.337313C35.4445 0.393358 37.3518 2.04107 37.834 4.57521C37.8452 4.63593 37.8647 4.69758 37.8638 4.75922C37.8368 6.54518 37.8749 8.33673 37.7541 10.1161C37.6761 11.2707 37.1289 12.2916 36.2425 13.0716C35.9945 13.2901 35.9545 13.4807 36.0437 13.7843C36.7981 16.3576 37.5377 18.9357 38.2809 21.5119C38.3153 21.6296 38.3385 21.75 38.3748 21.8995H34.5683C34.1791 20.4087 33.7907 18.9133 33.3986 17.4178C32.935 15.6477 32.4798 13.8767 31.9976 12.1123C31.9075 11.7825 31.9632 11.663 32.2884 11.5481C33.5055 11.1193 34.1614 10.2058 34.1846 8.91025C34.206 7.75947 34.1986 6.60776 34.1865 5.45698C34.1781 4.68917 33.7266 4.1362 32.9796 4.04185C32.4974 3.98114 32.0013 4.03065 31.468 4.03065V21.8939H27.7944V0.363467Z" fill="#344ECB"/>
<path d="M59.7937 0.327772V0.934921C59.7937 6.24047 59.7956 11.5469 59.7909 16.8525C59.7909 17.3896 59.8866 17.8762 60.3205 18.234C60.7209 18.5628 61.1706 18.6777 61.6593 18.4619C62.1313 18.2536 62.4221 17.8884 62.4852 17.3662C62.5094 17.1663 62.501 16.9627 62.501 16.76C62.501 11.4694 62.5075 6.17882 62.4918 0.889151C62.4908 0.428652 62.6311 0.306288 63.0696 0.318431C64.1186 0.346454 65.1694 0.327772 66.2805 0.327772C66.2805 0.533269 66.2805 0.6986 66.2805 0.863931C66.2805 6.24794 66.2824 11.631 66.2805 17.015C66.2796 19.6211 64.6212 21.7293 62.0607 22.1552C58.5088 22.7456 56.0886 20.0452 56.0774 17.3401C56.056 11.816 56.07 6.29277 56.069 0.768655C56.069 0.548214 56.0347 0.324036 56.3766 0.326838C57.4896 0.335245 58.6026 0.32964 59.7946 0.32964L59.7937 0.327772Z" fill="#344ECB"/>
<path d="M23.0162 11.151C23.0162 13.1107 23.0172 15.0703 23.0162 17.0291C23.0144 19.6128 21.3764 21.7172 18.8475 22.1525C15.3532 22.754 12.9265 20.0452 12.9069 17.4102C12.8763 13.2424 12.8791 9.07452 12.9051 4.90668C12.9218 2.295 15.0596 0.182125 17.7837 0.00838666C20.2262 -0.147604 22.5601 1.77192 22.9308 4.25282C22.9837 4.60404 23.0107 4.96272 23.0125 5.3186C23.02 7.26241 23.0162 9.20622 23.0162 11.15V11.151ZM19.3213 11.1407C19.3213 9.19595 19.3232 7.2512 19.3185 5.30646C19.3185 5.09162 19.312 4.86558 19.247 4.66475C19.0351 4.01744 18.3597 3.61672 17.7159 3.72694C17.0311 3.8437 16.5387 4.42096 16.5369 5.18783C16.5276 9.1399 16.5276 13.091 16.5369 17.0431C16.5387 17.9221 17.1668 18.5722 17.9565 18.5675C18.5799 18.5638 19.3529 18.0519 19.3334 17.0207C19.2962 15.061 19.3222 13.1004 19.3222 11.1398L19.3213 11.1407Z" fill="#344ECB"/>
<path d="M90.3316 12.6687V18.2582H95.4982V21.8955H86.7063V0.362305H95.4972V3.97437H90.3381V9.00157H93.6446V12.6687H90.3325H90.3316Z" fill="#344ECB"/>
<path d="M7.47551 9.01842V12.6566H4.11132V21.8844H0.5V0.363281H9.32623V3.9576H4.0946C4.0946 4.16403 4.0946 4.31255 4.0946 4.462C4.0946 5.81548 4.10668 7.16895 4.08624 8.52149C4.08066 8.89979 4.17543 9.03804 4.57307 9.02683C5.52724 8.99974 6.48326 9.01842 7.47458 9.01842H7.47551Z" fill="#344ECB"/>
<path d="M48.7488 21.9087H45.1375V4.01186H41.9146V0.365234H51.9365V3.9689H48.7498V21.9087H48.7488Z" fill="#344ECB"/>
</g>
<defs>
<clipPath id="clip0_1_6791">
<rect width="95" height="90" fill="white" transform="translate(0.5)"/>
</clipPath>
</defs>
</svg>
