<?xml version="1.0" encoding="UTF-8"?><svg id="Layer_2" xmlns="http://www.w3.org/2000/svg" viewBox="0 0 565.14 536.37"><defs><style>.cls-1{fill:#fff;}</style></defs><g id="Layer_1-2"><g><path class="cls-1" d="M353.64,536.37H211.5c-24.55,0-44.53-19.97-44.53-44.53v-122.45H44.53c-24.55,0-44.53-19.97-44.53-44.53v-40.83c0-4.73,3.83-8.56,8.56-8.56H92.69c4.73,0,8.56,3.83,8.56,8.56s-3.83,8.56-8.56,8.56H17.13v32.26c0,15.11,12.29,27.4,27.4,27.4H175.53c4.73,0,8.56,3.83,8.56,8.56v131.01c0,15.11,12.29,27.4,27.4,27.4h142.14c15.11,0,27.4-12.29,27.4-27.4v-131.01c0-4.73,3.83-8.56,8.56-8.56h131.01c15.11,0,27.4-12.29,27.4-27.4v-32.26h-86.23c-4.73,0-8.56-3.83-8.56-8.56s3.83-8.56,8.56-8.56h94.79c4.73,0,8.56,3.83,8.56,8.56v40.83c0,24.55-19.97,44.53-44.53,44.53h-122.45v122.45c0,24.55-19.97,44.53-44.53,44.53Z"/><path class="cls-1" d="M556.57,260.89c-4.73,0-8.56-3.83-8.56-8.56v-40.83c0-15.11-12.29-27.4-27.4-27.4h-131.01c-4.73,0-8.56-3.83-8.56-8.56V44.53c0-15.11-12.29-27.4-27.4-27.4H211.5c-15.11,0-27.4,12.29-27.4,27.4V175.53c0,4.73-3.83,8.56-8.56,8.56H44.53c-15.11,0-27.4,12.29-27.4,27.4v40.83c0,4.73-3.83,8.56-8.56,8.56s-8.56-3.83-8.56-8.56v-40.83c0-24.55,19.97-44.53,44.53-44.53h122.45V44.53c0-24.55,19.97-44.53,44.53-44.53h142.14c24.55,0,44.53,19.97,44.53,44.53v122.45h122.45c24.55,0,44.53,19.97,44.53,44.53v40.83c0,4.73-3.83,8.56-8.56,8.56Z"/><path class="cls-1" d="M308.87,442.17c-.22,0-.44,0-.66-.03-3.92-.3-7.13-3.24-7.79-7.12l-44.94-267.3-39.69,117.5c-1.18,3.48-4.44,5.82-8.11,5.82h-51.26c-4.73,0-8.56-3.83-8.56-8.56s3.83-8.56,8.56-8.56h45.12l48.63-143.96c1.26-3.72,4.89-6.11,8.79-5.8,3.91,.31,7.11,3.24,7.76,7.12l44.88,266.92,39.07-117.74c1.16-3.5,4.44-5.87,8.13-5.87h49.93c4.73,0,8.56,3.83,8.56,8.56s-3.83,8.56-8.56,8.56h-43.75l-47.98,144.59c-1.17,3.52-4.46,5.87-8.12,5.87Z"/></g></g></svg>