<svg width="24" height="24" viewBox="0 0 24 24" fill="none" xmlns="http://www.w3.org/2000/svg">
<g clip-path="url(#clip0_719_10)">
<path d="M10.781 10.513C9.66842 9.53127 8.23377 8.99279 6.75 9C5.2805 8.98848 3.85788 9.51666 2.75194 10.4844C1.64599 11.4521 0.933647 12.792 0.75 14.25" stroke="white" stroke-width="1.5" stroke-linecap="round" stroke-linejoin="round"/>
<path d="M3.375 4.125C3.375 5.02011 3.73058 5.87855 4.36351 6.51149C4.99645 7.14442 5.85489 7.5 6.75 7.5C7.64511 7.5 8.50355 7.14442 9.13649 6.51149C9.76942 5.87855 10.125 5.02011 10.125 4.125C10.125 3.22989 9.76942 2.37145 9.13649 1.73851C8.50355 1.10558 7.64511 0.75 6.75 0.75C5.85489 0.75 4.99645 1.10558 4.36351 1.73851C3.73058 2.37145 3.375 3.22989 3.375 4.125Z" stroke="white" stroke-width="1.5" stroke-linecap="round" stroke-linejoin="round"/>
<path d="M13.875 3.375C13.875 4.07119 14.1516 4.73887 14.6438 5.23116C15.1361 5.72344 15.8038 6 16.5 6C17.1962 6 17.8639 5.72344 18.3562 5.23116C18.8484 4.73887 19.125 4.07119 19.125 3.375C19.125 2.67881 18.8484 2.01113 18.3562 1.51884C17.8639 1.02656 17.1962 0.75 16.5 0.75C15.8038 0.75 15.1361 1.02656 14.6438 1.51884C14.1516 2.01113 13.875 2.67881 13.875 3.375Z" stroke="white" stroke-width="1.5" stroke-linecap="round" stroke-linejoin="round"/>
<path d="M20.4 9C20.0419 8.38048 19.5413 7.85528 18.9396 7.46797C18.338 7.08066 17.6526 6.84242 16.9404 6.773C16.2283 6.70358 15.5098 6.80499 14.8447 7.06882C14.1795 7.33265 13.5869 7.75129 13.116 8.29" stroke="white" stroke-width="1.5" stroke-linecap="round" stroke-linejoin="round"/>
<path d="M19.5 15.75H23.25V11.25" stroke="white" stroke-width="1.5" stroke-linecap="round" stroke-linejoin="round"/>
<path d="M23.0611 15.75C22.7237 14.4409 21.9541 13.2841 20.877 12.4671C19.7999 11.6501 18.4784 11.2208 17.1268 11.2488C15.7752 11.2767 14.4727 11.7603 13.4303 12.6212C12.3879 13.4821 11.6668 14.6697 11.3839 15.9917C11.1009 17.3136 11.2727 18.6924 11.8714 19.9045C12.4701 21.1166 13.4605 22.091 14.6823 22.6698C15.904 23.2486 17.2854 23.3978 18.6025 23.0933C19.9197 22.7887 21.0954 22.0483 21.9391 20.992" stroke="white" stroke-width="1.5" stroke-linecap="round" stroke-linejoin="round"/>
</g>
<defs>
<clipPath id="clip0_719_10">
<rect width="24" height="24" fill="white"/>
</clipPath>
</defs>
</svg>
