<svg width="24" height="24" viewBox="0 0 24 24" fill="none" xmlns="http://www.w3.org/2000/svg">
<g clip-path="url(#clip0_719_28)">
<path d="M5.32989 17.848C3.59355 16.2673 2.50079 14.102 2.26056 11.7663C2.02033 9.43052 2.64949 7.08817 4.02774 5.18714C5.40599 3.2861 7.4366 1.9598 9.73127 1.46184C12.0259 0.96389 14.4237 1.32923 16.4659 2.488" stroke="white" stroke-width="1.5" stroke-linecap="round" stroke-linejoin="round"/>
<path d="M1.982 17.78C0.769004 19.905 0.363004 21.554 1.048 22.24C2.088 23.279 5.342 21.81 9.11 18.822" stroke="white" stroke-width="1.5" stroke-linecap="round" stroke-linejoin="round"/>
<path d="M13.423 18.067L9.84302 14.487L17.8 6.53001C18.4491 5.88128 19.2625 5.42151 20.153 5.20001L22.2 4.68601C22.3413 4.65081 22.4893 4.65277 22.6297 4.6917C22.77 4.73063 22.8979 4.80521 23.0008 4.90818C23.1038 5.01116 23.1784 5.13903 23.2173 5.27936C23.2563 5.41969 23.2582 5.5677 23.223 5.70901L22.711 7.75701C22.4886 8.64731 22.0281 9.46033 21.379 10.109L13.423 18.067Z" stroke="white" stroke-width="1.5" stroke-linecap="round" stroke-linejoin="round"/>
<path d="M9.84312 14.487L6.91112 13.51C6.84263 13.4873 6.78109 13.4475 6.73237 13.3943C6.68366 13.3411 6.64939 13.2763 6.63284 13.2061C6.61629 13.1359 6.61801 13.0626 6.63784 12.9933C6.65768 12.9239 6.69495 12.8608 6.74612 12.81L7.76812 11.788C8.2124 11.3438 8.7716 11.032 9.38307 10.8877C9.99454 10.7434 10.6341 10.7723 11.2301 10.971L12.8301 11.503L9.84312 14.487Z" stroke="white" stroke-width="1.5" stroke-linecap="round" stroke-linejoin="round"/>
<path d="M13.4231 18.067L14.4001 21C14.4227 21.0685 14.4626 21.13 14.5158 21.1787C14.5689 21.2275 14.6337 21.2617 14.7039 21.2783C14.7742 21.2948 14.8474 21.2931 14.9168 21.2733C14.9861 21.2534 15.0493 21.2162 15.1001 21.165L16.1221 20.143C16.5663 19.6987 16.878 19.1395 17.0223 18.528C17.1666 17.9166 17.1378 17.277 16.9391 16.681L16.4071 15.081L13.4231 18.067Z" stroke="white" stroke-width="1.5" stroke-linecap="round" stroke-linejoin="round"/>
</g>
<defs>
<clipPath id="clip0_719_28">
<rect width="24" height="24" fill="white"/>
</clipPath>
</defs>
</svg>
