<svg width="539" height="524" viewBox="0 0 539 524" fill="none" xmlns="http://www.w3.org/2000/svg">
<g opacity="0.1">
<path d="M149.898 294.799C150.787 299.626 151.168 304.833 151.549 309.914C151.93 316.01 152.438 322.234 153.836 327.95C155.741 335.698 163.489 341.286 170.347 346.24C171.618 347.129 172.761 348.018 173.904 348.907C178.222 352.209 182.541 355.766 187.113 359.449C199.688 369.864 212.77 380.533 226.614 386.122C234.743 389.424 243.38 391.076 252.398 391.076C267.259 391.076 282.246 386.376 294.313 377.739C300.663 373.167 307.141 371.007 313.365 368.848C321.367 366.054 328.988 363.387 336.227 356.274C345.626 346.875 351.85 334.046 357.82 321.599C360.868 315.248 363.789 309.152 367.092 303.563C369.759 299.118 372.426 294.926 375.094 290.735C383.222 278.287 390.843 266.475 394.908 250.98C398.972 235.611 389.192 220.75 380.555 207.668C377.761 203.476 375.221 199.539 373.061 195.602C360.995 173.628 343.213 159.403 325.685 157.624C315.778 156.608 305.363 155.846 292.662 155.465C283.136 155.084 277.42 152.544 270.307 149.242C268.529 148.479 266.624 147.59 264.592 146.701C260.908 145.177 256.971 144.415 252.398 144.415C247.318 144.415 242.237 145.304 237.284 146.193C236.013 146.447 234.616 146.701 233.346 146.828C229.917 147.336 226.487 147.844 223.058 148.225C215.564 149.115 207.816 150.004 200.323 152.671C176.698 161.054 159.551 185.821 154.725 193.188L154.217 194.077C143.421 211.097 134.021 225.704 134.021 246.28C134.021 258.854 137.959 266.348 142.023 274.223C145.072 279.939 148.247 286.035 149.898 294.799ZM155.233 194.585L155.741 193.696C160.44 186.457 177.46 161.943 200.577 153.687C207.943 151.02 215.691 150.131 223.058 149.369C226.487 148.988 229.917 148.606 233.346 147.971C234.616 147.717 236.013 147.59 237.284 147.336C242.237 146.447 247.318 145.558 252.144 145.558C256.59 145.558 260.4 146.32 263.957 147.717C265.989 148.606 267.894 149.496 269.545 150.258C276.785 153.56 282.501 156.227 292.281 156.608C304.855 157.116 315.27 157.751 325.177 158.768C342.324 160.546 359.725 174.517 371.537 196.11C373.696 200.047 376.364 204.111 379.158 208.303C388.049 221.766 397.194 235.738 393.383 250.598C389.319 265.84 381.825 277.652 373.823 289.973C371.156 294.164 368.362 298.356 365.694 302.801C362.392 308.39 359.471 314.486 356.422 320.964C350.453 333.284 344.356 346.113 335.084 355.385C328.098 362.243 320.605 364.911 312.73 367.578C306.379 369.737 299.901 372.024 293.297 376.596C281.357 384.979 266.751 389.678 252.017 389.678C243.253 389.678 234.743 388.027 226.741 384.852C213.024 379.39 200.069 368.721 187.621 358.433C183.049 354.623 178.603 351.066 174.412 347.764C173.269 346.875 171.999 345.986 170.728 345.097C164.124 340.27 156.63 334.936 154.725 327.569C153.328 321.98 152.947 315.756 152.438 309.787C152.057 304.706 151.676 299.372 150.787 294.545C149.009 285.654 145.834 279.431 142.658 273.461C138.594 265.713 134.784 258.346 134.784 246.153C135.292 225.831 144.564 211.351 155.233 194.585Z" fill="#C6E6CA"/>
<path d="M135.672 298.1C136.688 303.562 137.069 309.404 137.577 315.12C138.085 321.979 138.594 328.964 140.118 335.315C142.277 344.079 150.914 350.303 158.535 355.764C159.932 356.78 161.329 357.797 162.599 358.686C167.426 362.369 172.252 366.307 177.46 370.625C191.685 382.31 206.292 394.25 221.788 400.6C230.933 404.284 240.713 406.189 250.747 406.189C267.512 406.189 284.278 400.854 297.869 391.328C305.109 386.248 312.348 383.707 319.334 381.294C328.352 378.119 336.989 375.197 344.991 367.196C355.66 356.653 362.519 342.174 369.25 328.202C372.68 320.963 375.982 314.231 379.666 307.88C382.587 302.927 385.762 298.1 388.684 293.528C397.702 279.429 406.338 266.22 410.911 248.819C415.483 231.545 404.433 214.779 394.78 200.046C391.605 195.346 388.684 190.901 386.27 186.455C372.68 161.814 352.739 145.811 333.052 143.779C321.874 142.635 310.189 141.873 295.964 141.365C285.167 140.984 278.817 138.063 270.815 134.379C268.783 133.49 266.75 132.474 264.464 131.585C260.4 129.807 255.827 129.045 250.747 129.045C245.158 129.045 239.315 130.061 233.727 131.077C232.203 131.331 230.805 131.585 229.281 131.839C225.471 132.474 221.534 132.855 217.723 133.363C209.34 134.379 200.576 135.269 192.066 138.317C165.647 147.716 146.214 175.532 140.88 183.788L140.245 184.804C128.051 203.856 117.509 220.368 117.509 243.484C117.509 257.583 121.828 265.966 126.527 274.857C130.211 281.461 133.767 288.32 135.672 298.1ZM141.515 185.439L142.15 184.423C147.358 176.167 166.537 148.732 192.701 139.46C201.084 136.539 209.721 135.523 218.104 134.507C221.915 134.125 225.852 133.617 229.662 132.982C231.187 132.728 232.584 132.474 234.108 132.22C239.696 131.204 245.412 130.188 250.874 130.188C255.827 130.188 260.146 130.95 264.083 132.728C266.369 133.744 268.402 134.634 270.434 135.523C278.563 139.206 285.04 142.254 296.091 142.635C310.189 143.143 322.001 143.906 333.052 145.049C352.358 147.081 371.918 162.831 385.254 187.09C387.667 191.536 390.716 195.981 393.764 200.808C403.798 216.049 414.086 231.799 409.768 248.438C405.195 265.712 396.685 278.794 387.667 292.766C384.619 297.465 381.571 302.165 378.649 307.245C374.966 313.596 371.664 320.328 368.107 327.567C361.503 341.539 354.517 355.891 344.102 366.306C336.227 374.054 327.844 376.976 318.953 380.024C311.84 382.437 304.473 384.978 297.107 390.185C283.643 399.711 267.131 404.919 250.747 404.919C240.84 404.919 231.187 403.14 222.296 399.457C206.927 393.233 192.32 381.294 178.222 369.736C173.014 365.417 168.188 361.48 163.361 357.797C162.091 356.78 160.694 355.764 159.297 354.748C151.803 349.414 143.42 343.317 141.261 335.061C139.737 328.837 139.229 321.852 138.721 314.993C138.34 309.277 137.958 303.308 136.815 297.846C134.91 287.939 131.227 280.953 127.797 274.095C123.225 265.331 118.906 257.075 118.906 243.23C119.033 220.622 129.449 204.237 141.515 185.439Z" fill="#C6E6CA"/>
<path d="M184.827 254.155C184.827 261.522 186.224 266.983 188.51 274.35L189.272 276.763C190.923 282.098 192.32 287.178 194.734 292.386C195.877 294.799 196.512 297.339 197.147 299.88C198.036 303.563 199.052 307.5 201.719 310.93C212.516 325.536 224.328 334.046 239.061 337.857C243.761 339 248.841 339.635 254.303 339.635C261.924 339.635 270.307 338.492 280.214 336.079C281.23 335.825 282.246 335.57 283.262 335.316C291.772 333.284 300.663 331.252 307.395 324.774C309.808 322.488 311.205 319.821 312.729 317.026C313.364 315.756 314.127 314.486 314.889 313.216C316.159 311.311 317.556 309.406 318.953 307.755C320.35 305.976 321.874 304.071 323.144 302.166C324.161 300.642 324.796 298.864 325.431 297.212C326.066 295.688 326.574 294.164 327.463 292.767C328.479 290.989 330.257 289.465 331.908 287.94C332.925 287.051 333.941 286.035 334.83 285.146C338.386 281.082 340.418 276.255 342.451 271.556C343.086 269.904 343.848 268.253 344.61 266.602C351.215 252.377 350.452 238.786 342.578 227.355C341.053 225.196 339.021 223.036 337.243 221.131C335.211 218.972 333.179 216.94 331.908 214.78C331.146 213.637 330.511 212.494 330.003 211.351C327.717 207.287 325.812 203.857 320.223 201.317C314.381 198.65 308.665 197.253 301.171 196.872C293.423 196.49 289.486 195.474 283.008 192.426C276.912 189.505 270.815 187.981 263.575 186.583C260.527 185.948 258.24 185.694 256.208 185.694C252.271 185.694 248.968 186.837 244.65 188.616C240.967 190.14 236.775 190.521 232.711 190.902C230.17 191.156 227.63 191.41 225.217 191.918C218.866 193.188 212.262 194.839 205.784 199.031C196.639 204.873 193.464 215.416 190.923 223.798C190.034 226.466 188.891 229.133 187.748 231.546C186.986 233.197 186.351 234.722 185.716 236.246C184.192 240.183 184.573 244.629 184.827 248.82C184.7 250.852 184.827 252.504 184.827 254.155ZM186.605 236.881C187.24 235.357 187.875 233.833 188.637 232.181C189.78 229.641 191.05 227.101 191.939 224.179C195.115 213.764 198.163 205.381 206.292 200.174C212.643 196.109 218.866 194.585 225.344 193.188C227.757 192.68 230.297 192.426 232.711 192.172C236.902 191.791 241.094 191.41 245.031 189.759C249.35 187.854 252.398 186.964 256.081 186.964C257.986 186.964 260.146 187.218 263.194 187.854C270.307 189.251 276.276 190.775 282.246 193.569C288.978 196.745 292.915 197.761 300.917 198.142C308.284 198.523 313.745 199.793 319.461 202.46C324.669 204.873 326.447 208.049 328.606 211.986C329.241 213.129 329.876 214.145 330.638 215.416C332.035 217.702 334.068 219.734 336.1 221.893C338.005 223.798 339.91 225.831 341.307 227.99C349.055 239.04 349.69 252.122 343.34 265.967C342.578 267.618 341.815 269.269 341.18 270.921C339.275 275.493 337.243 280.32 333.814 284.257C332.925 285.146 332.035 286.035 331.019 287.051C329.368 288.575 327.59 290.227 326.32 292.132C325.431 293.656 324.796 295.307 324.161 296.831C323.526 298.482 322.89 300.134 322.001 301.531C320.731 303.436 319.334 305.214 317.937 306.992C316.54 308.771 315.016 310.676 313.745 312.581C312.983 313.851 312.221 315.121 311.586 316.391C310.062 319.059 308.665 321.726 306.506 323.758C300.028 329.982 291.264 332.014 282.881 333.919C281.865 334.173 280.849 334.427 279.833 334.681C270.053 337.095 261.67 338.238 254.176 338.238C248.841 338.238 243.761 337.603 239.315 336.46C224.963 332.776 213.278 324.393 202.736 310.041C200.322 306.738 199.433 303.182 198.417 299.372C197.782 296.831 197.147 294.291 196.004 291.751C193.591 286.543 192.193 281.59 190.542 276.255L189.78 273.842C187.621 266.475 186.097 261.14 186.097 254.028C186.097 252.377 185.97 250.725 185.843 248.947C185.462 244.883 185.208 240.564 186.605 236.881Z" fill="#C6E6CA"/>
<path d="M202.99 256.06C202.99 261.776 204.133 266.095 205.911 271.81L206.419 273.715C207.689 277.907 208.832 281.844 210.737 285.909C211.627 287.814 212.135 289.719 212.516 291.624C213.278 294.546 214.04 297.594 216.072 300.261C224.455 311.565 233.727 318.297 245.158 321.218C248.842 322.108 252.779 322.616 256.97 322.616C262.813 322.616 269.418 321.727 277.166 319.821C277.928 319.694 278.69 319.44 279.452 319.313C286.057 317.789 293.042 316.138 298.25 311.057C300.155 309.279 301.298 307.12 302.441 304.961C302.949 303.945 303.457 303.056 304.093 302.039C304.982 300.515 306.125 299.118 307.268 297.721C308.411 296.324 309.554 294.927 310.57 293.402C311.332 292.132 311.84 290.862 312.348 289.592C312.856 288.322 313.237 287.179 313.873 286.163C314.635 284.766 316.032 283.622 317.302 282.479C318.064 281.717 318.826 281.082 319.588 280.32C322.382 277.145 323.907 273.334 325.431 269.651C325.939 268.381 326.447 267.111 327.082 265.841C332.29 254.79 331.654 244.121 325.431 235.23C324.161 233.452 322.764 231.928 321.239 230.404C319.588 228.753 318.191 227.101 317.175 225.577C316.667 224.688 316.159 223.799 315.651 222.91C313.873 219.735 312.348 217.067 308.03 215.035C303.457 212.876 299.012 211.86 293.169 211.606C287.2 211.352 284.151 210.59 279.071 208.176C274.244 205.89 269.545 204.747 263.956 203.604C261.543 203.096 259.892 202.969 258.241 202.969C255.192 202.969 252.652 203.858 249.223 205.255C246.428 206.525 243.126 206.779 240.078 207.033C238.172 207.16 236.14 207.414 234.235 207.795C229.281 208.811 224.074 210.082 219.12 213.384C212.008 217.956 209.467 226.085 207.562 232.69C206.927 234.849 206.038 236.754 205.149 238.66C204.514 239.93 204.006 241.073 203.498 242.343C202.228 245.391 202.609 248.821 202.863 252.25C202.863 253.52 202.99 254.79 202.99 256.06ZM204.641 242.724C205.149 241.581 205.657 240.311 206.165 239.168C207.054 237.262 208.07 235.23 208.705 232.944C211.119 224.942 213.532 218.464 219.755 214.4C224.582 211.225 229.536 210.082 234.489 209.065C236.394 208.684 238.299 208.557 240.205 208.303C243.38 208.049 246.809 207.668 249.731 206.398C253.033 205.001 255.319 204.239 258.241 204.239C259.765 204.239 261.416 204.493 263.702 204.874C269.164 206.017 273.863 207.16 278.436 209.319C283.643 211.733 286.819 212.495 292.915 212.876C298.504 213.13 302.822 214.146 307.268 216.178C311.332 218.083 312.602 220.497 314.381 223.545C314.889 224.434 315.397 225.323 315.905 226.212C317.048 227.99 318.572 229.642 320.223 231.293C321.62 232.817 323.145 234.341 324.288 235.992C331.782 246.788 329.241 257.839 325.812 265.332C325.177 266.603 324.669 267.873 324.161 269.143C322.637 272.699 321.112 276.383 318.445 279.431C317.81 280.193 317.048 280.828 316.286 281.59C315.016 282.86 313.619 284.13 312.602 285.528C311.84 286.671 311.459 287.941 310.951 289.211C310.443 290.481 309.935 291.751 309.3 292.894C308.411 294.419 307.268 295.816 306.125 297.213C304.982 298.61 303.839 300.007 302.822 301.658C302.187 302.674 301.679 303.691 301.044 304.58C299.901 306.739 298.758 308.644 297.107 310.295C292.026 315.122 285.295 316.646 278.817 318.17C278.055 318.297 277.293 318.551 276.531 318.678C268.91 320.456 262.432 321.345 256.589 321.345C252.398 321.345 248.588 320.837 245.031 319.948C233.981 317.027 224.963 310.549 216.707 299.499C214.802 296.959 214.167 294.165 213.405 291.243C212.897 289.338 212.389 287.306 211.5 285.274C209.721 281.336 208.578 277.399 207.308 273.207L206.8 271.302C205.149 265.586 204.006 261.522 204.006 255.933C204.006 254.663 203.879 253.266 203.752 251.996C203.752 248.821 203.498 245.518 204.641 242.724Z" fill="#C6E6CA"/>
<path d="M162.98 295.179C164.123 298.863 164.25 302.419 164.377 305.976C164.504 308.897 164.631 311.945 165.266 315.121C166.282 319.82 169.838 324.266 173.014 328.203C173.649 328.965 174.284 329.727 174.792 330.489C183.937 342.428 193.59 348.144 205.783 355.257L207.181 356.019C228.265 368.339 245.158 373.928 261.796 373.928C271.068 373.928 280.086 372.277 289.485 368.72C316.158 358.94 336.099 340.65 347.023 315.883C352.865 302.8 358.327 292.385 364.169 282.859C365.313 280.954 366.583 279.176 367.726 277.27C373.441 268.506 379.284 259.489 380.808 249.2C384.238 226.719 369.504 210.588 355.278 194.966C352.865 192.298 350.325 189.504 348.039 186.837C347.277 185.948 346.642 185.058 345.879 184.296C343.212 180.994 340.799 178.073 336.607 176.295C333.813 175.024 330.638 174.643 327.59 174.262C324.922 173.881 322.128 173.5 319.461 172.611C317.301 171.849 315.396 170.706 313.364 169.436C311.078 168.039 308.664 166.514 305.87 165.752C302.06 164.609 297.868 164.482 293.931 164.355C291.264 164.228 288.469 164.228 285.802 163.72C280.721 162.958 275.641 161.815 270.687 160.672C263.067 158.894 255.065 157.115 247.317 156.734C239.061 156.353 230.551 158.513 222.422 160.672C218.866 161.561 215.436 162.45 212.007 163.212C193.844 166.769 179.365 177.311 167.806 195.474C166.155 198.141 164.123 200.681 162.091 203.094C158.407 207.667 154.724 212.493 152.819 217.955C149.643 227.227 150.405 237.769 151.422 247.676C153.454 264.188 157.645 278.287 162.98 295.179ZM154.47 218.209C156.248 212.874 159.931 208.175 163.488 203.73C165.52 201.189 167.552 198.649 169.203 195.982C180.762 177.946 194.479 167.785 212.515 164.228C215.944 163.593 219.374 162.704 222.93 161.688C230.424 159.783 238.045 157.751 245.539 157.751C246.174 157.751 246.809 157.751 247.444 157.751C255.192 158.132 263.067 159.91 270.687 161.688C275.641 162.831 280.848 163.974 285.802 164.736C288.469 165.117 291.391 165.244 294.058 165.371C297.995 165.498 302.06 165.625 305.743 166.642C308.41 167.404 310.697 168.801 312.983 170.198C315.015 171.468 317.047 172.738 319.334 173.5C322.001 174.516 324.922 174.897 327.717 175.278C330.765 175.659 333.686 176.168 336.353 177.311C340.291 179.089 342.577 181.756 345.117 185.058C345.752 185.948 346.515 186.71 347.277 187.599C349.69 190.393 352.103 193.06 354.643 195.728C368.615 211.096 383.094 226.973 379.792 248.819C378.268 258.853 372.425 267.744 366.837 276.381C365.567 278.287 364.423 280.192 363.28 281.97C357.311 291.496 351.849 302.038 346.006 315.121C335.083 339.507 315.396 357.543 289.104 367.196C279.832 370.626 270.941 372.277 261.796 372.277C245.412 372.277 228.773 366.815 207.816 354.622L206.418 353.86C193.844 346.493 184.826 341.285 175.808 329.473C175.3 328.711 174.665 327.949 174.03 327.187C170.982 323.376 167.552 318.931 166.536 314.612C165.901 311.691 165.774 308.643 165.647 305.722C165.52 302.165 165.393 298.482 164.123 294.671C158.788 277.905 154.597 263.807 152.946 247.295C152.057 237.515 151.295 227.227 154.47 218.209Z" fill="#C6E6CA"/>
<path d="M265.861 264.189C265.988 264.57 265.988 264.824 265.988 265.332C265.988 266.221 265.988 267.237 266.75 267.999C267.385 268.634 268.147 269.015 269.036 269.015C270.815 269.015 272.339 267.745 272.974 266.475C273.736 265.205 273.99 263.935 273.609 262.919C273.228 261.903 272.339 261.013 271.069 260.378C270.307 259.997 268.528 259.362 267.004 259.362C265.607 259.362 264.972 259.997 264.718 260.632C264.337 261.395 264.845 262.284 265.353 263.173C265.607 263.554 265.861 263.935 265.861 264.189ZM267.004 260.632C268.274 260.632 270.053 261.395 270.561 261.649C271.323 261.903 272.212 262.538 272.466 263.427C272.72 264.189 272.466 265.078 271.958 265.967C271.323 266.983 270.053 267.872 269.036 267.872C268.528 267.872 268.02 267.618 267.639 267.237C267.131 266.729 267.131 266.094 267.131 265.332C267.131 264.951 267.131 264.443 267.004 264.062C266.877 263.554 266.623 263.046 266.369 262.538C266.115 262.157 265.734 261.395 265.861 261.14C265.988 261.013 266.115 260.632 267.004 260.632Z" fill="#C6E6CA"/>
<path d="M254.557 262.031C255.065 262.412 255.573 262.793 256.081 263.174C258.876 265.46 259.765 267.746 260.781 271.303C261.416 273.589 264.21 281.083 269.672 281.083C271.704 281.083 273.863 279.94 276.149 277.781C279.96 273.97 287.581 260.507 284.913 254.029C283.77 251.362 281.103 250.219 276.912 250.854C276.022 250.981 275.133 250.981 274.244 250.981C271.577 250.981 269.164 250.473 266.623 249.838C264.464 249.329 262.305 248.821 259.892 248.567C259.511 248.567 259.003 248.567 258.495 248.567C254.684 248.567 249.985 249.583 248.715 252.251C246.809 256.315 251.509 259.745 254.557 262.031ZM249.731 252.886C250.62 250.854 254.811 249.965 258.368 249.965C258.876 249.965 259.257 249.965 259.638 249.965C262.051 250.219 264.21 250.727 266.242 251.108C268.91 251.743 271.323 252.251 274.117 252.251C275.133 252.251 276.022 252.124 277.039 251.997C280.595 251.489 282.754 252.251 283.643 254.41C285.93 260.126 278.817 272.954 275.133 276.764C273.228 278.67 271.323 279.686 269.545 279.686C265.861 279.686 263.194 275.113 261.797 270.922C260.654 267.111 259.765 264.698 256.716 262.158C256.335 261.777 255.7 261.396 255.192 261.015C252.398 258.855 248.46 255.934 249.731 252.886Z" fill="#C6E6CA"/>
<path d="M176.19 291.242C177.206 294.418 177.333 297.593 177.46 300.514C177.587 303.055 177.587 305.722 178.222 308.389C179.111 312.454 182.286 316.391 184.954 319.82C185.462 320.455 185.97 321.217 186.478 321.853C194.48 332.268 202.863 337.221 213.532 343.445L214.802 344.207C233.219 355.003 247.952 359.83 262.432 359.83C270.434 359.83 278.436 358.305 286.565 355.384C309.808 346.874 327.082 330.871 336.735 309.405C341.815 298.101 346.515 288.956 351.723 280.7C352.739 279.049 353.755 277.398 354.898 275.874C359.851 268.253 364.932 260.378 366.329 251.36C369.25 231.8 356.422 217.701 344.102 204.111C341.943 201.825 339.783 199.411 337.751 196.998C337.116 196.236 336.481 195.474 335.846 194.839C333.433 191.918 331.4 189.377 327.717 187.853C325.304 186.837 322.509 186.456 319.842 186.075C317.556 185.694 315.016 185.44 312.856 184.551C310.951 183.916 309.3 182.9 307.522 181.756C305.49 180.486 303.33 179.216 300.917 178.454C297.615 177.438 293.931 177.311 290.502 177.311C288.089 177.184 285.675 177.184 283.389 176.803C279.071 176.168 274.625 175.152 270.307 174.136C263.575 172.611 256.716 171.087 249.858 170.706C242.618 170.325 235.251 172.23 228.138 174.136C224.963 174.898 222.042 175.66 219.12 176.295C203.244 179.47 190.669 188.615 180.635 204.492C179.238 206.778 177.46 209.064 175.682 211.224C172.506 215.288 169.204 219.352 167.553 224.179C164.758 232.181 165.394 241.453 166.283 250.09C167.934 264.315 171.617 276.636 176.19 291.242ZM168.95 224.306C170.474 219.734 173.776 215.669 176.825 211.732C178.603 209.572 180.381 207.286 181.778 205C191.812 189.25 203.752 180.486 219.501 177.438C222.423 176.803 225.471 176.041 228.646 175.279C235.124 173.628 241.856 171.849 248.333 171.849C248.969 171.849 249.477 171.849 249.985 171.849C256.716 172.23 263.575 173.755 270.18 175.279C274.498 176.295 278.944 177.311 283.389 177.946C285.675 178.327 288.216 178.327 290.629 178.454C294.058 178.581 297.615 178.708 300.79 179.597C303.076 180.232 305.109 181.502 307.014 182.773C308.792 183.789 310.57 184.932 312.602 185.694C315.016 186.583 317.429 186.964 319.842 187.218C322.509 187.599 325.05 187.98 327.336 188.996C330.765 190.52 332.671 192.934 334.957 195.728C335.592 196.49 336.227 197.252 336.862 198.014C338.894 200.427 341.18 202.841 343.213 205.127C355.406 218.463 367.98 232.308 365.186 251.36C363.916 260.124 358.835 267.872 354.009 275.366C352.993 277.017 351.85 278.668 350.833 280.319C345.626 288.575 340.926 297.72 335.846 309.151C326.32 330.362 309.3 346.112 286.438 354.495C278.309 357.416 270.561 358.941 262.686 358.941C248.46 358.941 233.981 354.241 215.691 343.572L214.421 342.81C203.498 336.459 195.623 331.887 187.748 321.599C187.24 320.963 186.732 320.328 186.224 319.566C183.556 316.264 180.508 312.454 179.746 308.643C179.111 306.103 179.111 303.436 178.984 300.895C178.857 297.72 178.73 294.545 177.714 291.242C173.141 276.636 169.458 264.442 168.061 250.09C166.918 241.072 166.283 232.054 168.95 224.306Z" fill="#C6E6CA"/>
<path d="M228.9 283.622C231.187 288.321 233.473 293.148 236.902 297.466C242.491 304.579 252.398 308.644 264.083 308.644C266.37 308.644 268.783 308.517 271.069 308.136C286.692 305.976 300.409 295.053 304.474 281.717C304.982 280.193 305.363 278.541 305.617 277.017C306.252 274.096 307.014 270.921 308.538 268.126C309.046 267.11 309.681 265.967 310.316 264.951C312.348 261.395 314.381 257.711 315.27 253.774C317.81 241.199 311.84 230.657 299.647 226.212C296.98 225.323 294.186 224.815 290.375 224.815C288.851 224.815 287.2 224.942 285.803 224.942C284.278 224.942 282.754 225.069 281.23 225.069C278.69 225.069 275.26 224.942 272.085 223.544C266.751 221.385 261.67 220.369 256.462 220.369C252.652 220.369 248.588 221.004 244.269 222.147C240.332 223.163 236.14 224.561 231.822 227.736C228.9 229.895 226.741 231.927 225.217 234.214C223.693 236.5 222.296 243.359 221.153 248.82C220.645 251.36 220.137 253.52 219.883 254.917C217.977 261.649 218.866 266.602 222.931 272.445C225.09 275.874 226.995 279.812 228.9 283.622ZM220.899 255.044C221.28 253.647 221.788 251.487 222.296 248.947C223.312 243.867 224.709 236.881 226.106 234.849C227.503 232.816 229.663 230.784 232.457 228.752C236.521 225.831 240.713 224.434 244.523 223.417C248.842 222.274 252.652 221.639 256.462 221.639C261.543 221.639 266.37 222.655 271.577 224.815C275.006 226.212 278.563 226.339 281.23 226.339C282.754 226.339 284.278 226.212 285.803 226.212C287.327 226.212 288.851 226.085 290.375 226.085C294.059 226.085 296.853 226.466 299.266 227.355C310.951 231.673 316.54 241.453 314 253.52C313.238 257.33 311.205 260.887 309.173 264.316C308.538 265.332 307.903 266.475 307.395 267.491C305.871 270.413 305.109 273.588 304.347 276.636C303.966 278.16 303.585 279.685 303.203 281.209C299.266 293.91 285.676 304.706 270.815 306.738C268.529 307.119 266.243 307.246 263.956 307.246C252.652 307.246 243.126 303.309 237.791 296.577C234.489 292.386 232.203 287.559 229.917 282.987C228.011 279.176 226.106 275.112 223.693 271.429C219.883 266.094 219.12 261.395 220.899 255.044Z" fill="#C6E6CA"/>
<path d="M242.872 272.444C244.65 274.604 246.428 276.763 247.572 279.557L247.826 280.192C249.477 284.003 250.747 286.924 254.176 289.972C257.479 292.767 261.924 294.291 267.259 294.291C274.498 294.291 282.373 291.496 287.327 287.178C294.821 280.7 295.456 271.936 296.091 262.791C296.218 261.013 296.345 259.108 296.472 257.203C297.234 250.09 295.583 244.882 291.518 241.453C288.724 239.04 285.168 238.786 282.119 238.786C281.103 238.786 279.96 238.786 278.944 238.913C277.928 238.913 276.912 239.04 275.896 239.04H275.515C272.974 239.04 270.434 238.659 268.021 238.278C265.48 237.897 262.813 237.516 260.146 237.516C259.13 237.516 258.114 237.516 257.098 237.643C247.063 238.786 236.902 245.263 236.775 257.457C236.775 262.029 237.919 265.967 240.459 269.396C241.348 270.539 242.11 271.555 242.872 272.444ZM257.225 238.913C258.114 238.786 259.13 238.786 260.146 238.786C262.813 238.786 265.226 239.167 267.894 239.548C270.307 239.929 272.847 240.31 275.642 240.31H276.023C277.039 240.31 278.055 240.31 279.198 240.183C280.214 240.183 281.23 240.056 282.373 240.056C285.168 240.056 288.343 240.31 290.883 242.469C294.44 245.517 295.964 250.471 295.329 257.076C295.202 258.981 295.075 260.886 294.948 262.664C294.313 271.555 293.805 280.065 286.692 286.289C281.865 290.48 274.371 293.148 267.513 293.148C262.559 293.148 258.241 291.75 255.192 289.21C252.017 286.416 250.747 283.622 249.223 279.938L248.969 279.303C247.699 276.382 245.92 274.223 244.142 271.936C243.38 271.047 242.618 270.031 241.856 269.015C239.443 265.713 238.3 262.156 238.427 257.838C238.3 246.026 247.826 239.929 257.225 238.913Z" fill="#C6E6CA"/>
<path d="M115.095 311.184C115.222 314.486 115.349 317.916 115.349 321.091C115.731 340.651 116.112 359.195 135.418 371.896C141.133 375.707 147.484 378.628 153.708 381.422C159.169 383.963 164.758 386.503 169.965 389.678C178.602 395.013 185.969 401.109 193.844 407.587C195.114 408.603 196.384 409.746 197.781 410.762C210.356 421.051 230.424 433.371 255.192 433.371C257.605 433.371 260.018 433.244 262.304 432.99C286.183 430.577 304.981 419.018 323.652 406.317C328.986 402.761 334.194 399.585 339.275 396.537C353.119 388.281 366.329 380.66 376.236 365.165C380.427 358.56 382.84 351.701 385.381 344.461C386.905 340.143 388.429 335.697 390.461 331.379C393.509 324.647 397.574 318.042 401.511 311.692C404.433 306.992 407.481 302.039 410.148 297.085C413.197 291.116 416.753 285.781 420.182 280.7C429.2 266.983 437.71 254.028 435.805 234.213C434.154 217.575 425.136 205.635 415.737 193.061C412.434 188.743 409.005 184.17 405.957 179.471C403.289 175.279 400.749 171.088 398.463 167.15C388.937 151.019 380.681 137.048 360.994 129.046C351.341 125.109 340.291 124.601 329.622 124.093C328.478 124.093 327.335 123.966 326.192 123.966C324.668 123.839 323.017 123.839 321.493 123.839C316.92 123.712 312.094 123.712 307.902 122.441C304.981 121.552 302.441 120.028 299.773 118.504C297.36 117.107 294.82 115.71 292.153 114.694C279.578 110.248 269.417 108.216 258.875 108.216C252.651 108.216 246.682 107.708 240.839 107.073C235.123 106.565 229.154 106.057 223.057 106.057C201.338 106.057 183.302 112.534 160.82 128.284C143.928 140.096 132.115 151.019 123.478 162.959C119.922 167.912 117.382 173.12 114.841 178.581C114.206 179.852 113.571 181.249 112.936 182.519C111.285 185.821 109.253 189.124 107.348 192.299C104.553 196.744 101.632 201.444 99.8538 206.524C96.0434 217.067 96.4245 232.435 98.0756 243.231C99.7268 253.774 103.156 263.808 106.459 273.461C110.142 285.273 114.46 297.72 115.095 311.184ZM100.616 206.778C102.394 201.825 105.315 197.252 107.983 192.807C110.015 189.632 112.047 186.329 113.698 182.9C114.333 181.63 114.968 180.233 115.604 178.963C118.144 173.501 120.557 168.42 124.113 163.594C132.623 151.782 144.436 140.858 161.201 129.173C183.556 113.55 201.338 107.2 222.676 107.2C228.646 107.2 234.615 107.708 240.331 108.216C246.174 108.724 252.27 109.359 258.494 109.359C268.782 109.359 278.943 111.391 291.263 115.837C293.804 116.726 296.217 118.123 298.63 119.52C301.298 121.044 304.092 122.695 307.14 123.585C311.459 124.855 316.412 124.982 321.112 125.109C322.636 125.109 324.287 125.109 325.811 125.236C326.954 125.236 328.097 125.363 329.241 125.363C339.783 125.871 350.706 126.252 360.105 130.189C379.284 138.064 387.54 151.909 396.939 167.785C399.352 171.85 401.765 175.914 404.56 180.106C407.608 184.932 411.037 189.378 414.34 193.823C423.739 206.27 432.63 218.083 434.154 234.34C436.059 253.774 427.676 266.602 418.785 280.065C415.356 285.273 411.799 290.608 408.751 296.577C406.211 301.531 403.162 306.357 400.241 311.057C396.304 317.407 392.112 324.012 389.064 330.871C387.032 335.316 385.508 339.762 383.983 344.08C381.443 351.32 379.03 358.052 374.965 364.53C365.185 379.771 352.23 387.392 338.513 395.521C333.432 398.569 328.097 401.618 322.763 405.301C304.219 417.875 285.675 429.434 262.05 431.72C259.764 431.974 257.351 432.101 255.065 432.101C230.678 432.101 210.864 420.035 198.543 409.746C197.273 408.73 196.003 407.587 194.606 406.571C186.731 400.093 179.364 393.87 170.6 388.535C165.393 385.36 159.677 382.692 154.216 380.279C148.119 377.485 141.768 374.564 136.053 370.88C117.382 358.56 117.001 340.27 116.62 321.091C116.493 317.788 116.493 314.486 116.366 311.184C115.731 297.593 111.412 285.019 107.221 272.826C103.918 263.173 100.489 253.266 98.9647 242.85C97.3136 232.181 96.8055 217.067 100.616 206.778Z" fill="#C6E6CA"/>
<path d="M43.2068 321.472C42.9527 325.155 41.6826 329.093 40.4125 332.776C38.8883 337.222 37.3641 341.794 37.4912 346.367C37.6182 351.066 39.2694 355.258 40.9205 359.322C42.4447 363.005 43.9689 366.943 44.3499 371.261C44.6039 373.675 44.7309 376.088 44.858 378.374C45.112 384.852 45.493 391.075 48.6684 397.426C53.8759 407.841 64.291 413.43 74.3251 418.891C78.3896 421.178 82.708 423.464 86.3914 426.004C93.7582 431.085 101.506 434.895 109.127 438.579C115.605 441.754 122.463 445.056 128.814 449.248C146.977 460.806 160.313 470.967 172.253 481.89C184.954 493.575 196.766 503.483 214.421 505.134C217.597 505.388 221.153 505.642 225.217 505.642C228.647 505.642 232.076 505.515 235.505 505.388C238.808 505.261 242.237 505.134 245.667 505.134C253.922 505.134 260.4 505.769 266.497 507.293C269.672 508.055 272.593 508.436 275.515 508.436C285.676 508.436 293.805 503.737 302.315 498.656C305.998 496.497 309.681 494.338 313.873 492.305C320.986 488.876 327.717 484.939 334.322 481.001C340.927 477.191 347.659 473.126 354.898 469.697C364.424 465.124 372.299 459.155 380.682 452.804C385.636 449.121 390.716 445.183 396.178 441.627C400.496 438.833 404.942 436.165 409.26 433.498C434.282 418.256 460.066 402.507 464.257 371.896C466.67 354.622 470.354 340.651 481.15 328.204C483.436 325.536 485.976 323.25 488.517 320.964C491.311 318.424 494.105 315.883 496.519 312.962C500.583 308.135 502.107 303.563 503.885 298.736C504.774 296.323 505.664 293.91 506.807 291.37C508.331 288.067 510.871 285.146 513.411 282.098C516.079 278.922 518.746 275.62 520.524 271.937C524.081 264.316 523.445 257.203 522.937 249.709C522.81 248.058 522.683 246.28 522.556 244.502C521.413 222.655 518.746 210.462 511.125 192.426C504.647 177.184 496.9 159.783 488.39 146.066C483.817 138.826 477.975 132.475 472.259 126.506C465.908 119.647 459.177 112.534 454.604 104.151C446.983 90.4339 443.3 84.8453 433.012 74.5572C420.945 62.3639 404.18 55.6322 385.763 55.6322C382.206 55.6322 377.888 56.2672 373.442 56.9023C368.616 57.5374 363.535 58.2995 358.963 58.2995C356.295 58.2995 354.009 58.0454 351.977 57.5374C348.548 56.6483 341.689 50.8057 335.719 45.7251C330.385 41.1526 325.431 36.9612 322.51 35.691C313.873 32.0076 306.379 31.2456 298.631 30.3565C293.17 29.7214 287.581 29.0863 281.103 27.5622C274.372 25.911 270.18 24.1328 265.989 22.3546C261.035 20.3224 256.336 18.2902 248.08 16.766C245.413 16.2579 242.237 16.0039 238.427 16.0039C215.056 16.0039 177.714 26.165 162.981 31.6266C138.721 40.5176 125.766 49.2815 105.952 65.2852C87.9156 79.5108 14.3747 158.894 15.8988 197.506C16.6609 217.575 20.7254 231.292 26.441 248.439C28.8542 255.552 29.4893 263.173 30.2514 270.412C31.1405 279.43 32.0296 288.829 36.094 297.339C36.6021 298.228 36.9831 299.244 37.4912 300.134C40.7935 307.119 43.7148 313.216 43.2068 321.472ZM38.5073 299.625C38.1262 298.736 37.6182 297.72 37.2371 296.831C33.2997 288.448 32.4106 279.176 31.5215 270.285C30.7594 262.919 29.9974 255.298 27.5841 248.058C21.8685 230.911 17.804 217.321 17.042 197.506C15.5178 159.402 88.8047 80.5269 106.206 66.3013C125.893 50.2976 138.848 41.6607 162.854 32.8967C177.587 27.4351 214.675 17.4011 237.792 17.4011C241.475 17.4011 244.523 17.6551 247.191 18.1631C255.32 19.8143 259.892 21.7195 264.846 23.7517C269.037 25.5299 273.356 27.3081 280.087 28.9593C286.565 30.6105 292.281 31.2456 297.742 31.7536C305.49 32.6427 312.857 33.4048 321.367 36.9612C324.161 38.1043 329.115 42.2957 334.322 46.7412C340.673 52.2028 347.405 57.9184 351.088 58.8075C353.12 59.3156 355.533 59.5696 358.455 59.5696C363.154 59.5696 368.235 58.8075 373.061 58.1725C377.507 57.5374 381.698 56.9023 385.382 56.9023C403.418 56.9023 419.802 63.507 431.615 75.4463C441.776 85.7344 445.459 91.196 452.953 104.786C457.652 113.423 464.384 120.536 470.862 127.395C476.45 133.365 482.293 139.715 486.866 146.828C495.375 160.418 503.123 177.819 509.601 193.061C517.222 210.97 519.889 223.036 520.905 244.756C521.032 246.534 521.159 248.312 521.286 249.963C521.794 257.33 522.429 264.189 519 271.555C517.349 275.112 514.682 278.287 512.141 281.336C509.601 284.384 507.061 287.432 505.41 290.862C504.139 293.402 503.25 295.942 502.488 298.355C500.837 303.055 499.186 307.5 495.375 312.2C492.962 315.121 490.168 317.661 487.501 320.075C484.96 322.361 482.293 324.774 480.007 327.442C469.084 340.143 465.273 354.368 462.86 371.769C458.796 401.745 433.139 417.367 408.498 432.482C404.18 435.149 399.734 437.816 395.416 440.611C389.954 444.167 384.747 448.105 379.793 451.788C371.537 458.012 363.662 463.981 354.263 468.554C347.023 472.11 340.165 476.048 333.56 479.985C327.082 483.795 320.351 487.733 313.238 491.162C309.046 493.194 305.363 495.354 301.68 497.513C292.916 502.72 285.295 507.166 275.515 507.166C272.72 507.166 269.799 506.785 266.878 506.023C260.654 504.499 254.176 503.737 245.794 503.737C242.364 503.737 238.935 503.864 235.505 503.991C232.203 504.118 228.647 504.245 225.344 504.245C221.407 504.245 217.978 504.118 214.675 503.737C197.401 502.085 185.716 492.305 173.269 480.747C161.329 469.697 147.866 459.663 129.703 447.978C123.225 443.786 116.367 440.484 109.889 437.308C102.395 433.625 94.6473 429.942 87.4075 424.861C83.5971 422.194 79.2787 419.908 75.2142 417.621C65.3072 412.287 55.1461 406.698 50.0655 396.664C47.0172 390.567 46.6361 384.471 46.3821 378.12C46.2551 375.834 46.1281 373.42 45.8741 370.88C45.366 366.308 43.8418 362.37 42.3177 358.56C40.6665 354.368 39.1423 350.558 39.0153 346.113C38.8883 341.794 40.4125 337.222 41.8096 332.903C43.0798 329.093 44.4769 325.155 44.6039 321.218C44.985 312.962 41.8096 306.484 38.5073 299.625Z" fill="#C6E6CA"/>
<path d="M26.0598 337.221C24.5356 341.921 22.8845 346.747 23.0115 351.701C23.1385 356.654 24.9167 361.1 26.5679 365.418C28.092 369.356 29.7432 373.547 30.2513 378.12C30.5053 380.787 30.6323 383.327 30.7593 385.741C31.1404 392.726 31.3944 399.204 34.8237 405.936C40.4124 416.986 51.4625 422.956 62.1317 428.798C66.4502 431.212 71.0226 433.625 74.9601 436.419C82.8349 441.881 91.0908 445.818 99.0927 449.756C106.078 453.185 113.191 456.614 120.05 461.06C139.356 473.38 153.582 484.049 166.156 495.735C179.619 508.182 192.194 518.597 210.992 520.375C214.421 520.756 218.104 520.883 222.423 520.883C226.106 520.883 229.79 520.756 233.346 520.629C236.903 520.502 240.586 520.375 244.142 520.375C252.906 520.375 259.765 521.137 266.243 522.661C269.545 523.551 272.72 523.932 275.769 523.932C286.565 523.932 295.202 518.851 304.347 513.516C308.157 511.23 312.222 508.944 316.54 506.785C324.034 503.101 331.274 498.91 338.259 494.845C345.245 490.781 352.485 486.463 360.106 482.779C370.267 477.826 378.65 471.602 387.414 464.87C392.621 460.933 398.083 456.741 403.926 453.058C408.498 450.137 413.198 447.215 417.77 444.421C444.316 428.163 471.751 411.397 476.196 378.882C478.737 360.592 482.674 345.604 494.105 332.395C496.519 329.601 499.313 327.06 501.98 324.647C504.901 321.98 507.95 319.312 510.49 316.137C514.808 310.93 516.46 306.103 518.365 301.022C519.254 298.482 520.143 295.815 521.413 293.148C523.064 289.591 525.732 286.543 528.399 283.241C531.193 279.938 534.115 276.382 535.893 272.444C539.576 264.316 539.068 256.822 538.433 248.82C538.306 247.042 538.179 245.136 538.052 243.231C536.909 219.988 533.988 207.032 525.859 187.853C519 171.723 510.744 153.179 501.599 138.572C496.773 130.824 490.549 124.219 484.452 117.742C477.593 110.502 470.608 103.008 465.654 93.9901C457.652 79.3836 453.588 73.5409 442.792 62.4907C429.963 49.5353 412.181 42.4226 392.621 42.2956C388.811 42.2956 384.238 42.9306 379.539 43.5657C374.331 44.3278 368.997 45.0899 364.17 45.0899C361.249 45.0899 358.836 44.8358 356.676 44.3278C352.993 43.3117 345.753 37.215 339.276 31.7534C333.687 26.9269 328.352 22.3544 325.177 21.0843C315.905 17.1469 308.03 16.3848 299.774 15.3687C294.059 14.7336 288.089 14.0985 281.103 12.3203C273.991 10.5421 269.418 8.63693 265.1 6.85874C259.892 4.69951 254.938 2.54028 246.175 0.889097C243.38 0.381042 239.951 0 236.013 0C211.119 0 171.617 10.7962 155.868 16.5118C130.084 26.0378 116.367 35.1828 95.2823 52.3296C76.6112 67.4443 -1.50216 151.781 0.0220014 192.68C0.784084 213.891 5.22956 228.498 11.1992 246.788C13.7395 254.408 14.5016 262.41 15.2636 270.158C16.1527 279.811 17.1688 289.718 21.4873 298.736C21.9954 299.752 22.3764 300.768 22.8845 301.785C26.4408 309.278 29.4892 315.629 28.9811 324.52C28.8541 329.22 27.457 333.284 26.0598 337.221ZM24.1546 301.912C23.6465 300.895 23.2655 300.006 22.7574 298.99C18.566 290.099 17.6769 280.319 16.6608 270.793C15.8987 262.918 15.1366 254.917 12.4693 247.169C6.4997 229.006 2.18123 214.526 1.29214 193.442C-0.232026 152.925 77.5004 69.0955 96.0443 54.1078C117.002 37.088 130.719 27.943 156.249 18.544C171.872 12.8284 211.246 2.03222 235.886 2.03222C239.697 2.03222 243.126 2.28625 245.793 2.7943C254.43 4.44548 259.384 6.60471 264.464 8.76395C268.91 10.6692 273.482 12.5744 280.722 14.3526C287.708 16.1307 293.678 16.7658 299.52 17.4009C307.776 18.29 315.524 19.1791 324.542 22.9895C327.463 24.2596 332.798 28.7051 338.259 33.4046C345.118 39.2472 352.104 45.2169 356.041 46.233C358.201 46.8681 360.741 47.1221 363.789 47.1221C368.743 47.1221 374.204 46.36 379.412 45.5979C384.111 44.9629 388.684 44.3278 392.494 44.3278C411.673 44.3278 429.074 51.4406 441.649 64.1419C452.445 75.0651 456.382 80.9077 464.384 95.3873C469.338 104.532 476.45 112.026 483.309 119.393C489.279 125.744 495.502 132.475 500.329 139.969C509.474 154.449 517.603 172.866 524.462 188.996C532.59 208.048 535.385 220.877 536.528 243.866C536.655 245.772 536.782 247.55 536.909 249.455C537.544 257.203 538.052 264.57 534.496 272.444C532.717 276.255 529.923 279.557 527.129 282.86C524.462 286.035 521.667 289.337 519.889 293.021C518.619 295.688 517.603 298.355 516.714 301.022C514.935 306.103 513.284 310.803 509.093 315.756C506.553 318.804 503.631 321.472 500.71 324.139C498.043 326.552 495.248 329.093 492.835 331.887C481.15 345.35 477.085 360.465 474.545 379.009C470.227 410.889 443.046 427.528 416.754 443.532C412.181 446.326 407.355 449.247 402.909 452.169C397.067 455.979 391.605 460.044 386.398 464.108C377.634 470.713 369.251 477.063 359.217 481.89C351.469 485.573 344.229 489.892 337.243 493.956C330.258 498.021 323.145 502.212 315.651 505.896C311.206 508.055 307.268 510.341 303.331 512.627C293.932 518.089 285.93 522.788 275.515 522.788C272.466 522.788 269.418 522.407 266.243 521.645C259.638 519.994 252.779 519.232 243.888 519.232C240.205 519.232 236.521 519.359 232.965 519.486C229.409 519.613 225.725 519.74 222.042 519.74C217.85 519.74 214.167 519.613 210.738 519.232C192.448 517.454 180 507.166 166.664 494.845C153.963 483.16 139.737 472.364 120.431 460.044C113.445 455.598 106.332 452.042 99.3467 448.739C91.3448 444.802 83.216 440.865 75.4681 435.53C71.4037 432.736 66.8312 430.322 62.5127 427.909C51.9706 422.194 41.1744 416.351 35.8399 405.682C32.5375 399.204 32.2835 392.726 31.9024 385.995C31.7754 383.581 31.6484 380.914 31.3944 378.374C30.8863 373.547 29.2351 369.356 27.711 365.291C25.9328 360.846 24.2816 356.782 24.1546 351.955C24.0276 347.255 25.6788 342.556 27.2029 337.983C28.6001 333.919 29.9972 329.855 30.2513 325.663C30.8863 316.137 27.584 309.151 24.1546 301.912Z" fill="#C6E6CA"/>
<path d="M101.251 316.009C101.378 319.693 101.505 323.503 101.633 327.06C102.141 348.906 102.522 369.482 123.987 383.708C130.338 387.899 137.45 391.201 144.309 394.377C150.406 397.171 156.629 399.965 162.345 403.522C171.998 409.364 180.254 416.223 188.891 423.463C190.288 424.606 191.812 425.876 193.209 427.019C207.181 438.451 229.535 452.168 257.097 452.168C259.765 452.168 262.432 452.041 265.099 451.787C291.772 449.12 312.602 436.164 333.433 422.066C339.275 418.001 345.245 414.572 350.96 411.27C366.456 402.125 381.063 393.488 392.113 376.341C396.812 368.974 399.48 361.353 402.274 353.224C403.925 348.398 405.703 343.444 407.863 338.618C411.292 331.124 415.864 323.757 420.183 316.644C423.485 311.31 426.915 305.848 429.709 300.387C433.138 293.782 437.076 287.812 440.886 282.097C450.92 266.855 460.446 252.375 458.287 230.275C456.509 211.731 446.475 198.395 435.933 184.423C432.249 179.597 428.439 174.516 425.009 169.182C421.961 164.482 419.294 159.91 416.626 155.464C405.957 137.555 396.812 121.932 374.966 113.041C364.297 108.596 351.977 108.088 340.037 107.58C338.767 107.58 337.497 107.453 336.227 107.453C334.449 107.326 332.67 107.326 330.892 107.326C325.685 107.199 320.35 107.199 315.778 105.675C312.602 104.659 309.681 103.007 306.633 101.229C303.965 99.705 301.171 98.0539 298.25 97.0377C284.278 92.0842 272.847 89.798 261.289 89.798C254.43 89.798 247.698 89.1629 241.094 88.6548C234.616 88.0198 228.011 87.5117 221.279 87.5117C197.147 87.5117 177.079 94.6245 151.93 112.152C133.132 125.235 119.922 137.555 110.396 150.765C106.332 156.353 103.665 162.069 100.743 168.165C100.108 169.563 99.3463 171.087 98.7112 172.484C96.933 176.167 94.6468 179.851 92.4875 183.407C89.4392 188.361 86.1368 193.568 84.1046 199.157C79.7862 210.969 80.2942 227.989 82.0724 240.055C83.8506 251.74 87.661 262.918 91.3444 273.714C95.6629 287.05 100.489 300.895 101.251 316.009ZM84.9937 199.538C87.0259 194.076 90.2013 188.869 93.2496 183.915C95.4088 180.359 97.6951 176.675 99.6003 172.992C100.362 171.468 100.997 170.071 101.633 168.546C104.427 162.577 107.221 156.861 111.159 151.4C120.685 138.317 133.767 126.124 152.438 113.041C177.333 95.6406 197.147 88.5278 221.025 88.5278C227.757 88.5278 234.362 89.1629 240.712 89.6709C247.19 90.306 254.049 90.9411 261.035 90.9411C272.466 90.9411 283.77 93.1003 297.615 98.0538C300.536 99.07 303.203 100.594 305.871 102.118C308.919 103.896 311.967 105.675 315.27 106.691C320.096 108.215 325.558 108.215 330.765 108.342C332.543 108.342 334.322 108.342 335.973 108.469C337.243 108.469 338.513 108.596 339.91 108.596C351.722 109.104 363.916 109.612 374.331 113.931C395.796 122.695 404.814 138.063 415.356 155.845C418.024 160.291 420.691 164.99 423.739 169.563C427.169 174.897 430.979 179.978 434.662 184.804C445.078 198.649 454.985 211.858 456.763 230.021C458.922 251.74 449.523 265.966 439.616 280.954C435.806 286.796 431.868 292.766 428.439 299.371C425.517 304.832 422.215 310.294 418.913 315.501C414.467 322.614 409.895 329.981 406.465 337.602C404.179 342.555 402.528 347.509 400.75 352.335C397.955 360.337 395.288 367.958 390.716 375.071C379.92 391.964 365.44 400.6 350.071 409.618C344.356 413.048 338.386 416.477 332.543 420.542C311.84 434.64 291.137 447.469 264.845 450.009C262.305 450.263 259.638 450.39 256.97 450.39C229.789 450.39 207.689 436.926 193.971 425.495C192.574 424.352 191.05 423.082 189.653 421.939C180.889 414.699 172.633 407.84 162.853 401.871C157.01 398.314 150.787 395.393 144.69 392.599C137.831 389.423 130.846 386.248 124.495 382.056C103.665 368.212 103.284 348.017 102.776 326.424C102.649 322.741 102.649 319.058 102.395 315.374C101.633 300.133 96.806 286.161 92.2335 272.698C88.5501 262.029 84.7397 250.978 82.9615 239.293C81.1833 227.989 80.8023 211.096 84.9937 199.538Z" fill="#C6E6CA"/>
<path d="M61.1154 352.209C60.8614 353.479 60.6074 354.749 60.3533 355.892C57.559 370.245 55.6538 380.533 68.4822 393.107C79.2784 403.649 93.7579 409.873 109 415.97C130.465 424.479 146.977 437.308 164.632 450.898C169.077 454.328 173.777 458.011 178.476 461.44C192.829 472.11 205.53 476.682 220.391 480.238C225.344 481.382 230.552 483.287 236.013 485.192C246.047 488.748 256.462 492.432 266.115 492.432C279.198 492.432 293.423 486.843 309.554 475.412C322.637 466.14 335.465 457.884 351.215 448.739C364.932 440.737 379.031 432.481 392.113 422.701C395.542 420.161 399.099 417.621 402.909 415.08C415.102 406.698 427.677 397.934 435.425 385.486C444.062 371.642 448.126 355.765 452.063 340.269L452.317 339.126C456.509 322.614 466.67 310.675 476.831 300.26C478.355 298.736 479.879 297.212 481.404 295.688C492.2 285.018 504.52 272.825 504.647 256.821C504.774 245.39 501.218 232.181 498.042 220.622C497.026 216.812 496.01 213.256 495.248 209.826C493.597 203.222 490.422 199.03 486.865 194.458C485.214 192.298 483.563 190.139 482.039 187.599C480.007 184.297 478.609 180.867 477.339 177.438C475.815 173.5 474.164 169.436 471.624 165.626C469.337 162.323 466.543 159.402 463.876 156.481C461.59 154.194 459.303 151.654 457.398 149.114C454.985 145.938 453.08 142.509 451.174 139.207C449.777 136.666 448.253 133.999 446.475 131.332C442.792 125.87 439.743 119.774 436.822 113.804C433.519 107.072 430.09 100.086 425.518 94.1169C414.594 79.6373 398.083 77.9861 383.349 76.4619C381.444 76.3349 379.285 76.2079 376.744 76.2079C373.95 76.2079 371.156 76.3349 368.107 76.4619C365.059 76.589 361.884 76.716 358.708 76.716C351.977 76.716 343.594 76.3349 337.878 72.9056C334.83 71.0004 332.925 68.3331 331.019 65.5388C329.368 62.9985 327.59 60.4582 324.796 58.426C320.604 55.2507 316.032 54.8696 311.713 54.8696C310.697 54.8696 309.554 54.8696 308.538 54.8696C307.522 54.8696 306.379 54.8696 305.236 54.8696C303.712 54.8696 302.441 54.8696 301.298 54.7426C288.216 53.4725 274.879 49.154 260.654 41.6602C252.652 37.4687 245.666 35.4365 238.681 35.4365C232.457 35.4365 225.852 36.9607 217.342 40.3901C207.816 44.3275 198.671 44.9626 189.145 45.7246C184.192 46.1057 179.238 46.4867 173.777 47.2488C161.202 49.154 148.882 57.1559 137.324 65.2847C120.685 76.97 104.427 91.8306 89.0584 109.358C85.248 113.677 80.9295 117.995 76.8651 122.314C69.2443 130.062 61.3694 138.191 55.6538 146.701C47.525 158.767 41.3013 171.976 37.9989 184.043C34.4425 197.125 34.1885 213.256 37.2368 228.243C39.015 236.626 42.0634 244.247 45.1117 251.487C46.8899 255.805 48.7951 260.251 50.3193 264.823C58.5751 288.575 67.0851 320.074 61.1154 352.209ZM51.7164 264.442C50.1922 259.743 48.287 255.424 46.5088 251.106C43.3335 243.485 40.2852 236.372 38.634 227.989C35.5857 213.129 35.8397 197.252 39.3961 184.297C42.6984 172.357 48.7951 159.148 56.797 147.209C62.5126 138.699 70.2604 130.697 77.8812 122.949C82.0727 118.63 86.3911 114.312 90.2015 109.994C105.443 92.5927 121.701 77.8591 138.213 66.1738C149.644 58.172 161.837 50.1701 174.158 48.3919C179.492 47.6298 184.573 47.2488 189.399 46.8678C199.052 46.1057 208.324 45.4706 217.977 41.5332C226.36 38.1038 232.711 36.5796 238.808 36.5796C245.539 36.5796 252.398 38.4849 260.273 42.6763C274.625 50.2971 288.089 54.6156 301.425 55.8857C302.695 56.0127 303.966 56.0127 305.49 56.0127C306.633 56.0127 307.649 56.0127 308.792 56.0127C309.808 56.0127 310.951 56.0127 311.967 56.0127C316.667 56.0127 320.477 56.5208 324.288 59.3151C326.828 61.2203 328.479 63.7606 330.13 66.1738C332.036 69.0952 334.068 72.0165 337.37 73.9217C343.34 77.4781 351.977 77.9861 358.835 77.9861C362.011 77.9861 365.186 77.8591 368.234 77.7321C371.283 77.6051 374.077 77.4781 376.744 77.4781C379.285 77.4781 381.444 77.6051 383.222 77.7321C397.575 79.1292 413.959 80.7804 424.374 94.8789C428.82 100.849 432.249 107.707 435.552 114.439C438.473 120.409 441.521 126.505 445.332 132.094C446.983 134.634 448.507 137.302 450.031 139.842C451.936 143.144 453.842 146.701 456.382 149.876C458.414 152.543 460.7 154.956 462.987 157.37C465.654 160.164 468.448 163.085 470.607 166.388C473.148 170.071 474.672 174.135 476.196 177.946C477.593 181.375 478.863 184.932 481.023 188.361C482.547 190.901 484.325 193.061 485.976 195.22C489.405 199.665 492.581 203.857 494.105 210.08C494.994 213.51 495.883 217.066 496.899 220.877C500.075 232.435 503.631 245.517 503.504 256.694C503.377 272.19 491.311 284.129 480.642 294.671C479.117 296.196 477.466 297.72 476.069 299.244C465.781 309.786 455.62 321.852 451.301 338.745L451.047 339.888C447.11 355.13 443.045 371.007 434.536 384.724C426.915 396.918 414.467 405.554 402.401 413.937C398.845 416.478 395.034 419.018 391.605 421.685C378.65 431.465 364.424 439.721 350.834 447.596C334.957 456.868 322.129 465.124 309.046 474.396C293.169 485.7 279.198 491.162 266.37 491.289V491.924V491.289C256.97 491.289 246.682 487.605 236.648 484.176C231.06 482.144 225.852 480.366 220.899 479.095C206.292 475.539 193.591 471.094 179.492 460.551C174.793 456.995 170.093 453.439 165.648 450.009C147.993 436.419 131.354 423.463 109.762 414.953C94.647 408.984 80.2945 402.76 69.7523 392.472C57.305 380.406 59.2102 370.88 61.8775 356.4C62.1315 355.13 62.3856 353.987 62.6396 352.717C68.4822 319.947 59.8453 288.321 51.7164 264.442Z" fill="#C6E6CA"/>
<path d="M80.5486 344.842C80.2946 345.985 80.1676 347.129 79.9136 348.272C77.3733 361.227 75.5951 370.626 87.2804 382.057C97.0604 391.583 110.143 397.299 123.86 402.761C143.166 410.508 158.281 422.067 174.158 434.387C178.222 437.562 182.414 440.738 186.732 444.04C199.687 453.693 211.246 457.884 224.582 461.06C229.028 462.076 233.727 463.854 238.808 465.632C247.953 468.808 257.352 472.237 266.116 472.237C277.928 472.237 290.883 467.156 305.363 456.741C317.175 448.358 328.733 440.865 343.086 432.482C355.406 425.242 368.235 417.748 380.174 408.857C383.222 406.571 386.525 404.285 389.954 401.871C401.004 394.251 412.308 386.249 419.294 375.072C427.042 362.497 430.852 348.018 434.409 334.173L434.663 333.157C438.473 318.169 447.618 307.373 456.763 297.974C458.033 296.577 459.43 295.18 460.955 293.783C470.735 284.13 481.785 273.08 482.039 258.473C482.166 248.185 478.864 236.119 476.069 225.576C475.18 222.147 474.291 218.972 473.529 215.796C472.132 209.827 469.083 206.016 465.908 201.825C464.384 199.92 462.86 197.887 461.463 195.601C459.684 192.68 458.414 189.505 457.271 186.456C455.874 182.9 454.477 179.216 452.064 175.66C450.031 172.612 447.491 169.944 444.951 167.404C442.919 165.245 440.886 163.086 439.108 160.672C436.949 157.751 435.171 154.703 433.52 151.654C432.249 149.368 430.852 146.828 429.201 144.542C425.772 139.588 423.105 134 420.437 128.665C417.389 122.568 414.341 116.218 410.276 110.756C400.369 97.5466 385.381 96.0224 372.172 94.7523C370.521 94.6253 368.489 94.4983 366.202 94.4983C363.789 94.4983 361.122 94.6253 358.455 94.6253C355.66 94.7523 352.866 94.7523 349.945 94.7523C343.848 94.7523 336.354 94.3713 331.147 91.1959C328.352 89.5447 326.701 87.1315 324.923 84.4642C323.399 82.1779 321.748 79.7647 319.334 77.9865C315.524 75.0652 311.332 74.6841 307.522 74.6841C306.506 74.6841 305.617 74.6841 304.601 74.6841C303.585 74.6841 302.696 74.6841 301.679 74.6841C300.282 74.6841 299.139 74.6841 298.123 74.5571C286.311 73.414 274.244 69.4766 261.289 62.7449C254.049 58.9344 247.699 57.1562 241.348 57.1562C235.632 57.1562 229.663 58.5534 222.042 61.7287C213.405 65.2851 205.149 65.9202 196.512 66.5553C192.067 66.9363 187.494 67.1903 182.668 67.9524C171.236 69.7306 160.186 76.9704 149.644 84.3372C134.529 94.8793 119.923 108.343 105.951 124.346C102.522 128.284 98.5846 132.221 94.9012 136.032C88.0424 143.145 80.8027 150.384 75.7221 158.132C68.4823 169.055 62.7667 181.122 59.8454 192.045C56.6701 203.984 56.416 218.591 59.2103 232.181C60.7345 239.802 63.6558 246.661 66.4501 253.265C68.1013 257.203 69.7525 261.14 71.1496 265.332C78.2624 287.178 86.0102 315.629 80.5486 344.842ZM72.0387 265.205C70.6416 261.013 68.9904 256.949 67.3392 253.011C64.4179 246.153 61.7506 239.548 60.2264 232.054C57.4321 218.591 57.6862 204.238 60.8615 192.553C63.7828 181.757 69.3714 169.817 76.6112 159.021C81.6918 151.4 88.8045 144.161 95.6633 137.048C99.4737 133.237 103.284 129.173 106.84 125.236C120.685 109.359 135.292 95.8954 150.279 85.4803C160.567 78.2405 171.617 71.0007 182.668 69.3496C187.494 68.5875 192.067 68.3335 196.385 67.9524C205.149 67.3173 213.405 66.6823 222.296 63.1259C229.79 60.0776 235.632 58.6804 241.221 58.6804C247.318 58.6804 253.414 60.4586 260.527 64.142C273.609 71.0007 285.803 74.9382 297.742 76.2083C298.885 76.3353 300.028 76.3353 301.425 76.3353C302.442 76.3353 303.458 76.3353 304.347 76.3353C305.363 76.3353 306.252 76.3353 307.141 76.3353C311.332 76.3353 314.889 76.8434 318.191 79.3836C320.477 81.0348 322.002 83.3211 323.526 85.6073C325.304 88.1476 327.082 90.9419 330.131 92.7201C335.592 96.0224 343.34 96.4035 349.564 96.4035C352.358 96.4035 355.279 96.2765 358.074 96.1495C360.741 96.0224 363.408 96.0224 365.821 96.0224C368.108 96.0224 370.013 96.1494 371.664 96.2765C384.619 97.5466 399.353 99.0708 408.879 111.772C412.943 117.107 415.992 123.457 418.913 129.427C421.58 134.762 424.375 140.35 427.677 145.431C429.201 147.717 430.598 150.13 431.868 152.417C433.52 155.465 435.298 158.64 437.584 161.562C439.362 163.975 441.521 166.261 443.554 168.293C445.967 170.833 448.507 173.501 450.539 176.422C452.826 179.724 454.223 183.408 455.62 186.964C456.89 190.14 458.033 193.315 459.938 196.363C461.336 198.65 462.86 200.682 464.384 202.587C467.432 206.524 470.354 210.335 471.751 216.05C472.513 219.099 473.402 222.401 474.291 225.83C477.085 236.246 480.388 248.185 480.261 258.346C480.134 272.317 469.21 283.241 459.557 292.767C458.16 294.164 456.763 295.561 455.366 296.958C445.967 306.611 436.822 317.534 432.885 332.776L432.631 333.792C429.074 347.637 425.391 361.989 417.643 374.436C410.784 385.487 399.48 393.362 388.557 400.982C385.254 403.269 381.952 405.555 378.777 407.968C366.964 416.859 354.263 424.353 341.816 431.466C327.463 439.849 315.905 447.342 304.093 455.725C289.74 466.013 277.166 470.967 265.481 470.967V471.602V470.967C256.971 470.967 247.699 467.665 238.681 464.489C233.6 462.711 228.901 461.06 224.328 459.917C211.119 456.741 199.687 452.677 186.859 443.151C182.541 439.976 178.349 436.673 174.285 433.498C158.281 421.178 143.293 409.492 123.733 401.744C110.143 396.283 97.0604 390.694 87.5344 381.295C76.3572 370.372 78.0084 361.735 80.4216 348.653C80.6757 347.51 80.8027 346.366 81.0567 345.223C87.2804 315.629 79.4055 286.924 72.0387 265.205Z" fill="#C6E6CA"/>
</g>
</svg>
