<svg width="10" height="12" viewBox="0 0 10 12" fill="none" xmlns="http://www.w3.org/2000/svg">
<path d="M4.22143 8.32018C4.12975 8.42221 4.14271 8.57319 4.24457 8.66408C4.24752 8.66675 4.24986 8.67004 4.25301 8.67256C4.3002 8.71004 4.36066 8.73013 4.42091 8.73013C4.49978 8.73013 4.57321 8.69769 4.6232 8.64253C4.71488 8.53513 4.70192 8.37761 4.59162 8.2903C4.58801 8.28749 4.58415 8.28584 4.58038 8.28318C4.47242 8.20686 4.31047 8.221 4.22391 8.31756C4.22142 8.31737 4.22143 8.31737 4.22143 8.32018ZM3.87763 9.0201L3.88042 9.02291C3.93117 9.06756 3.96163 9.12644 3.96682 9.1925C3.96931 9.26019 3.94572 9.32518 3.90122 9.37515C3.07952 10.275 2.92986 10.7802 2.91938 11.7501C2.91938 11.8876 2.80131 12 2.65694 12C2.51258 12 2.39435 11.8876 2.39435 11.7501C2.38636 10.7951 2.5651 10.0451 3.50753 9.04267C3.59922 8.94243 3.77247 8.93245 3.87763 9.0201ZM3.9773 7.25012L4.63872 7.03501C4.65967 7.11995 4.6731 7.21011 4.6731 7.30024C4.6731 7.38517 4.66262 7.46507 4.64421 7.55015C4.63109 7.61514 4.64421 7.68255 4.68093 7.74012C4.71652 7.78966 4.76732 7.82404 4.82682 7.84142C4.83338 7.84336 4.83948 7.84602 4.84619 7.84752C4.98537 7.87503 5.12974 7.78506 5.15862 7.65238C5.18471 7.53737 5.19798 7.42004 5.19798 7.30014C5.19671 7.11269 5.1633 6.9571 5.12455 6.83793L5.50944 6.64869C5.63814 6.58544 5.68865 6.4346 5.62223 6.31175C5.55582 6.18933 5.39793 6.14144 5.2684 6.20434L4.68448 6.4913L3.90341 6.74761C3.65393 6.65744 3.36525 6.63754 3.01097 6.63498C2.57777 6.63498 2.0843 6.67991 1.68796 6.71488C1.4069 6.74238 1.1654 6.76485 1.01825 6.76485L1.01057 6.76485C0.703427 6.75754 0.540651 6.54006 0.524743 6.11746C0.524744 5.97762 0.548338 5.82498 0.595833 5.66509C0.750629 5.57749 1.14447 5.35507 1.55921 5.1099C2.08176 4.80019 2.6696 4.45003 2.88235 4.24771C2.99 4.13764 3.08967 4.01266 3.19462 3.87761C3.24151 3.81868 3.28895 3.75965 3.33711 3.70121C3.52658 3.47153 3.73278 3.25371 4.01104 3.12017C4.11788 3.06767 4.22538 3.02569 4.33079 2.9918C4.76196 2.85316 5.16058 2.85287 5.35259 2.85287L5.36464 2.85287L5.42887 3.2313C5.44967 3.35401 5.56118 3.44151 5.6877 3.44151C5.70158 3.44151 5.71567 3.44044 5.72986 3.43836C5.87311 3.41633 5.97029 3.28795 5.94714 3.15169L5.8431 2.53864L5.74623 1.96515C5.84589 2.0376 5.94022 2.11284 6.02692 2.18786C6.03846 2.19754 6.05021 2.20781 6.06175 2.21773C6.17907 2.31831 6.29684 2.43313 6.40155 2.55453C6.60821 2.79418 6.76269 3.05867 6.7543 3.28524C6.7543 3.30771 6.75431 3.33284 6.74881 3.35769C6.73834 3.43536 6.76722 3.51031 6.82768 3.56518C6.83018 3.56755 6.83282 3.57278 6.83536 3.5753C6.84818 3.58736 6.8705 3.60934 6.90081 3.64106C6.93269 3.67452 6.97327 3.71873 7.02173 3.77524C7.13482 3.90017 7.30258 4.11023 7.47069 4.37531C7.76736 4.84018 8.1193 5.5727 8.1193 6.42769C8.12087 7.50513 8.06804 8.22742 7.99715 8.78812C7.96263 9.06201 7.92372 9.2975 7.88467 9.51691C7.87079 9.59458 7.85701 9.67026 7.84328 9.74494C7.81592 9.8986 7.78876 10.0504 7.76375 10.2079C7.69733 10.625 7.64567 11.086 7.64379 11.7499C7.64379 11.8874 7.76186 11.9998 7.90623 11.9998C8.05059 11.9998 8.16883 11.8874 8.16883 11.7499C8.1674 11.3072 8.19146 10.9622 8.22914 10.6519C8.24912 10.6391 8.26788 10.6246 8.28365 10.6064C8.31523 10.5704 11.4145 6.97334 9.20736 3.35998C8.30083 1.87549 6.58308 1.7726 6.31882 1.76553C5.96219 1.47261 5.6249 1.27209 5.52808 1.21529L5.52259 1.21277L5.52071 1.2119C5.50632 1.20386 5.49117 1.19732 5.47555 1.19194C5.45994 1.18671 5.44382 1.18289 5.42745 1.18066C5.42231 1.18008 5.41743 1.17916 5.41229 1.17872C5.40431 1.178 5.39638 1.17766 5.38855 1.17766C5.377 1.17766 5.36526 1.17824 5.35356 1.17974C5.35122 1.18003 5.34904 1.17974 5.3467 1.18003L5.34527 1.18047C5.32854 1.18313 5.31263 1.1873 5.29732 1.19267C5.29559 1.19325 5.29401 1.19388 5.29234 1.19446C5.27393 1.20129 5.25593 1.20947 5.23925 1.22037C5.23518 1.22303 5.23193 1.22647 5.22786 1.22928L5.22552 1.23107C5.20645 1.24565 5.18941 1.26201 5.17553 1.28046C5.15616 1.30618 5.14197 1.33489 5.13399 1.36583C5.13353 1.36792 5.13322 1.37014 5.13272 1.37223C5.12977 1.38458 5.12804 1.39707 5.12707 1.40971C5.12677 1.41344 5.12661 1.41716 5.12646 1.42084C5.12616 1.43629 5.12646 1.45193 5.1291 1.46772L5.16267 1.66258L5.27983 2.35267C5.02003 2.35611 4.67638 2.375 4.30439 2.47523L1.52038 0.0649662C1.42524 -0.0173063 1.28276 -0.0216165 1.18202 0.0530538C1.08129 0.128015 1.05205 0.261329 1.11251 0.368584L2.86394 3.46525C2.8255 3.51358 2.78848 3.56074 2.75395 3.6051C2.66211 3.725 2.58069 3.82988 2.50727 3.89995C2.41274 3.99767 1.801 4.38255 1.28394 4.6851C0.811234 4.96237 0.37024 5.21244 0.246986 5.2825C0.241494 5.2825 0.241494 5.28488 0.241494 5.28488C0.18637 5.31495 0.144622 5.36507 0.123569 5.42236C0.0420041 5.66496 4.37891e-07 5.89987 4.18655e-07 6.11991C3.90668e-07 6.44004 0.0919899 6.71998 0.26524 6.92752C0.441139 7.13996 0.708708 7.2649 1.00024 7.2649L1.01087 7.2649C1.20238 7.2649 1.47031 7.24006 1.78259 7.20998C2.17374 7.17502 2.61757 7.13265 3.00592 7.13265L3.04248 7.13265C3.36803 7.13265 3.65422 7.17236 3.76981 7.23502C3.83561 7.26722 3.91165 7.27259 3.9773 7.25012ZM3.23106 3.0602L2.30251 1.4179L3.76195 2.68123C3.55367 2.78631 3.3802 2.91963 3.23106 3.0602ZM6.89937 2.34613C7.45284 2.47126 8.2535 2.79105 8.75443 3.61132C10.2058 5.98763 9.14216 8.37 8.41326 9.54061C8.53088 8.86688 8.64494 8.02649 8.64494 6.4277C8.63696 4.8252 7.60255 3.63017 7.27976 3.29533L7.27976 3.28541C7.27365 2.93046 7.11296 2.61707 6.89937 2.34613Z" fill="white" stroke="white" stroke-width="0.1"/>
</svg>
