<svg width="69" height="88" viewBox="0 0 69 88" fill="none" xmlns="http://www.w3.org/2000/svg">
<path d="M39.7943 60.8213C40.4177 61.561 40.3296 62.6556 39.6369 63.3146C39.6169 63.3339 39.601 63.3578 39.5795 63.376C39.2587 63.6478 38.8475 63.7935 38.4378 63.7935C37.9015 63.7935 37.4022 63.5583 37.0623 63.1584C36.4388 62.3797 36.527 61.2377 37.277 60.6047C37.3015 60.5843 37.3278 60.5724 37.3534 60.5531C38.0875 59.9998 39.1888 60.1023 39.7774 60.8023C39.7943 60.8009 39.7943 60.8009 39.7943 60.8213ZM42.1321 65.8957C42.1245 65.9021 42.1204 65.9098 42.1131 65.9161C41.768 66.2398 41.5609 66.6667 41.5256 67.1456C41.5087 67.6364 41.6691 68.1075 41.9717 68.4698C47.5593 74.9939 48.5769 78.6563 48.6482 85.6881C48.6482 86.6848 49.4511 87.5 50.4328 87.5C51.4145 87.5 52.2184 86.6848 52.2184 85.6881C52.2727 78.7642 51.0573 73.3267 44.6488 66.0594C44.0253 65.3326 42.8472 65.2603 42.1321 65.8957ZM41.4544 53.0634L36.9567 51.5038C36.8142 52.1196 36.7229 52.7733 36.7229 53.4267C36.7229 54.0425 36.7942 54.6218 36.9194 55.2386C37.0086 55.7097 36.9194 56.1985 36.6697 56.6159C36.4276 56.975 36.0822 57.2243 35.6776 57.3503C35.633 57.3643 35.5915 57.3837 35.5459 57.3945C34.5995 57.594 33.6178 56.9417 33.4214 55.9797C33.244 55.1459 33.1537 54.2953 33.1537 53.426C33.1624 52.067 33.3896 50.939 33.653 50.075L31.0358 48.703C30.1606 48.2445 29.8172 47.1508 30.2688 46.2602C30.7204 45.3727 31.7941 45.0255 32.6749 45.4815L36.6455 47.5619L41.9568 49.4202C43.6533 48.7665 45.6163 48.6222 48.0254 48.6036C50.9712 48.6036 54.3268 48.9294 57.0219 49.1828C58.9331 49.3823 60.5753 49.5452 61.5759 49.5452H61.6281C63.7167 49.4921 64.8236 47.9154 64.9318 44.8516C64.9318 43.8377 64.7713 42.7311 64.4483 41.5719C63.3957 40.9368 60.7176 39.3243 57.8974 37.5468C54.344 35.3014 50.3467 32.7627 48.9 31.2959C48.168 30.4979 47.4902 29.5918 46.7766 28.6127C46.4577 28.1854 46.1351 27.7575 45.8077 27.3337C44.5193 25.6686 43.1171 24.0894 41.2249 23.1212C40.4984 22.7406 39.7674 22.4363 39.0506 22.1905C36.1187 21.1854 33.4081 21.1833 32.1024 21.1833H32.0204L31.5837 23.9269C31.4423 24.8166 30.684 25.4509 29.8236 25.4509C29.7292 25.4509 29.6334 25.4432 29.537 25.4281C28.5629 25.2684 27.9021 24.3377 28.0595 23.3498L28.7669 18.9052L29.4257 14.7474C28.7479 15.2726 28.1065 15.8181 27.517 16.362C27.4385 16.4322 27.3586 16.5066 27.2801 16.5786C26.4824 17.3078 25.6815 18.1402 24.9695 19.0203C23.5642 20.7578 22.5137 22.6754 22.5707 24.318C22.5707 24.4809 22.5707 24.6631 22.6081 24.8432C22.6793 25.4063 22.4829 25.9498 22.0718 26.3476C22.0548 26.3648 22.0368 26.4027 22.0195 26.4209C21.9324 26.5083 21.7806 26.6677 21.5745 26.8977C21.3577 27.1403 21.0818 27.4608 20.7522 27.8705C19.9832 28.7763 18.8425 30.2992 17.6993 32.221C15.682 35.5913 13.2888 40.902 13.2888 47.1007C13.2781 54.9122 13.6373 60.1488 14.1194 64.2139C14.3541 66.1996 14.6187 67.9069 14.8842 69.4976C14.9786 70.0607 15.0724 70.6094 15.1657 71.1508C15.3518 72.2648 15.5364 73.3651 15.7065 74.5071C16.1581 77.5312 16.5094 80.8735 16.5222 85.6867C16.5222 86.6834 15.7193 87.4986 14.7376 87.4986C13.756 87.4986 12.952 86.6834 12.952 85.6867C12.9617 82.4772 12.7981 79.9761 12.5419 77.7265C12.406 77.6338 12.2784 77.5281 12.1712 77.3964C11.9565 77.1356 -9.1183 51.0567 5.88995 24.8599C12.0543 14.0973 23.7351 13.3513 25.5321 13.3001C27.9571 11.1764 30.2507 9.72263 30.909 9.31082L30.9464 9.29256C30.9505 9.29046 30.955 9.2894 30.9592 9.28624C31.057 9.22796 31.1601 9.18057 31.2662 9.1416C31.3724 9.10368 31.482 9.07595 31.5934 9.0598C31.6283 9.05558 31.6615 9.04891 31.6964 9.04575C31.7507 9.04049 31.8046 9.03803 31.8579 9.03803C31.9364 9.03803 32.0163 9.04224 32.0958 9.05313C32.1117 9.05523 32.1266 9.05313 32.1425 9.05523C32.1456 9.05523 32.1487 9.05734 32.1522 9.05839C32.2659 9.0777 32.3741 9.10789 32.4782 9.14686C32.49 9.15108 32.5007 9.15564 32.5121 9.15985C32.6373 9.20936 32.7597 9.26868 32.8731 9.34768C32.9008 9.36698 32.9229 9.39191 32.9506 9.41227C32.9558 9.41649 32.9613 9.42105 32.9665 9.42526C33.0962 9.53094 33.212 9.6496 33.3064 9.78336C33.4381 9.96978 33.5346 10.178 33.5889 10.4023C33.592 10.4174 33.5941 10.4336 33.5975 10.4486C33.6176 10.5382 33.6294 10.6287 33.6359 10.7204C33.638 10.7474 33.639 10.7744 33.6401 10.8011C33.6422 10.9131 33.6401 11.0265 33.6221 11.141L33.3939 12.5537L32.5972 17.5569C34.3638 17.5818 36.7006 17.7187 39.2301 18.4455L58.1614 0.97101C58.8084 0.374535 59.7773 0.343286 60.4623 0.884645C61.1473 1.42811 61.3461 2.39464 60.9349 3.17224L49.0252 25.6231C49.2866 25.9734 49.5384 26.3154 49.7732 26.637C50.3976 27.5062 50.9513 28.2667 51.4506 28.7746C52.0934 29.4831 56.2532 32.2735 59.7692 34.467C62.9836 36.4772 65.9824 38.2902 66.8205 38.7982C66.8578 38.7982 66.8578 38.8154 66.8578 38.8154C67.2327 39.0334 67.5166 39.3967 67.6597 39.8121C68.2144 41.5709 68.5 43.2741 68.5 44.8694C68.5 47.1903 67.8745 49.2199 66.6964 50.7245C65.5003 52.2647 63.6808 53.1705 61.6983 53.1705H61.6261C60.3238 53.1705 58.5019 52.9904 56.3784 52.7724C53.7186 52.5189 50.7005 52.2117 48.0597 52.2117H47.8111C45.5974 52.2117 43.6513 52.4996 42.8653 52.9539C42.4179 53.1874 41.9006 53.2253 41.4542 53.0624L41.4544 53.0634ZM46.5288 22.6864L52.8429 10.7797L42.9187 19.9389C44.3351 20.7008 45.5146 21.6673 46.5288 22.6864ZM21.5843 17.5094C17.8207 18.4166 12.3762 20.7351 8.9699 26.6821C-0.89939 43.9103 6.33328 61.1825 11.2898 69.6694C10.49 64.7849 9.71437 58.6921 9.71437 47.1009C9.76866 35.4827 16.8027 26.8187 18.9977 24.3912V24.3192C19.0391 21.7458 20.1322 19.4747 21.5845 17.5104L21.5843 17.5094Z" fill="#344ECB"/>
</svg>
