<?xml version="1.0" encoding="utf-8"?>
<svg id="Layer_3" xmlns="http://www.w3.org/2000/svg" viewBox="0 0 2000 470">
  <defs>
    <style>.cls-1,.cls-2,.cls-3{stroke-width:0px;}.cls-2{fill:#79c4ad;}.cls-3{fill:#fff;}</style>
  </defs>
  <g transform="matrix(1.369376, 0, 0, 1.295415, -459.176361, -447.383575)" style="">
    <path class="cls-3" d="m675.14,534.27c-2.56,4.17-6.06,7.32-10.51,9.45-4.45,2.13-9.61,3.2-15.48,3.2s-11.08-1.07-15.62-3.2c-4.55-2.13-8.07-5.28-10.58-9.45-2.51-4.17-3.76-9.28-3.76-15.34v-73.01h13.07v71.16c0,3.6.69,6.63,2.06,9.09,1.37,2.46,3.29,4.33,5.75,5.61,2.46,1.28,5.44,1.92,8.95,1.92s6.48-.69,8.95-2.06c2.46-1.37,4.38-3.31,5.75-5.82,1.37-2.51,2.06-5.47,2.06-8.88v-71.02h13.21v73.01c0,6.06-1.28,11.17-3.83,15.34Z" style=""/>
    <path class="cls-3" d="m732.38,491.51c-.66-1.51-1.59-2.77-2.77-3.76-1.19-.99-2.56-1.75-4.12-2.27-1.56-.52-3.2-.78-4.9-.78-1.42,0-2.87.14-4.33.43-1.47.28-2.96.71-4.47,1.28-1.52.57-3.12,1.33-4.83,2.27v56.82h-13.07v-71.3h13.07v3.83c1.14-.76,2.56-1.51,4.26-2.27,1.7-.76,3.55-1.42,5.54-1.99,1.99-.57,4.07-.85,6.25-.85,2.56,0,4.99.26,7.31.78,2.32.52,4.45,1.35,6.39,2.49,1.94,1.14,3.62,2.61,5.04,4.4,1.42,1.8,2.53,4,3.34,6.61.8,2.61,1.21,5.61,1.21,9.02v49.29h-12.93v-48.86c0-1.89-.33-3.6-.99-5.11Z" style=""/>
    <path class="cls-3" d="m796.86,543.43c-1.7.9-3.62,1.63-5.75,2.2-2.13.57-4.24.85-6.32.85-2.46,0-4.85-.26-7.17-.78-2.32-.52-4.5-1.33-6.53-2.42-2.04-1.09-3.79-2.56-5.26-4.4-1.47-1.85-2.61-4.07-3.41-6.68-.81-2.6-1.21-5.7-1.21-9.3v-48.72h13.35v47.87c0,2.94.45,5.3,1.35,7.1.9,1.8,2.2,3.1,3.91,3.91,1.7.81,3.79,1.21,6.25,1.21,1.99,0,3.88-.36,5.68-1.07,1.8-.71,3.36-1.68,4.69-2.91,1.33-1.23,2.37-2.67,3.12-4.33.76-1.66,1.14-3.48,1.14-5.47v-46.31h13.07v71.16h-13.07v-4.69c-.85.95-2.13,1.87-3.83,2.77Z" style=""/>
    <path class="cls-3" d="m863.05,486.33c-1.42-.43-2.89-.78-4.4-1.07-1.52-.28-3.08-.43-4.69-.43-1.23,0-2.51.12-3.83.35-1.33.24-2.58.62-3.76,1.14-1.19.52-2.16,1.21-2.91,2.06-.76.85-1.14,1.99-1.14,3.41,0,1.7.64,3.17,1.92,4.4,1.28,1.23,2.96,2.34,5.04,3.34,2.08.99,4.4,1.97,6.96,2.91,2.56.95,5.09,2.06,7.6,3.34,2.51,1.28,4.81,2.77,6.89,4.47,2.08,1.7,3.76,3.79,5.04,6.25,1.28,2.46,1.92,5.45,1.92,8.95,0,3.69-.71,6.91-2.13,9.66-1.42,2.75-3.32,5.04-5.68,6.89-2.37,1.85-5.07,3.25-8.1,4.19-3.03.95-6.16,1.42-9.37,1.42-5.11,0-10.04-1.09-14.77-3.27-4.74-2.18-8.76-5.11-12.07-8.81l7.53-8.1c1.8,1.61,3.64,3.01,5.54,4.19,1.89,1.19,3.91,2.11,6.04,2.77,2.13.66,4.33,1,6.6,1,1.42,0,2.89-.17,4.4-.5,1.51-.33,2.91-.9,4.19-1.7,1.28-.8,2.32-1.82,3.12-3.05.8-1.23,1.21-2.7,1.21-4.4,0-2.18-.64-3.98-1.92-5.4-1.28-1.42-2.96-2.7-5.04-3.83-2.08-1.14-4.38-2.2-6.89-3.2-2.51-.99-5.02-2.06-7.53-3.2-2.51-1.14-4.81-2.51-6.89-4.12-2.08-1.61-3.76-3.55-5.04-5.82s-1.92-4.97-1.92-8.1c0-3.41.66-6.32,1.99-8.74,1.33-2.42,3.12-4.45,5.4-6.11,2.27-1.66,4.83-2.86,7.67-3.62,2.84-.76,5.68-1.14,8.52-1.14,2.08,0,4.19.17,6.32.5,2.13.33,4.26.85,6.39,1.56,2.13.71,4.09,1.68,5.9,2.91l-4.26,10.51c-1.14-.66-2.42-1.21-3.84-1.63Z" style=""/>
    <path class="cls-3" d="m924.98,543.43c-1.7.9-3.62,1.63-5.75,2.2-2.13.57-4.24.85-6.32.85-2.46,0-4.85-.26-7.17-.78-2.32-.52-4.5-1.33-6.53-2.42-2.04-1.09-3.79-2.56-5.26-4.4-1.47-1.85-2.61-4.07-3.41-6.68-.81-2.6-1.21-5.7-1.21-9.3v-48.72h13.35v47.87c0,2.94.45,5.3,1.35,7.1.9,1.8,2.2,3.1,3.91,3.91,1.7.81,3.79,1.21,6.25,1.21,1.99,0,3.88-.36,5.68-1.07,1.8-.71,3.36-1.68,4.69-2.91,1.33-1.23,2.37-2.67,3.12-4.33.76-1.66,1.14-3.48,1.14-5.47v-46.31h13.07v71.16h-13.07v-4.69c-.85.95-2.13,1.87-3.83,2.77Z" style=""/>
    <path class="cls-3" d="m994.23,489.66c-.81-1.89-1.94-3.38-3.41-4.47-1.47-1.09-3.29-1.87-5.47-2.34-2.18-.47-4.64-.71-7.39-.71l.99-9.23c5.49,0,10.11.5,13.85,1.49,3.74.99,6.77,2.65,9.09,4.97,2.32,2.32,4,5.38,5.04,9.16,1.04,3.79,1.56,8.48,1.56,14.06v42.75c-1.04.09-2.27.24-3.69.43-1.42.19-2.98.36-4.69.5-1.7.14-3.48.24-5.33.28-1.85.05-3.69.12-5.54.21-1.85.09-3.62.14-5.33.14-4.26,0-8.22-.36-11.86-1.07-3.65-.71-6.84-1.99-9.59-3.83-2.75-1.85-4.9-4.35-6.46-7.53-1.56-3.17-2.34-7.12-2.34-11.86v-13.21c0-3.69.54-6.89,1.63-9.59,1.09-2.7,2.58-4.88,4.47-6.53,1.89-1.66,4.05-2.91,6.46-3.76,2.41-.85,4.95-1.28,7.6-1.28s5.3.36,7.95,1.07c2.65.71,5.18,1.73,7.6,3.05,2.41,1.33,4.43,2.89,6.04,4.69,0-3.03-.4-5.49-1.21-7.39Zm-3.62,14.99c-2.08-.9-4.33-1.68-6.75-2.34-2.41-.66-4.85-.99-7.31-.99-1.14,0-2.27.14-3.41.43s-2.18.76-3.12,1.42c-.95.66-1.7,1.63-2.27,2.91s-.85,2.87-.85,4.76v9.66c0,2.37.23,4.45.71,6.25.47,1.8,1.33,3.32,2.56,4.55,1.23,1.23,3.01,2.15,5.33,2.77,2.32.62,5.37.92,9.16.92.95-.09,1.92-.16,2.91-.21.99-.05,1.96-.12,2.91-.21.95-.09,1.8-.16,2.56-.21.76-.05,1.56-.12,2.41-.21v-27.13c-1.14-.66-2.75-1.44-4.83-2.34Z" style=""/>
    <path class="cls-3" d="m1023.27,445.92h13.21v99.43h-13.21v-99.43Z" style=""/>
    <path class="cls-2" d="m1119.74,545.34h-13.07v-86.5h-21.87v-12.93h57.24v12.93h-22.3v86.5Z" style="fill: rgb(157, 235, 174);"/>
    <path class="cls-2" d="m1152.05,529.29c.52,1.23,1.23,2.27,2.13,3.12.9.85,2.01,1.49,3.34,1.92,1.33.43,2.79.64,4.4.64,2.84,0,5.92-.54,9.23-1.63,3.31-1.09,6.53-2.44,9.66-4.05l4.83,11.08c-3.32,2.08-7.1,3.74-11.36,4.97-4.26,1.23-8.38,1.85-12.36,1.85-3.41,0-6.58-.4-9.52-1.21-2.94-.8-5.49-2.04-7.67-3.69-2.18-1.66-3.86-3.81-5.04-6.46-1.18-2.65-1.78-5.87-1.78-9.66v-29.12c0-5.4,1.16-9.89,3.48-13.49,2.32-3.6,5.47-6.3,9.45-8.1,3.98-1.8,8.43-2.7,13.35-2.7s9.54.9,13.28,2.7c3.74,1.8,6.63,4.45,8.66,7.95,2.04,3.5,3.05,7.91,3.05,13.21v21.02l-37.92,1.99v5.25c0,1.71.26,3.17.78,4.4Zm22.8-37.21c-.85-2.18-2.13-3.93-3.83-5.26-1.71-1.33-4.03-1.89-6.96-1.7-3.12,0-5.63.59-7.53,1.78-1.9,1.18-3.25,2.84-4.05,4.97-.81,2.13-1.21,4.71-1.21,7.74v7.81l24.86-1.42v-6.82c0-2.56-.43-4.92-1.28-7.1Z" style="fill: rgb(157, 235, 174);"/>
    <path class="cls-2" d="m1236.49,485.33c-2.37-.62-4.69-.97-6.96-1.07-3.32-.19-6.18.28-8.59,1.42-2.42,1.14-4.24,2.84-5.47,5.11-1.23,2.27-1.9,5.07-1.99,8.38v20.74c0,2.65.36,4.97,1.07,6.96.71,1.99,1.78,3.6,3.2,4.83,1.42,1.23,3.15,2.16,5.18,2.77,2.04.62,4.33.92,6.89.92,1.7,0,3.41-.07,5.11-.21,1.7-.14,3.24-.33,4.62-.57,1.37-.24,2.82-.54,4.33-.92l2.42,10.94c-2.94.76-5.99,1.37-9.16,1.85-3.17.47-6.32.66-9.45.57-5.4-.19-10.16-1.21-14.28-3.05s-7.31-4.69-9.59-8.52c-2.27-3.83-3.41-8.78-3.41-14.84v-20.74c0-5.4,1.02-10.13,3.05-14.2,2.04-4.07,5.06-7.29,9.09-9.66,4.02-2.37,8.97-3.46,14.84-3.27,3.12,0,6.27.43,9.45,1.28,3.17.85,6.23,1.94,9.16,3.27l-2.98,10.37c-1.99-.95-4.17-1.73-6.53-2.34Z" style="fill: rgb(157, 235, 174);"/>
    <path class="cls-2" d="m1275.27,475.53c1.7-.8,3.55-1.47,5.54-1.99,1.99-.52,4.02-.78,6.11-.78,2.56,0,4.99.28,7.31.85,2.32.57,4.47,1.4,6.46,2.49,1.99,1.09,3.72,2.56,5.18,4.4,1.47,1.85,2.6,4.05,3.41,6.6.8,2.56,1.21,5.59,1.21,9.09v49.15h-13.07v-48.86c0-1.89-.33-3.57-.99-5.04-.66-1.47-1.59-2.7-2.77-3.69-1.19-.99-2.56-1.75-4.12-2.27-1.56-.52-3.25-.78-5.04-.78-1.42,0-2.87.14-4.33.43-1.47.28-2.96.71-4.47,1.28-1.52.57-3.12,1.28-4.83,2.13v56.82h-13.07v-99.43h13.07v32.1c1.23-.85,2.7-1.68,4.4-2.49Z" style="fill: rgb(157, 235, 174);"/>
    <path class="cls-2" d="m1363.47,491.51c-.66-1.51-1.59-2.77-2.77-3.76-1.18-.99-2.56-1.75-4.12-2.27-1.56-.52-3.2-.78-4.9-.78-1.42,0-2.87.14-4.33.43-1.47.28-2.96.71-4.47,1.28-1.52.57-3.12,1.33-4.83,2.27v56.82h-13.07v-71.3h13.07v3.83c1.14-.76,2.56-1.51,4.26-2.27,1.7-.76,3.55-1.42,5.54-1.99,1.99-.57,4.07-.85,6.25-.85,2.56,0,4.99.26,7.31.78,2.32.52,4.45,1.35,6.39,2.49,1.94,1.14,3.62,2.61,5.04,4.4,1.42,1.8,2.53,4,3.34,6.61.8,2.61,1.21,5.61,1.21,9.02v49.29h-12.92v-48.86c0-1.89-.33-3.6-1-5.11Z" style="fill: rgb(157, 235, 174);"/>
    <path class="cls-2" d="m1438.19,539.17c-4.26,5.07-10.7,7.6-19.32,7.6-6.16,0-11.22-1.28-15.2-3.83-3.98-2.56-6.91-5.94-8.81-10.16-1.9-4.21-2.84-8.78-2.84-13.71v-18.75c0-6.06,1.04-11.13,3.12-15.2,2.08-4.07,5.11-7.17,9.09-9.3,3.98-2.13,8.81-3.2,14.49-3.2,8.33,0,14.72,2.44,19.18,7.32,4.45,4.88,6.68,11.67,6.68,20.38v18.75c0,8.33-2.13,15.03-6.39,20.1Zm-8.31-47.16c-.9-2.13-2.27-3.74-4.12-4.83-1.85-1.09-4.19-1.63-7.03-1.63s-5.38.55-7.31,1.63c-1.94,1.09-3.43,2.68-4.47,4.76-1.04,2.08-1.56,4.69-1.56,7.81v20.6c0,2.46.5,4.76,1.49,6.89.99,2.13,2.49,3.81,4.47,5.04,1.99,1.23,4.45,1.85,7.39,1.85s5.33-.59,7.17-1.78c1.85-1.18,3.2-2.82,4.05-4.9.85-2.08,1.28-4.45,1.28-7.1v-20.6c0-3.03-.45-5.61-1.35-7.74Z" style="fill: rgb(157, 235, 174);"/>
    <path class="cls-2" d="m1459.06,445.92h13.21v99.43h-13.21v-99.43Z" style="fill: rgb(157, 235, 174);"/>
    <path class="cls-2" d="m1533.21,539.17c-4.26,5.07-10.7,7.6-19.32,7.6-6.16,0-11.22-1.28-15.2-3.83-3.98-2.56-6.91-5.94-8.81-10.16-1.9-4.21-2.84-8.78-2.84-13.71v-18.75c0-6.06,1.04-11.13,3.12-15.2,2.08-4.07,5.11-7.17,9.09-9.3,3.98-2.13,8.81-3.2,14.49-3.2,8.33,0,14.72,2.44,19.18,7.32,4.45,4.88,6.68,11.67,6.68,20.38v18.75c0,8.33-2.13,15.03-6.39,20.1Zm-8.31-47.16c-.9-2.13-2.27-3.74-4.12-4.83-1.85-1.09-4.19-1.63-7.03-1.63s-5.38.55-7.32,1.63c-1.94,1.09-3.43,2.68-4.47,4.76-1.04,2.08-1.56,4.69-1.56,7.81v20.6c0,2.46.5,4.76,1.49,6.89.99,2.13,2.49,3.81,4.47,5.04,1.99,1.23,4.45,1.85,7.39,1.85s5.33-.59,7.17-1.78c1.85-1.18,3.2-2.82,4.05-4.9.85-2.08,1.28-4.45,1.28-7.1v-20.6c0-3.03-.45-5.61-1.35-7.74Z" style="fill: rgb(157, 235, 174);"/>
    <path class="cls-2" d="m1601.38,565.8c-1.52,2.93-3.76,5.16-6.75,6.68-2.98,1.51-6.6,2.46-10.87,2.84l-3.27-10.23c1.33-.19,2.58-.55,3.76-1.06,1.18-.52,2.25-1.26,3.2-2.2.95-.95,1.71-2.13,2.27-3.55.57-1.42.85-3.08.85-4.97v-11.93c-.76.85-1.7,1.63-2.84,2.34-1.14.71-2.37,1.3-3.69,1.78-1.33.47-2.72.85-4.19,1.14-1.47.28-2.96.43-4.47.43-7.86,0-13.87-2.29-18.04-6.89-4.17-4.59-6.25-11.24-6.25-19.96v-24c0-4.92.9-9.14,2.7-12.64,1.8-3.5,4.4-6.2,7.81-8.1,3.41-1.89,7.62-2.79,12.64-2.7,1.89.09,3.79.35,5.68.78,1.89.43,3.74,1.04,5.54,1.85,1.8.81,3.5,1.87,5.11,3.2v-4.4h13.07v80.25c0,4.64-.76,8.43-2.27,11.36Zm-12.64-77.34c-.95-.62-2.08-1.18-3.41-1.71-1.33-.52-2.7-.99-4.12-1.42-1.42-.43-2.75-.64-3.98-.64-1.61-.09-3.2.05-4.76.43-1.56.38-2.96,1.04-4.19,1.99-1.23.95-2.23,2.25-2.98,3.91-.76,1.66-1.14,3.67-1.14,6.04v25.28c0,2.56.47,4.81,1.42,6.75.95,1.94,2.32,3.46,4.12,4.54,1.8,1.09,4.02,1.59,6.68,1.49,2.27-.09,4.26-.43,5.97-.99,1.71-.57,3.17-1.37,4.4-2.42,1.23-1.04,2.18-2.22,2.84-3.55.66-1.33.99-2.75.99-4.26v-33.81c-.28-.47-.9-1.02-1.85-1.63Z" style="fill: rgb(157, 235, 174);"/>
    <path class="cls-2" d="m1630.22,446.48c1.42,1.33,2.13,3.03,2.13,5.11s-.71,3.69-2.13,5.11c-1.42,1.42-3.12,2.13-5.11,2.13s-3.69-.71-5.11-2.13c-1.42-1.42-2.13-3.12-2.13-5.11s.71-3.79,2.13-5.11c1.42-1.33,3.12-1.99,5.11-1.99s3.69.66,5.11,1.99Zm-11.79,27.7h13.21v71.16h-13.21v-71.16Z" style="fill: rgb(157, 235, 174);"/>
    <path class="cls-2" d="m1660.12,529.29c.52,1.23,1.23,2.27,2.13,3.12.9.85,2.01,1.49,3.34,1.92,1.33.43,2.79.64,4.4.64,2.84,0,5.92-.54,9.23-1.63,3.31-1.09,6.53-2.44,9.66-4.05l4.83,11.08c-3.32,2.08-7.1,3.74-11.36,4.97-4.26,1.23-8.38,1.85-12.36,1.85-3.41,0-6.58-.4-9.52-1.21-2.94-.8-5.49-2.04-7.67-3.69-2.18-1.66-3.86-3.81-5.04-6.46-1.18-2.65-1.78-5.87-1.78-9.66v-29.12c0-5.4,1.16-9.89,3.48-13.49,2.32-3.6,5.47-6.3,9.45-8.1,3.98-1.8,8.43-2.7,13.35-2.7s9.54.9,13.28,2.7c3.74,1.8,6.63,4.45,8.66,7.95,2.04,3.5,3.05,7.91,3.05,13.21v21.02l-37.92,1.99v5.25c0,1.71.26,3.17.78,4.4Zm22.8-37.21c-.85-2.18-2.13-3.93-3.83-5.26-1.7-1.33-4.03-1.89-6.96-1.7-3.12,0-5.63.59-7.53,1.78-1.9,1.18-3.24,2.84-4.05,4.97-.81,2.13-1.21,4.71-1.21,7.74v7.81l24.86-1.42v-6.82c0-2.56-.43-4.92-1.28-7.1Z" style="fill: rgb(157, 235, 174);"/>
    <path class="cls-2" d="m1742.43,486.33c-1.42-.43-2.89-.78-4.4-1.07-1.52-.28-3.08-.43-4.69-.43-1.23,0-2.51.12-3.83.35-1.33.24-2.58.62-3.76,1.14-1.18.52-2.15,1.21-2.91,2.06-.76.85-1.14,1.99-1.14,3.41,0,1.7.64,3.17,1.92,4.4,1.28,1.23,2.96,2.34,5.04,3.34,2.08.99,4.4,1.97,6.96,2.91,2.56.95,5.09,2.06,7.6,3.34,2.51,1.28,4.8,2.77,6.89,4.47,2.08,1.7,3.76,3.79,5.04,6.25,1.28,2.46,1.92,5.45,1.92,8.95,0,3.69-.71,6.91-2.13,9.66-1.42,2.75-3.32,5.04-5.68,6.89-2.37,1.85-5.07,3.25-8.1,4.19-3.03.95-6.16,1.42-9.38,1.42-5.11,0-10.04-1.09-14.77-3.27-4.74-2.18-8.76-5.11-12.07-8.81l7.53-8.1c1.8,1.61,3.64,3.01,5.54,4.19,1.89,1.19,3.91,2.11,6.04,2.77,2.13.66,4.33,1,6.6,1,1.42,0,2.89-.17,4.4-.5,1.51-.33,2.91-.9,4.19-1.7,1.28-.8,2.32-1.82,3.12-3.05.8-1.23,1.21-2.7,1.21-4.4,0-2.18-.64-3.98-1.92-5.4-1.28-1.42-2.96-2.7-5.04-3.83-2.08-1.14-4.38-2.2-6.89-3.2-2.51-.99-5.02-2.06-7.53-3.2-2.51-1.14-4.81-2.51-6.89-4.12-2.08-1.61-3.76-3.55-5.04-5.82-1.28-2.27-1.92-4.97-1.92-8.1,0-3.41.66-6.32,1.99-8.74,1.33-2.42,3.12-4.45,5.4-6.11,2.27-1.66,4.83-2.86,7.67-3.62,2.84-.76,5.68-1.14,8.52-1.14,2.08,0,4.19.17,6.32.5,2.13.33,4.26.85,6.39,1.56,2.13.71,4.09,1.68,5.89,2.91l-4.26,10.51c-1.14-.66-2.42-1.21-3.83-1.63Z" style="fill: rgb(157, 235, 174);"/>
  </g>
  <path class="cls-2" d="M 137.058 424.583 L 137.058 390.545 C 137.289 383.349 140.966 378.894 143.878 376.796 C 152.237 371.312 163.851 373.681 167.709 374.965 C 170.649 375.95 172.038 376.485 173.56 377.135 C 175.074 377.781 176.729 378.539 180.301 380.002 C 182.072 380.733 184.199 381.36 186.295 381.59 C 188.359 381.817 189.747 381.844 190.566 380.968 C 191.368 380.406 191.394 380.248 191.429 379.839 C 191.463 379.45 191.379 379.228 190.92 378.546 C 189.829 376.352 185.143 375.456 180.896 374.49 C 150.328 367.256 141.346 373.2 127.499 376.033 C 123.343 376.75 121.363 378.21 116.453 378.744 C 110.141 379.136 104.518 377.531 100.61 374.891 C 96.657 372.223 93.926 368.137 92.967 364.267 C 92.247 360.944 92.606 356.619 94.824 352.877 C 96.995 349.213 101.263 345.635 107.624 343.306 C 119.889 338.96 154.606 331.166 189.367 340.727 C 193.016 341.756 195.907 342.108 198.24 341.799 C 200.439 341.507 201.554 341.036 202.09 339.471 C 202.714 338.168 202.925 337.261 202.771 336.225 C 202.618 335.183 202.26 334.442 200.959 333.456 C 193.071 326.767 172.118 324.894 140.44 331.427 C 120.872 335.432 106.017 337.593 94.904 331.009 C 84.298 324.253 78.308 311.689 77.063 293.386 C 75.845 268.422 59.333 253.291 41.509 231.403 C 22.192 207.667 1.996 182.534 1.509 149.964 L 1.51 149.647 C 3.56 101.507 22.936 66.054 50.015 43.024 C 77.13 19.961 112.403 8.902 145.571 8.853 L 145.591 8.853 C 178.768 8.902 214.05 19.963 241.168 43.027 C 268.249 66.059 287.624 101.583 289.664 149.719 L 289.664 149.917 C 289.446 187.943 274.068 206.443 260.682 222.258 C 256.734 226.92 253.074 231.229 250.127 235.74 C 243.274 246.117 227.455 275.1 224.336 280.761 C 215.943 295.641 202.07 304.642 186.93 305.094 C 173.715 305.276 160.65 300.561 151.61 292.349 C 142.044 283.284 139.197 270.94 139.184 256.398 L 139.182 254.492 L 152.542 254.642 L 152.538 256.503 C 152.515 267.831 155.515 276.049 162.301 282.085 C 168.494 287.904 177.191 290.959 186.609 290.73 C 193.248 290.704 198.162 288.132 202.242 284.715 C 206.295 281.322 209.033 277.274 210.784 274.109 C 213.355 269.514 229.374 240.046 237.119 228.204 C 240.563 222.97 244.56 218.236 248.718 213.318 C 261.533 198.174 274.561 183.118 274.384 150.061 C 272.678 106.265 255.388 74.815 230.959 53.919 C 206.567 33.054 175.501 23.172 145.581 23.217 L 145.571 23.217 C 115.667 23.168 84.613 33.047 60.225 53.908 C 35.799 74.802 18.506 107.655 16.779 151.436 C 16.905 179.265 34.632 199.322 53.639 222.671 C 71.715 244.881 90.498 263.33 92.316 292.57 C 93.158 306.452 96.718 315.122 103.312 319.011 C 109.801 323.392 119.864 320.807 135.806 317.756 C 173.294 310.654 197.668 314.739 209.262 321.411 C 213.882 324.188 216.931 328.129 217.933 332.251 C 218.934 336.364 218.099 341.176 215.904 345.586 C 213.986 349.251 210.183 353.049 204.941 354.926 C 199.801 356.765 192.706 356.951 184.406 354.285 C 156.007 344.771 130.711 350.674 112.862 356.776 C 110.796 357.458 109.524 358.225 108.64 359.159 C 107.836 360.008 107.571 360.4 107.896 361.211 C 108.02 362.159 108.601 362.752 109.884 363.461 C 111.254 364.217 112.869 364.638 115.261 364.41 C 118.475 364.26 119.74 363.56 124.411 362.589 C 138.005 359.909 151.792 353.601 186.36 361.025 C 194.208 362.762 200.852 364.634 205.221 372.619 C 206.545 375.472 206.743 378.951 206.077 381.805 C 205.408 384.675 203.774 387.517 201.978 389.249 C 199.25 391.7 194.746 393.669 189.914 394.267 C 185.131 394.859 179.418 394.21 174.237 391.979 C 170.758 390.443 165.171 387.734 163.022 387.167 C 158.188 385.698 155.056 386.78 153.067 388.264 C 152.655 388.549 151.95 388.582 152.348 390.535 L 152.348 423.47 L 151.163 424.583 L 137.058 424.583 Z" style="fill: rgb(157, 235, 174);"/>
  <rect class="cls-1" x="136.113" y="432.587" width="18.927" height="14.429" style="fill: rgb(255, 255, 255);"/>
  <path class="cls-1" d="M 128.197 402.085 C 128.315 399.952 129.5 397.647 131.194 396.312 C 132.856 395.003 135.48 394.137 137.976 394.077 L 153.166 394.077 C 155.663 394.137 158.286 395.003 159.949 396.312 C 161.643 397.647 162.827 399.952 162.945 402.085 L 162.945 435.282 L 128.197 435.282 L 128.197 402.085 Z" style="fill: rgb(255, 255, 255);"/>
  <path class="cls-2" d="M 153.166 395.005 C 155.275 395.067 157.552 395.817 158.96 396.94 C 160.395 398.086 161.416 400.126 161.533 401.97 L 161.533 432.598 L 161.533 434.482 L 159.529 434.482 L 131.624 434.482 L 129.62 434.482 L 129.62 432.598 L 129.62 401.97 C 129.735 400.131 130.753 398.091 132.188 396.945 C 133.594 395.819 135.871 395.068 137.986 395.005 L 153.176 395.005 M 158.373 398.21 C 156.966 397.085 155.354 396.446 153.176 396.507 L 137.986 396.507 C 135.808 396.446 134.197 397.085 132.789 398.21 C 131.41 399.312 130.686 400.377 130.802 401.963 L 130.802 432.971 L 160.36 432.971 L 160.36 401.963 C 160.475 400.377 159.753 399.312 158.373 398.21 Z" style="fill: rgb(255, 255, 255);"/>
  <path class="cls-2" d="M 197.208 108.068 C 206.397 117.452 211.923 130.405 211.923 143.477 C 211.923 168.685 209.679 194.215 205.301 219.047 L 204.661 222.667 C 202.366 235.035 195.492 246.889 185.86 255.115 C 175.948 263.264 162.791 268.031 149.897 268.156 L 145.539 268.156 C 132.637 268.031 119.476 263.25 109.571 255.101 C 99.937 246.876 93.079 235.04 90.785 222.661 L 90.143 219.046 C 85.767 194.215 83.522 168.685 83.522 143.477 C 83.522 130.406 89.056 117.438 98.253 108.051 C 107.802 98.721 121.109 93.238 134.551 93.082 L 160.882 93.082 C 173.744 93.231 186.489 98.271 195.931 106.884 L 196.037 106.884 L 196.627 107.48 L 197.208 108.068 Z M 134.859 108.033 C 125.183 107.841 117.121 111.669 110.731 118.308 C 104.227 124.891 100.426 133.37 100.58 143.463 C 100.561 157.449 101.019 168.153 102.264 181.432 C 133.477 178.096 160.314 177.662 193.132 181.425 C 194.261 168.848 194.834 157.467 194.816 143.48 C 194.97 133.387 191.172 124.891 184.668 118.307 C 178.28 111.669 170.237 107.841 160.558 108.033 L 134.859 108.033 Z M 139.585 193.906 C 126.798 194.145 117.786 194.668 103.928 196.376 C 104.978 204.887 106.075 212.255 107.854 221.986 C 109.318 231.182 113.758 238.585 120.368 244.191 C 126.354 249.383 132.333 252.02 139.676 252.674 L 140.676 252.764 L 140.392 252.878 C 140.302 252.913 146.044 253.322 147.625 253.31 C 149.014 253.306 154.219 252.852 154.155 252.847 L 153.706 252.813 L 154.642 252.754 C 162.468 252.278 168.765 249.633 175.046 244.183 C 181.656 238.578 186.087 231.217 187.55 222.022 C 189.33 212.288 190.418 205.351 191.492 196.367 C 178.66 194.835 168.898 194.166 155.828 193.901 L 155.828 198.168 C 156.975 198.944 157.89 199.633 159.077 200.952 C 160.918 203.104 162.605 206.737 163.422 208.941 C 164.097 210.857 164.242 212.205 164.395 213.84 C 164.574 215.751 164.681 218.169 164.387 220.494 C 164.073 222.862 163.497 225.8 162.306 228.297 C 161.057 230.788 158.702 233.794 156.897 235.389 C 155.311 236.701 153.628 237.458 152.197 237.924 C 150.732 238.376 149.052 238.569 147.635 238.518 C 146.25 238.442 144.697 238.129 143.247 237.522 C 141.667 236.807 139.708 235.439 138.441 234.283 C 137.231 233.147 136.3 231.899 135.496 230.58 C 134.616 229.113 133.764 227.16 133.239 225.603 C 132.757 224.146 132.483 222.879 132.29 221.294 C 132.077 219.507 131.862 217.202 132.114 214.793 C 132.412 212.177 133.14 208.508 134.36 205.837 C 135.556 203.346 137.636 200.745 139.208 199.257 C 139.581 198.909 139.456 199.031 139.585 198.92 L 139.585 193.906 Z" style="fill: rgb(157, 235, 174);"/>
</svg>